{
DisplayStrings = (

glyphs = (
{
glyphname = A;
lastChange = "2014-04-12 01:45:58 +0900";
layers = (
{
anchors = (
{
name = ogonek;
position = "{541, 0}";
},
{
name = top;
position = "{396, 690}";
}
);
layerId = "4375068D-FDA0-47DA-A897-61BBB4269C7B";
name = "Light Italic";
paths = (
{
closed = 1;
nodes = (
"378 690 LINE",
"-11 0 LINE SMOOTH",
"16 0 LINE",
"393 671 LINE",
"532 0 LINE",
"556 0 LINE",
"411 690 LINE"
);
},
{
closed = 1;
nodes = (
"163 290 LINE",
"160 269 LINE",
"486 269 LINE",
"489 290 LINE"
);
}
);
width = 620;
},
{
anchors = (
{
name = ogonek;
position = "{497, 0}";
},
{
name = top;
position = "{419, 690}";
}
);
layerId = "518735FF-A855-4455-BD68-071AC00DFA4E";
name = "Regular Italic";
paths = (
{
closed = 1;
nodes = (
"353 690 LINE",
"-17 0 LINE",
"81 0 LINE",
"402 622 LINE",
"498 0 LINE",
"591 0 LINE",
"475 690 LINE"
);
},
{
closed = 1;
nodes = (
"170 314 LINE",
"157 244 LINE",
"508 244 LINE",
"521 314 LINE"
);
}
);
width = 646;
},
{
anchors = (
{
name = ogonek;
position = "{479, 0}";
},
{
name = top;
position = "{438, 690}";
}
);
layerId = "F37E1481-2EA3-4843-874F-9D06DA6D7C4C";
name = "Bold Italic";
paths = (
{
closed = 1;
nodes = (
"321 690 LINE",
"-43 0 LINE",
"148 0 LINE",
"404 523 LINE",
"479 0 LINE",
"675 0 LINE",
"554 690 LINE"
);
},
{
closed = 1;
nodes = (
"200 319 LINE",
"175 179 LINE",
"526 179 LINE",
"551 319 LINE"
);
}
);
width = 707;
}
);
leftKerningGroup = A;
rightKerningGroup = A;
unicode = 0041;
},
{
glyphname = AE;
lastChange = "2014-04-12 01:45:58 +0900";
layers = (
{
anchors = (
{
name = top;
position = "{461, 690}";
}
);
layerId = "4375068D-FDA0-47DA-A897-61BBB4269C7B";
name = "Light Italic";
paths = (
{
closed = 1;
nodes = (
"537 690 LINE",
"-30 0 LINE",
"-2 0 LINE",
"545.271 669.534 LINE",
"456 0 LINE",
"477 0 LINE",
"569 690 LINE"
);
},
{
closed = 1;
nodes = (
"222 290 LINE",
"206 269 LINE",
"495 269 LINE",
"498 290 LINE"
);
},
{
closed = 1;
nodes = (
"470 20 LINE",
"466 0 LINE",
"857 0 LINE",
"861 20 LINE"
);
},
{
closed = 1;
nodes = (
"519 355 LINE",
"515 335 LINE",
"886 335 LINE",
"890 355 LINE"
);
},
{
closed = 1;
nodes = (
"560 690 LINE",
"554 670 LINE",
"965 670 LINE",
"969 690 LINE"
);
}
);
width = 937;
},
{
anchors = (
{
name = top;
position = "{460, 690}";
}
);
layerId = "518735FF-A855-4455-BD68-071AC00DFA4E";
name = "Regular Italic";
paths = (
{
closed = 1;
nodes = (
"450 690 LINE",
"-80 0 LINE",
"28 0 LINE",
"483.564 602.182 LINE",
"412 0 LINE",
"498 0 LINE",
"577 690 LINE"
);
},
{
closed = 1;
nodes = (
"236 314 LINE",
"178 244 LINE",
"459 244 LINE",
"472 314 LINE"
);
},
{
closed = 1;
nodes = (
"486 70 LINE",
"473 0 LINE",
"847 0 LINE",
"860 70 LINE"
);
},
{
closed = 1;
nodes = (
"530 380 LINE",
"518 310 LINE",
"862 310 LINE",
"874 380 LINE"
);
},
{
closed = 1;
nodes = (
"555 690 LINE",
"542 620 LINE",
"946 620 LINE",
"959 690 LINE"
);
}
);
width = 929;
},
{
anchors = (
{
name = top;
position = "{564, 690}";
}
);
layerId = "F37E1481-2EA3-4843-874F-9D06DA6D7C4C";
name = "Bold Italic";
paths = (
{
closed = 1;
nodes = (
"392 690 LINE",
"-89 0 LINE",
"102 0 LINE",
"456.044 542.868 LINE",
"423 0 LINE",
"603 0 LINE",
"645 690 LINE"
);
},
{
closed = 1;
nodes = (
"231 349 LINE",
"134 209 LINE",
"460 209 LINE",
"485 349 LINE"
);
},
{
closed = 1;
nodes = (
"569 140 LINE",
"544 0 LINE",
"919 0 LINE",
"944 140 LINE"
);
},
{
closed = 1;
nodes = (
"588 416 LINE",
"593 276 LINE",
"938 276 LINE",
"963 416 LINE"
);
},
{
closed = 1;
nodes = (
"586 690 LINE",
"581 550 LINE",
"1006 550 LINE",
"1031 690 LINE"
);
}
);
width = 997;
}
);
rightKerningGroup = E;
rightMetricsKey = E;
unicode = 00C6;
},
{
glyphname = B;
lastChange = "2014-08-20 09:23:21 +0900";
layers = (
{
layerId = "518735FF-A855-4455-BD68-071AC00DFA4E";
leftMetricsKey = H;
name = "Regular Italic";
paths = (
{
closed = 1;
nodes = (
"230 690 LINE",
"218 620 LINE",
"372 620 LINE SMOOTH",
"388 620 OFFCURVE",
"408 620 OFFCURVE",
"426 618 CURVE SMOOTH",
"479 612 OFFCURVE",
"515 585 OFFCURVE",
"515 530 CURVE SMOOTH",
"515 468 OFFCURVE",
"488 411 OFFCURVE",
"396 397 CURVE SMOOTH",
"375 394 OFFCURVE",
"358 393 OFFCURVE",
"340 393 CURVE SMOOTH",
"177 393 LINE",
"165 323 LINE",
"338 323 LINE SMOOTH",
"354 323 OFFCURVE",
"370 322 OFFCURVE",
"392 319 CURVE SMOOTH",
"447 311 OFFCURVE",
"486 285 OFFCURVE",
"486 221 CURVE SMOOTH",
"486 129 OFFCURVE",
"419 79 OFFCURVE",
"342 72 CURVE SMOOTH",
"329 71 OFFCURVE",
"310 70 OFFCURVE",
"294 70 CURVE SMOOTH",
"121 70 LINE",
"108 0 LINE",
"274 0 LINE SMOOTH",
"306 0 OFFCURVE",
"328 0 OFFCURVE",
"363 5 CURVE SMOOTH",
"469 21 OFFCURVE",
"580 80 OFFCURVE",
"580 214 CURVE SMOOTH",
"580 319 OFFCURVE",
"511 368 OFFCURVE",
"391 378 CURVE",
"386 351 LINE",
"518 369 OFFCURVE",
"610 419 OFFCURVE",
"610 547 CURVE SMOOTH",
"610 626 OFFCURVE",
"559 673 OFFCURVE",
"466 686 CURVE SMOOTH",
"434 690 OFFCURVE",
"410 690 OFFCURVE",
"377 690 CURVE SMOOTH"
);
},
{
closed = 1;
nodes = (
"174 690 LINE",
"52 0 LINE",
"138 0 LINE",
"260 690 LINE"
);
}
);
width = 646.996;
},
{
layerId = "4375068D-FDA0-47DA-A897-61BBB4269C7B";
leftMetricsKey = H;
name = "Light Italic";
paths = (
{
closed = 1;
nodes = (
"167 690 LINE",
"163 669 LINE",
"320 669 LINE SMOOTH",
"346 669 OFFCURVE",
"362 669 OFFCURVE",
"385 668 CURVE SMOOTH",
"462 665 OFFCURVE",
"525 635 OFFCURVE",
"525 546 CURVE SMOOTH",
"525 418 OFFCURVE",
"416 377 OFFCURVE",
"334 373 CURVE SMOOTH",
"311 372 OFFCURVE",
"295 372 OFFCURVE",
"279 372 CURVE SMOOTH",
"111 372 LINE",
"107 351 LINE",
"292 351 LINE SMOOTH",
"308 351 OFFCURVE",
"321 351 OFFCURVE",
"344 350 CURVE SMOOTH",
"456 345 OFFCURVE",
"492 279 OFFCURVE",
"492 212 CURVE SMOOTH",
"492 81 OFFCURVE",
"378 29 OFFCURVE",
"282 22 CURVE SMOOTH",
"269 21 OFFCURVE",
"253 21 OFFCURVE",
"237 21 CURVE SMOOTH",
"49 21 LINE",
"45 0 LINE",
"220 0 LINE SMOOTH",
"244 0 OFFCURVE",
"264 0 OFFCURVE",
"289 2 CURVE SMOOTH",
"405 9 OFFCURVE",
"516 85 OFFCURVE",
"516 215 CURVE SMOOTH",
"516 301 OFFCURVE",
"463 363 OFFCURVE",
"350 367 CURVE",
"349 361 LINE",
"466 361 OFFCURVE",
"550 441 OFFCURVE",
"550 551 CURVE SMOOTH",
"550 631 OFFCURVE",
"493 682 OFFCURVE",
"402 688 CURVE SMOOTH",
"367 690 OFFCURVE",
"351 690 OFFCURVE",
"324 690 CURVE SMOOTH"
);
},
{
closed = 1;
nodes = (
"150 690 LINE",
"28 0 LINE",
"50 0 LINE",
"172 690 LINE"
);
}
);
width = 580;
},
{
layerId = "F37E1481-2EA3-4843-874F-9D06DA6D7C4C";
leftMetricsKey = H;
name = "Bold Italic";
paths = (
{
closed = 1;
nodes = (
"303 690 LINE",
"278 550 LINE",
"379 550 LINE SMOOTH",
"395 550 OFFCURVE",
"411 549 OFFCURVE",
"424 547 CURVE SMOOTH",
"452 543 OFFCURVE",
"469 527 OFFCURVE",
"469 497 CURVE SMOOTH",
"469 448 OFFCURVE",
"441 427 OFFCURVE",
"401 421 CURVE SMOOTH",
"387 419 OFFCURVE",
"372 418 OFFCURVE",
"356 418 CURVE SMOOTH",
"255 418 LINE",
"232 288 LINE",
"344 288 LINE SMOOTH",
"360 288 OFFCURVE",
"376 288 OFFCURVE",
"389 287 CURVE SMOOTH",
"421 284 OFFCURVE",
"447 264 OFFCURVE",
"447 226 CURVE SMOOTH",
"447 174 OFFCURVE",
"404 143 OFFCURVE",
"368 141 CURVE SMOOTH",
"354 140 OFFCURVE",
"339 140 OFFCURVE",
"323 140 CURVE SMOOTH",
"206 140 LINE",
"181 0 LINE",
"296 0 LINE SMOOTH",
"340 0 OFFCURVE",
"363 0 OFFCURVE",
"399 4 CURVE SMOOTH",
"504 16 OFFCURVE",
"637 83 OFFCURVE",
"637 222 CURVE SMOOTH",
"637 325 OFFCURVE",
"572 388 OFFCURVE",
"428 388 CURVE",
"422 357 LINE",
"583 360 OFFCURVE",
"663 431 OFFCURVE",
"663 536 CURVE SMOOTH",
"663 612 OFFCURVE",
"612 674 OFFCURVE",
"514 686 CURVE SMOOTH",
"479 690 OFFCURVE",
"463 690 OFFCURVE",
"426 690 CURVE SMOOTH"
);
},
{
closed = 1;
nodes = (
"143 690 LINE",
"21 0 LINE",
"201 0 LINE",
"323 690 LINE"
);
}
);
width = 671.661;
}
);
leftKerningGroup = H;
leftMetricsKey = H;
unicode = 0042;
},
{
glyphname = C;
lastChange = "2014-08-20 09:23:21 +0900";
layers = (
{
anchors = (
{
name = bottom;
position = "{258, 0}";
},
{
name = top;
position = "{442, 690}";
}
);
layerId = "518735FF-A855-4455-BD68-071AC00DFA4E";
leftMetricsKey = O;
name = "Regular Italic";
paths = (
{
closed = 1;
nodes = (
"219 704 OFFCURVE",
"56 515 OFFCURVE",
"57 271 CURVE SMOOTH",
"56 98 OFFCURVE",
"149 -14 OFFCURVE",
"321 -14 CURVE SMOOTH",
"503 -14 OFFCURVE",
"606 85 OFFCURVE",
"644 220 CURVE SMOOTH",
"647 230 LINE",
"561 230 LINE",
"557 220 LINE SMOOTH",
"519 121 OFFCURVE",
"453 54 OFFCURVE",
"338 54 CURVE SMOOTH",
"224 54 OFFCURVE",
"154 128 OFFCURVE",
"154 282 CURVE SMOOTH",
"154 477 OFFCURVE",
"264 636 OFFCURVE",
"430 636 CURVE SMOOTH",
"545 636 OFFCURVE",
"607 589 OFFCURVE",
"607 470 CURVE SMOOTH",
"607 460 LINE",
"693 460 LINE",
"694 470 LINE SMOOTH",
"704 605 OFFCURVE",
"619 704 OFFCURVE",
"444 704 CURVE SMOOTH"
);
}
);
width = 716.852;
},
{
anchors = (
{
name = bottom;
position = "{275, 0}";
},
{
name = top;
position = "{439, 690}";
}
);
layerId = "4375068D-FDA0-47DA-A897-61BBB4269C7B";
leftMetricsKey = O;
name = "Light Italic";
paths = (
{
closed = 1;
nodes = (
"245 704 OFFCURVE",
"67 538 OFFCURVE",
"67 269 CURVE SMOOTH",
"67 91 OFFCURVE",
"165 -14 OFFCURVE",
"312 -14 CURVE SMOOTH",
"477 -14 OFFCURVE",
"577 90 OFFCURVE",
"628 217 CURVE SMOOTH",
"632 227 LINE",
"610 227 LINE",
"606 217 LINE SMOOTH",
"559 101 OFFCURVE",
"465 7 OFFCURVE",
"317 7 CURVE SMOOTH",
"190 7 OFFCURVE",
"91 93 OFFCURVE",
"91 270 CURVE SMOOTH",
"91 538 OFFCURVE",
"275 683 OFFCURVE",
"439 683 CURVE SMOOTH",
"576 683 OFFCURVE",
"655 609 OFFCURVE",
"655 484 CURVE SMOOTH",
"655 474 LINE",
"677 474 LINE",
"677 484 LINE SMOOTH",
"677 608 OFFCURVE",
"598 704 OFFCURVE",
"447 704 CURVE SMOOTH"
);
}
);
width = 694.615;
},
{
layerId = "F37E1481-2EA3-4843-874F-9D06DA6D7C4C";
leftMetricsKey = O;
name = "Bold Italic";
paths = (
{
closed = 1;
nodes = (
"251 704 OFFCURVE",
"63 540 OFFCURVE",
"63 271 CURVE SMOOTH",
"63 84 OFFCURVE",
"180 -14 OFFCURVE",
"352 -14 CURVE SMOOTH",
"525 -14 OFFCURVE",
"657 71 OFFCURVE",
"703 237 CURVE SMOOTH",
"706 247 LINE",
"526 247 LINE",
"522 237 LINE SMOOTH",
"494 161 OFFCURVE",
"441 118 OFFCURVE",
"371 118 CURVE SMOOTH",
"306 118 OFFCURVE",
"252 162 OFFCURVE",
"252 283 CURVE SMOOTH",
"252 472 OFFCURVE",
"344 572 OFFCURVE",
"450 572 CURVE SMOOTH",
"523 572 OFFCURVE",
"562 537 OFFCURVE",
"564 463 CURVE SMOOTH",
"564 453 LINE",
"744 453 LINE",
"745 463 LINE SMOOTH",
"755 599 OFFCURVE",
"663 704 OFFCURVE",
"466 704 CURVE SMOOTH"
);
}
);
width = 767.165;
}
);
leftKerningGroup = O;
leftMetricsKey = O;
rightKerningGroup = C;
unicode = 0043;
},
{
glyphname = D;
lastChange = "2014-08-20 09:23:21 +0900";
layers = (
{
anchors = (
{
name = center;
position = "{393, 345}";
},
{
name = top;
position = "{384, 690}";
}
);
layerId = "518735FF-A855-4455-BD68-071AC00DFA4E";
name = "Regular Italic";
paths = (
{
closed = 1;
nodes = (
"254 690 LINE",
"241 620 LINE",
"348 620 LINE SMOOTH",
"380 620 OFFCURVE",
"402 619 OFFCURVE",
"424 616 CURVE SMOOTH",
"518 603 OFFCURVE",
"594 533 OFFCURVE",
"594 390 CURVE SMOOTH",
"594 242 OFFCURVE",
"517 100 OFFCURVE",
"334 74 CURVE SMOOTH",
"312 71 OFFCURVE",
"287 70 OFFCURVE",
"256 70 CURVE SMOOTH",
"145 70 LINE",
"132 0 LINE",
"238 0 LINE SMOOTH",
"270 0 OFFCURVE",
"291 0 OFFCURVE",
"327 3 CURVE SMOOTH",
"570 26 OFFCURVE",
"689 213 OFFCURVE",
"689 392 CURVE SMOOTH",
"689 580 OFFCURVE",
"575 675 OFFCURVE",
"438 687 CURVE SMOOTH",
"404 690 OFFCURVE",
"388 690 OFFCURVE",
"351 690 CURVE SMOOTH"
);
},
{
closed = 1;
nodes = (
"174 690 LINE",
"52 0 LINE",
"138 0 LINE",
"260 690 LINE"
);
}
);
width = 711.344;
},
{
anchors = (
{
name = center;
position = "{355, 345}";
},
{
name = top;
position = "{396, 690}";
}
);
layerId = "4375068D-FDA0-47DA-A897-61BBB4269C7B";
name = "Light Italic";
paths = (
{
closed = 1;
nodes = (
"164 690 LINE",
"160 669 LINE",
"335 669 LINE SMOOTH",
"371 669 OFFCURVE",
"385 669 OFFCURVE",
"407 667 CURVE SMOOTH",
"529 656 OFFCURVE",
"619 574 OFFCURVE",
"619 404 CURVE SMOOTH",
"619 223 OFFCURVE",
"500 44 OFFCURVE",
"297 25 CURVE SMOOTH",
"263 22 OFFCURVE",
"242 21 OFFCURVE",
"211 21 CURVE SMOOTH",
"46 21 LINE",
"42 0 LINE",
"203 0 LINE SMOOTH",
"237 0 OFFCURVE",
"256 0 OFFCURVE",
"292 3 CURVE SMOOTH",
"501 19 OFFCURVE",
"642 204 OFFCURVE",
"642 406 CURVE SMOOTH",
"642 597 OFFCURVE",
"533 678 OFFCURVE",
"411 688 CURVE SMOOTH",
"387 690 OFFCURVE",
"371 690 OFFCURVE",
"339 690 CURVE SMOOTH"
);
},
{
closed = 1;
nodes = (
"150 690 LINE",
"28 0 LINE",
"50 0 LINE",
"172 690 LINE"
);
}
);
width = 670.335;
},
{
anchors = (
{
name = center;
position = "{400, 345}";
},
{
name = top;
position = "{433, 690}";
}
);
layerId = "F37E1481-2EA3-4843-874F-9D06DA6D7C4C";
name = "Bold Italic";
paths = (
{
closed = 1;
nodes = (
"303 690 LINE",
"278 550 LINE",
"358 550 LINE SMOOTH",
"384 550 OFFCURVE",
"400 550 OFFCURVE",
"423 548 CURVE SMOOTH",
"497 541 OFFCURVE",
"540 496 OFFCURVE",
"540 392 CURVE SMOOTH",
"540 264 OFFCURVE",
"481 154 OFFCURVE",
"352 142 CURVE SMOOTH",
"329 140 OFFCURVE",
"313 140 OFFCURVE",
"287 140 CURVE SMOOTH",
"206 140 LINE",
"181 0 LINE",
"281 0 LINE SMOOTH",
"318 0 OFFCURVE",
"334 0 OFFCURVE",
"370 3 CURVE SMOOTH",
"612 26 OFFCURVE",
"730 196 OFFCURVE",
"730 397 CURVE SMOOTH",
"730 581 OFFCURVE",
"627 670 OFFCURVE",
"490 686 CURVE SMOOTH",
"456 690 OFFCURVE",
"430 690 OFFCURVE",
"394 690 CURVE SMOOTH"
);
},
{
closed = 1;
nodes = (
"143 690 LINE",
"21 0 LINE",
"201 0 LINE",
"323 690 LINE"
);
}
);
width = 741.707;
}
);
leftKerningGroup = H;
leftMetricsKey = H;
rightKerningGroup = O;
rightMetricsKey = O;
unicode = 0044;
},
{
glyphname = Eth;
lastChange = "2014-08-20 09:54:20 +0900";
layers = (
{
components = (
{
name = D;
transform = "{1, 0, 0, 1, 0, 0}";
}
);
layerId = "4375068D-FDA0-47DA-A897-61BBB4269C7B";
name = "Light Italic";
paths = (
{
closed = 1;
nodes = (
"30 344 LINE",
"26 323 LINE",
"298 323 LINE",
"302 344 LINE"
);
}
);
width = 670.335;
},
{
components = (
{
name = D;
transform = "{1, 0, 0, 1, 0, 0}";
}
);
layerId = "518735FF-A855-4455-BD68-071AC00DFA4E";
name = "Regular Italic";
paths = (
{
closed = 1;
nodes = (
"21 361 LINE",
"11 305 LINE",
"315 305 LINE",
"325 361 LINE"
);
}
);
width = 711.344;
},
{
components = (
{
name = D;
transform = "{1, 0, 0, 1, 0, 0}";
}
);
layerId = "F37E1481-2EA3-4843-874F-9D06DA6D7C4C";
name = "Bold Italic";
paths = (
{
closed = 1;
nodes = (
"30 389 LINE",
"13 293 LINE",
"353 293 LINE",
"370 389 LINE"
);
}
);
width = 741.707;
}
);
rightMetricsKey = D;
unicode = 00D0;
},
{
glyphname = E;
lastChange = "2014-04-12 01:45:58 +0900";
layers = (
{
anchors = (
{
name = bottom;
position = "{257, 0}";
},
{
name = ogonek;
position = "{449, 0}";
},
{
name = top;
position = "{410, 690}";
}
);
layerId = "518735FF-A855-4455-BD68-071AC00DFA4E";
name = "Regular Italic";
paths = (
{
closed = 1;
nodes = (
"174 690 LINE",
"52 0 LINE",
"138 0 LINE",
"260 690 LINE"
);
},
{
closed = 1;
nodes = (
"126 70 LINE",
"113 0 LINE",
"511 0 LINE",
"524 70 LINE"
);
},
{
closed = 1;
nodes = (
"180 380 LINE",
"168 310 LINE",
"526 310 LINE",
"538 380 LINE"
);
},
{
closed = 1;
nodes = (
"235 690 LINE",
"222 620 LINE",
"610 620 LINE",
"623 690 LINE"
);
}
);
width = 593;
},
{
anchors = (
{
name = bottom;
position = "{222, 0}";
},
{
name = ogonek;
position = "{446, 0}";
},
{
name = top;
position = "{344, 690}";
}
);
layerId = "4375068D-FDA0-47DA-A897-61BBB4269C7B";
name = "Light Italic";
paths = (
{
closed = 1;
nodes = (
"150 690 LINE",
"28 0 LINE",
"50 0 LINE",
"172 690 LINE"
);
},
{
closed = 1;
nodes = (
"43 20 LINE",
"39 0 LINE",
"457 0 LINE",
"461 20 LINE"
);
},
{
closed = 1;
nodes = (
"102 355 LINE",
"98 335 LINE",
"486 335 LINE",
"490 355 LINE"
);
},
{
closed = 1;
nodes = (
"161 690 LINE",
"157 670 LINE",
"565 670 LINE",
"569 690 LINE"
);
}
);
width = 537;
},
{
anchors = (
{
name = bottom;
position = "{269, 0}";
},
{
name = ogonek;
position = "{377, 0}";
},
{
name = top;
position = "{403, 690}";
}
);
layerId = "F37E1481-2EA3-4843-874F-9D06DA6D7C4C";
name = "Bold Italic";
paths = (
{
closed = 1;
nodes = (
"143 690 LINE",
"21 0 LINE",
"201 0 LINE",
"323 690 LINE"
);
},
{
closed = 1;
nodes = (
"167 140 LINE",
"142 0 LINE",
"550 0 LINE",
"575 140 LINE"
);
},
{
closed = 1;
nodes = (
"216 416 LINE",
"191 276 LINE",
"569 276 LINE",
"594 416 LINE"
);
},
{
closed = 1;
nodes = (
"264 690 LINE",
"239 550 LINE",
"637 550 LINE",
"662 690 LINE"
);
}
);
width = 628;
}
);
leftMetricsKey = H;
rightKerningGroup = E;
unicode = 0045;
},
{
glyphname = F;
lastChange = "2014-08-20 09:23:21 +0900";
layers = (
{
layerId = "518735FF-A855-4455-BD68-071AC00DFA4E";
name = "Regular Italic";
paths = (
{
closed = 1;
nodes = (
"174 690 LINE",
"52 0 LINE",
"138 0 LINE",
"260 690 LINE"
);
},
{
closed = 1;
nodes = (
"180 380 LINE",
"168 310 LINE",
"516 310 LINE",
"528 380 LINE"
);
},
{
closed = 1;
nodes = (
"235 690 LINE",
"222 620 LINE",
"610 620 LINE",
"623 690 LINE"
);
}
);
width = 576;
},
{
layerId = "4375068D-FDA0-47DA-A897-61BBB4269C7B";
name = "Light Italic";
paths = (
{
closed = 1;
nodes = (
"150 690 LINE",
"28 0 LINE",
"50 0 LINE",
"172 690 LINE"
);
},
{
closed = 1;
nodes = (
"102 355 LINE",
"98 335 LINE",
"476 335 LINE",
"480 355 LINE"
);
},
{
closed = 1;
nodes = (
"161 690 LINE",
"157 670 LINE",
"565 670 LINE",
"569 690 LINE"
);
}
);
width = 511;
},
{
layerId = "F37E1481-2EA3-4843-874F-9D06DA6D7C4C";
name = "Bold Italic";
paths = (
{
closed = 1;
nodes = (
"143 690 LINE",
"21 0 LINE",
"201 0 LINE",
"323 690 LINE"
);
},
{
closed = 1;
nodes = (
"216 416 LINE",
"191 276 LINE",
"559 276 LINE",
"584 416 LINE"
);
},
{
closed = 1;
nodes = (
"264 690 LINE",
"239 550 LINE",
"637 550 LINE",
"662 690 LINE"
);
}
);
width = 604;
}
);
leftMetricsKey = H;
unicode = 0046;
},
{
glyphname = G;
lastChange = "2014-08-20 09:23:21 +0900";
layers = (
{
anchors = (
{
name = bottom;
position = "{289, 0}";
},
{
name = top;
position = "{535, 690}";
}
);
layerId = "518735FF-A855-4455-BD68-071AC00DFA4E";
name = "Regular Italic";
paths = (
{
closed = 1;
nodes = (
"229 704 OFFCURVE",
"56 515 OFFCURVE",
"56 271 CURVE SMOOTH",
"56 108 OFFCURVE",
"143 -14 OFFCURVE",
"314 -14 CURVE SMOOTH",
"393 -14 OFFCURVE",
"459 12 OFFCURVE",
"506 56 CURVE",
"593 188 LINE",
"563 263 LINE",
"542 140 OFFCURVE",
"443 54 OFFCURVE",
"331 54 CURVE SMOOTH",
"217 54 OFFCURVE",
"154 148 OFFCURVE",
"154 282 CURVE SMOOTH",
"154 477 OFFCURVE",
"274 636 OFFCURVE",
"440 636 CURVE SMOOTH",
"555 636 OFFCURVE",
"607 590 OFFCURVE",
"607 470 CURVE SMOOTH",
"607 460 LINE",
"693 460 LINE",
"694 470 LINE SMOOTH",
"704 605 OFFCURVE",
"629 704 OFFCURVE",
"454 704 CURVE SMOOTH"
);
},
{
closed = 1;
nodes = (
"415 333 LINE",
"402 263 LINE",
"563 263 LINE",
"554 156 LINE",
"527 0 LINE",
"603 0 LINE",
"662 333 LINE"
);
}
);
width = 757.156;
},
{
anchors = (
{
name = bottom;
position = "{278, 0}";
},
{
name = top;
position = "{452, 690}";
}
);
layerId = "4375068D-FDA0-47DA-A897-61BBB4269C7B";
leftMetricsKey = O;
name = "Light Italic";
paths = (
{
closed = 1;
nodes = (
"251 704 OFFCURVE",
"66 524 OFFCURVE",
"66 269 CURVE SMOOTH",
"66 91 OFFCURVE",
"164 -14 OFFCURVE",
"314 -14 CURVE SMOOTH",
"403 -14 OFFCURVE",
"502 23 OFFCURVE",
"576 119 CURVE",
"625 219 LINE",
"626 287 LINE",
"588 75 OFFCURVE",
"424 7 OFFCURVE",
"319 7 CURVE SMOOTH",
"190 7 OFFCURVE",
"90 93 OFFCURVE",
"90 270 CURVE SMOOTH",
"90 537 OFFCURVE",
"281 683 OFFCURVE",
"453 683 CURVE SMOOTH",
"590 683 OFFCURVE",
"661 607 OFFCURVE",
"661 484 CURVE SMOOTH",
"661 474 LINE",
"683 474 LINE",
"683 484 LINE SMOOTH",
"683 608 OFFCURVE",
"612 704 OFFCURVE",
"461 704 CURVE SMOOTH"
);
},
{
closed = 1;
nodes = (
"396 307 LINE",
"393 287 LINE",
"626 287 LINE",
"614 219 LINE",
"575 0 LINE",
"597 0 LINE",
"651 307 LINE"
);
}
);
width = 726.583;
},
{
anchors = (
{
name = bottom;
position = "{338, 0}";
},
{
name = top;
position = "{483, 690}";
}
);
layerId = "F37E1481-2EA3-4843-874F-9D06DA6D7C4C";
leftMetricsKey = O;
name = "Bold Italic";
paths = (
{
closed = 1;
nodes = (
"271 704 OFFCURVE",
"62 552 OFFCURVE",
"62 264 CURVE SMOOTH",
"62 83 OFFCURVE",
"164 -14 OFFCURVE",
"322 -14 CURVE SMOOTH",
"395 -14 OFFCURVE",
"444 -3 OFFCURVE",
"488 30 CURVE",
"542 123 LINE",
"540 228 LINE",
"502 152 OFFCURVE",
"450 118 OFFCURVE",
"380 118 CURVE SMOOTH",
"310 118 OFFCURVE",
"253 163 OFFCURVE",
"253 285 CURVE SMOOTH",
"253 476 OFFCURVE",
"355 572 OFFCURVE",
"461 572 CURVE SMOOTH",
"534 572 OFFCURVE",
"573 537 OFFCURVE",
"575 463 CURVE SMOOTH",
"575 453 LINE",
"755 453 LINE",
"756 463 LINE SMOOTH",
"766 599 OFFCURVE",
"683 704 OFFCURVE",
"486 704 CURVE SMOOTH"
);
},
{
closed = 1;
nodes = (
"431 368 LINE",
"406 228 LINE",
"540 228 LINE",
"533 128 LINE",
"530 0 LINE",
"670 0 LINE",
"735 368 LINE"
);
}
);
width = 777.862;
}
);
leftKerningGroup = O;
leftMetricsKey = O;
rightKerningGroup = G;
unicode = 0047;
},
{
glyphname = H;
lastChange = "2014-04-12 01:45:58 +0900";
layers = (
{
anchors = (
{
name = center;
position = "{389, 345}";
},
{
name = top;
position = "{450, 690}";
}
);
layerId = "518735FF-A855-4455-BD68-071AC00DFA4E";
name = "Regular Italic";
paths = (
{
closed = 1;
nodes = (
"640 690 LINE",
"518 0 LINE",
"604 0 LINE",
"726 690 LINE"
);
},
{
closed = 1;
nodes = (
"174 690 LINE",
"52 0 LINE",
"138 0 LINE",
"260 690 LINE"
);
},
{
closed = 1;
nodes = (
"179 374 LINE",
"166 302 LINE",
"604 302 LINE",
"617 374 LINE"
);
}
);
width = 729;
},
{
anchors = (
{
name = center;
position = "{333, 345}";
},
{
name = top;
position = "{394, 690}";
}
);
layerId = "4375068D-FDA0-47DA-A897-61BBB4269C7B";
name = "Light Italic";
paths = (
{
closed = 1;
nodes = (
"616 690 LINE",
"494 0 LINE",
"516 0 LINE",
"638 690 LINE"
);
},
{
closed = 1;
nodes = (
"150 690 LINE",
"28 0 LINE",
"50 0 LINE",
"172 690 LINE"
);
},
{
closed = 1;
nodes = (
"99 349 LINE",
"95 328 LINE",
"565 328 LINE",
"569 349 LINE"
);
}
);
width = 618;
},
{
anchors = (
{
name = center;
position = "{400, 345}";
},
{
name = top;
position = "{461, 690}";
}
);
layerId = "F37E1481-2EA3-4843-874F-9D06DA6D7C4C";
name = "Bold Italic";
paths = (
{
closed = 1;
nodes = (
"599 690 LINE",
"477 0 LINE",
"657 0 LINE",
"779 690 LINE"
);
},
{
closed = 1;
nodes = (
"143 690 LINE",
"21 0 LINE",
"201 0 LINE",
"323 690 LINE"
);
},
{
closed = 1;
nodes = (
"204 408 LINE",
"179 268 LINE",
"607 268 LINE",
"632 408 LINE"
);
}
);
width = 762;
}
);
unicode = 0048;
},
{
glyphname = Hbar;
lastChange = "2014-08-20 09:23:21 +0900";
layers = (
{
components = (
{
name = H;
transform = "{1, 0, 0, 1, -0, 0}";
}
);
layerId = "518735FF-A855-4455-BD68-071AC00DFA4E";
name = "Regular Italic";
paths = (
{
closed = 1;
nodes = (
"111 558 LINE",
"101 502 LINE",
"733 502 LINE",
"743 558 LINE"
);
}
);
width = 729.275;
},
{
components = (
{
name = H;
transform = "{1, 0, 0, 1, -0, 0}";
}
);
layerId = "4375068D-FDA0-47DA-A897-61BBB4269C7B";
name = "Light Italic";
paths = (
{
closed = 1;
nodes = (
"84 541 LINE",
"80 520 LINE",
"647 520 LINE",
"651 541 LINE"
);
}
);
width = 617.273;
},
{
components = (
{
name = H;
transform = "{1, 0, 0, 1, -1, 0}";
}
);
layerId = "F37E1481-2EA3-4843-874F-9D06DA6D7C4C";
name = "Bold Italic";
paths = (
{
closed = 1;
nodes = (
"83 578 LINE",
"66 482 LINE",
"781 482 LINE",
"798 578 LINE"
);
}
);
width = 760.749;
}
);
leftMetricsKey = "=H-40";
rightMetricsKey = "=H-40";
unicode = 0126;
},
{
glyphname = I;
lastChange = "2014-08-20 09:23:21 +0900";
layers = (
{
anchors = (
{
name = ogonek;
position = "{51, 0}";
},
{
name = top;
position = "{217, 690}";
}
);
layerId = "518735FF-A855-4455-BD68-071AC00DFA4E";
name = "Regular Italic";
paths = (
{
closed = 1;
nodes = (
"174 690 LINE",
"52 0 LINE",
"138 0 LINE",
"260 690 LINE"
);
}
);
width = 263;
},
{
anchors = (
{
name = ogonek;
position = "{39, 0}";
},
{
name = top;
position = "{161, 690}";
}
);
layerId = "4375068D-FDA0-47DA-A897-61BBB4269C7B";
name = "Light Italic";
paths = (
{
closed = 1;
nodes = (
"150 690 LINE",
"28 0 LINE",
"50 0 LINE",
"172 690 LINE"
);
}
);
width = 152;
},
{
anchors = (
{
name = ogonek;
position = "{21, 0}";
},
{
name = top;
position = "{233, 690}";
}
);
layerId = "F37E1481-2EA3-4843-874F-9D06DA6D7C4C";
name = "Bold Italic";
paths = (
{
closed = 1;
nodes = (
"143 690 LINE",
"21 0 LINE",
"201 0 LINE",
"323 690 LINE"
);
}
);
width = 306;
}
);
leftMetricsKey = H;
rightMetricsKey = H;
unicode = 0049;
},
{
glyphname = J;
lastChange = "2014-04-12 01:45:58 +0900";
layers = (
{
anchors = (
{
name = top;
position = "{341, 690}";
}
);
layerId = "518735FF-A855-4455-BD68-071AC00DFA4E";
name = "Regular Italic";
paths = (
{
closed = 1;
nodes = (
"455 690 LINE",
"381 267 LINE SMOOTH",
"374 231 OFFCURVE",
"370 206 OFFCURVE",
"365 186 CURVE SMOOTH",
"343 96 OFFCURVE",
"296 54 OFFCURVE",
"216 54 CURVE SMOOTH",
"134 54 OFFCURVE",
"97 99 OFFCURVE",
"109 194 CURVE SMOOTH",
"114 235 LINE",
"28 235 LINE",
"22 194 LINE SMOOTH",
"2 65 OFFCURVE",
"74 -14 OFFCURVE",
"202 -14 CURVE SMOOTH",
"348 -14 OFFCURVE",
"422 65 OFFCURVE",
"449 181 CURVE SMOOTH",
"457 215 OFFCURVE",
"461 238 OFFCURVE",
"466 264 CURVE SMOOTH",
"541 690 LINE"
);
}
);
width = 527;
},
{
anchors = (
{
name = top;
position = "{315, 690}";
}
);
layerId = "4375068D-FDA0-47DA-A897-61BBB4269C7B";
name = "Light Italic";
paths = (
{
closed = 1;
nodes = (
"460 690 LINE",
"383 252 LINE SMOOTH",
"377 221 OFFCURVE",
"373 194 OFFCURVE",
"367 172 CURVE SMOOTH",
"340 68 OFFCURVE",
"278 7 OFFCURVE",
"184 7 CURVE SMOOTH",
"91 7 OFFCURVE",
"16 56 OFFCURVE",
"36 194 CURVE SMOOTH",
"40 224 LINE",
"18 224 LINE",
"14 194 LINE SMOOTH",
"-6 53 OFFCURVE",
"70 -14 OFFCURVE",
"178 -14 CURVE SMOOTH",
"306 -14 OFFCURVE",
"366 77 OFFCURVE",
"388 169 CURVE SMOOTH",
"396 201 OFFCURVE",
"401 229 OFFCURVE",
"406 260 CURVE SMOOTH",
"482 690 LINE"
);
}
);
width = 460;
},
{
anchors = (
{
name = top;
position = "{408, 690}";
}
);
layerId = "F37E1481-2EA3-4843-874F-9D06DA6D7C4C";
name = "Bold Italic";
paths = (
{
closed = 1;
nodes = (
"456 690 LINE",
"383 271 LINE SMOOTH",
"379 250 OFFCURVE",
"375 228 OFFCURVE",
"369 205 CURVE SMOOTH",
"354 150 OFFCURVE",
"323 118 OFFCURVE",
"273 118 CURVE SMOOTH",
"222 118 OFFCURVE",
"190 144 OFFCURVE",
"200 234 CURVE SMOOTH",
"203 264 LINE",
"23 264 LINE",
"19 234 LINE SMOOTH",
"-2 84 OFFCURVE",
"77 -14 OFFCURVE",
"244 -14 CURVE SMOOTH",
"433 -14 OFFCURVE",
"518 73 OFFCURVE",
"546 194 CURVE SMOOTH",
"558 245 OFFCURVE",
"562 267 OFFCURVE",
"567 299 CURVE SMOOTH",
"636 690 LINE"
);
}
);
width = 635;
}
);
leftKerningGroup = J;
rightKerningGroup = J;
unicode = 004A;
},
{
glyphname = K;
lastChange = "2014-08-20 09:23:21 +0900";
layers = (
{
anchors = (
{
name = bottom;
position = "{286, 0}";
},
{
name = top;
position = "{408, 690}";
}
);
layerId = "518735FF-A855-4455-BD68-071AC00DFA4E";
name = "Regular Italic";
paths = (
{
closed = 1;
nodes = (
"597 690 LINE",
"183 336 LINE",
"168 239 LINE",
"245 307 LINE",
"220 317 LINE",
"461 0 LINE",
"566 0 LINE",
"266 385 LINE",
"250 304 LINE",
"702 690 LINE"
);
},
{
closed = 1;
nodes = (
"174 690 LINE",
"52 0 LINE",
"138 0 LINE",
"260 690 LINE"
);
}
);
width = 629;
},
{
anchors = (
{
name = bottom;
position = "{229, 0}";
},
{
name = top;
position = "{351, 690}";
}
);
layerId = "4375068D-FDA0-47DA-A897-61BBB4269C7B";
name = "Light Italic";
paths = (
{
closed = 1;
nodes = (
"563 690 LINE",
"102 315 LINE",
"97 288 LINE",
"155 334 LINE",
"146 341 LINE",
"436 0 LINE",
"467 0 LINE",
"165 353 LINE",
"163 338 LINE",
"595 690 LINE"
);
},
{
closed = 1;
nodes = (
"150 690 LINE",
"28 0 LINE",
"50 0 LINE",
"172 690 LINE"
);
}
);
width = 532;
},
{
anchors = (
{
name = bottom;
position = "{306, 0}";
},
{
name = top;
position = "{452, 690}";
}
);
layerId = "F37E1481-2EA3-4843-874F-9D06DA6D7C4C";
name = "Bold Italic";
paths = (
{
closed = 1;
nodes = (
"586 690 LINE",
"263 379 LINE",
"232 206 LINE",
"322 290 LINE",
"264 323 LINE",
"447 0 LINE",
"670 0 LINE",
"398 416 LINE",
"398 322 LINE",
"801 690 LINE"
);
},
{
closed = 1;
nodes = (
"143 690 LINE",
"21 0 LINE",
"201 0 LINE",
"323 690 LINE"
);
}
);
width = 715;
}
);
leftMetricsKey = H;
rightKerningGroup = K;
unicode = 004B;
},
{
glyphname = L;
lastChange = "2014-08-20 09:23:21 +0900";
layers = (
{
anchors = (
{
name = bottom;
position = "{282, 0}";
},
{
name = top;
position = "{217, 690}";
}
);
layerId = "518735FF-A855-4455-BD68-071AC00DFA4E";
name = "Regular Italic";
paths = (
{
closed = 1;
nodes = (
"174 690 LINE",
"52 0 LINE",
"138 0 LINE",
"260 690 LINE"
);
},
{
closed = 1;
nodes = (
"126 70 LINE",
"113 0 LINE",
"511 0 LINE",
"524 70 LINE"
);
}
);
width = 578;
},
{
anchors = (
{
name = bottom;
position = "{222, 0}";
},
{
name = top;
position = "{163, 690}";
}
);
layerId = "4375068D-FDA0-47DA-A897-61BBB4269C7B";
name = "Light Italic";
paths = (
{
closed = 1;
nodes = (
"150 690 LINE",
"28 0 LINE",
"50 0 LINE",
"172 690 LINE"
);
},
{
closed = 1;
nodes = (
"43 20 LINE",
"39 0 LINE",
"457 0 LINE SMOOTH",
"461 20 LINE SMOOTH"
);
}
);
width = 518;
},
{
anchors = (
{
name = bottom;
position = "{280, 0}";
},
{
name = top;
position = "{233, 690}";
}
);
layerId = "F37E1481-2EA3-4843-874F-9D06DA6D7C4C";
name = "Bold Italic";
paths = (
{
closed = 1;
nodes = (
"143 690 LINE",
"21 0 LINE",
"201 0 LINE",
"323 690 LINE"
);
},
{
closed = 1;
nodes = (
"169 152 LINE",
"142 0 LINE",
"550 0 LINE",
"577 152 LINE"
);
}
);
width = 616;
}
);
leftKerningGroup = H;
leftMetricsKey = H;
rightKerningGroup = L;
unicode = 004C;
},
{
glyphname = Ldot;
lastChange = "2014-08-20 09:23:21 +0900";
layers = (
{
components = (
{
name = L;
transform = "{1, 0, 0, 1, 0, 0}";
}
);
layerId = "4375068D-FDA0-47DA-A897-61BBB4269C7B";
name = "Light Italic";
paths = (
{
closed = 1;
nodes = (
"297 420 OFFCURVE",
"286 411 OFFCURVE",
"286 397 CURVE SMOOTH",
"286 388 OFFCURVE",
"293 380 OFFCURVE",
"303 380 CURVE SMOOTH",
"315 380 OFFCURVE",
"326 389 OFFCURVE",
"326 403 CURVE SMOOTH",
"326 412 OFFCURVE",
"319 420 OFFCURVE",
"309 420 CURVE SMOOTH"
);
}
);
width = 518;
},
{
components = (
{
name = L;
transform = "{1, 0, 0, 1, 0, 0}";
}
);
layerId = "518735FF-A855-4455-BD68-071AC00DFA4E";
name = "Regular Italic";
paths = (
{
closed = 1;
nodes = (
"369 455 OFFCURVE",
"340 427 OFFCURVE",
"340 391 CURVE SMOOTH",
"340 365 OFFCURVE",
"359 345 OFFCURVE",
"387 345 CURVE SMOOTH",
"423 345 OFFCURVE",
"452 373 OFFCURVE",
"452 409 CURVE SMOOTH",
"452 435 OFFCURVE",
"433 455 OFFCURVE",
"405 455 CURVE SMOOTH"
);
}
);
width = 578;
},
{
components = (
{
name = L;
transform = "{1, 0, 0, 1, 0, 0}";
}
);
layerId = "F37E1481-2EA3-4843-874F-9D06DA6D7C4C";
name = "Bold Italic";
paths = (
{
closed = 1;
nodes = (
"396 488 OFFCURVE",
"351 444 OFFCURVE",
"351 387 CURVE SMOOTH",
"351 340 OFFCURVE",
"382 312 OFFCURVE",
"430 312 CURVE SMOOTH",
"496 312 OFFCURVE",
"541 356 OFFCURVE",
"541 413 CURVE SMOOTH",
"541 460 OFFCURVE",
"510 488 OFFCURVE",
"462 488 CURVE SMOOTH"
);
}
);
width = 616;
}
);
leftKerningGroup = H;
leftMetricsKey = L;
rightKerningGroup = L;
unicode = 013F;
},
{
glyphname = Lslash;
lastChange = "2014-04-12 01:45:58 +0900";
layers = (
{
components = (
{
name = L;
transform = "{1, 0, 0, 1, 37, 0}";
}
);
layerId = "518735FF-A855-4455-BD68-071AC00DFA4E";
name = "Regular Italic";
paths = (
{
closed = 1;
nodes = (
"19 291 LINE",
"8 224 LINE",
"361 414 LINE",
"373 481 LINE"
);
}
);
width = 615;
},
{
components = (
{
name = L;
transform = "{1, 0, 0, 1, 43, 0}";
}
);
layerId = "F37E1481-2EA3-4843-874F-9D06DA6D7C4C";
name = "Bold Italic";
paths = (
{
closed = 1;
nodes = (
"41 348 LINE",
"21 235 LINE",
"414 425 LINE",
"434 538 LINE"
);
}
);
width = 659;
},
{
components = (
{
name = L;
transform = "{1, 0, 0, 1, 79, 0}";
}
);
layerId = "4375068D-FDA0-47DA-A897-61BBB4269C7B";
name = "Light Italic";
paths = (
{
closed = 1;
nodes = (
"15 269 LINE",
"10 245 LINE",
"364 435 LINE",
"368 459 LINE"
);
}
);
width = 597;
}
);
leftKerningGroup = L;
rightKerningGroup = L;
rightMetricsKey = L;
unicode = 0141;
},
{
glyphname = M;
lastChange = "2014-08-20 09:23:21 +0900";
layers = (
{
layerId = "518735FF-A855-4455-BD68-071AC00DFA4E";
name = "Regular Italic";
paths = (
{
closed = 1;
nodes = (
"720 690 LINE",
"384 34 LINE",
"422 34 LINE",
"316 690 LINE",
"174 690 LINE",
"52 0 LINE",
"138 0 LINE",
"251 648 LINE",
"238 648 LINE",
"342 0 LINE",
"450 0 LINE",
"786 646 LINE",
"771 650 LINE",
"654 0 LINE",
"740 0 LINE",
"862 690 LINE"
);
}
);
width = 865;
},
{
layerId = "4375068D-FDA0-47DA-A897-61BBB4269C7B";
name = "Light Italic";
paths = (
{
closed = 1;
nodes = (
"743 690 LINE",
"338 7 LINE",
"350 7 LINE",
"185 690 LINE",
"150 690 LINE",
"28 0 LINE",
"50 0 LINE",
"169 683 LINE",
"165 683 LINE",
"329 0 LINE",
"357 0 LINE",
"761 682 LINE",
"757 683 LINE",
"634 0 LINE",
"656 0 LINE",
"778 690 LINE"
);
}
);
width = 758;
},
{
layerId = "F37E1481-2EA3-4843-874F-9D06DA6D7C4C";
name = "Bold Italic";
paths = (
{
closed = 1;
nodes = (
"632 690 LINE",
"427 126 LINE",
"454 126 LINE",
"436 690 LINE",
"143 690 LINE",
"21 0 LINE",
"201 0 LINE",
"303 589 LINE",
"285 590 LINE",
"311 0 LINE",
"520 0 LINE",
"752 584 LINE",
"736 589 LINE",
"630 0 LINE",
"810 0 LINE",
"932 690 LINE"
);
}
);
width = 915;
}
);
leftMetricsKey = H;
rightMetricsKey = H;
unicode = 004D;
},
{
glyphname = N;
lastChange = "2014-08-20 09:23:21 +0900";
layers = (
{
anchors = (
{
name = bottom;
position = "{322, 0}";
},
{
name = top;
position = "{444, 690}";
}
);
layerId = "518735FF-A855-4455-BD68-071AC00DFA4E";
name = "Regular Italic";
paths = (
{
closed = 1;
nodes = (
"628 690 LINE",
"514 43 LINE",
"534 45 LINE",
"306 690 LINE",
"174 690 LINE",
"52 0 LINE",
"138 0 LINE",
"250 647 LINE",
"230 645 LINE",
"460 0 LINE",
"592 0 LINE",
"714 690 LINE"
);
}
);
width = 717;
},
{
anchors = (
{
name = bottom;
position = "{263, 0}";
},
{
name = top;
position = "{385, 690}";
}
);
layerId = "4375068D-FDA0-47DA-A897-61BBB4269C7B";
name = "Light Italic";
paths = (
{
closed = 1;
nodes = (
"598 690 LINE",
"477 6 LINE",
"485 7 LINE",
"183 690 LINE",
"150 690 LINE",
"28 0 LINE",
"50 0 LINE",
"170 683 LINE",
"163 683 LINE",
"464 0 LINE",
"498 0 LINE",
"620 690 LINE"
);
}
);
width = 600;
},
{
anchors = (
{
name = bottom;
position = "{356, 0}";
},
{
name = top;
position = "{478, 690}";
}
);
layerId = "F37E1481-2EA3-4843-874F-9D06DA6D7C4C";
name = "Bold Italic";
paths = (
{
closed = 1;
nodes = (
"623 690 LINE",
"526 134 LINE",
"567 138 LINE",
"367 690 LINE",
"143 690 LINE",
"21 0 LINE",
"201 0 LINE",
"295 536 LINE",
"254 532 LINE",
"446 0 LINE",
"681 0 LINE",
"803 690 LINE"
);
}
);
width = 786;
}
);
leftMetricsKey = H;
rightMetricsKey = H;
unicode = 004E;
},
{
glyphname = Eng;
lastChange = "2014-08-20 09:23:21 +0900";
layers = (
{
layerId = "4375068D-FDA0-47DA-A897-61BBB4269C7B";
name = "Light Italic";
paths = (
{
closed = 1;
nodes = (
"598 690 LINE",
"480 20 LINE",
"183 690 LINE",
"150 690 LINE",
"29 0 LINE",
"51 0 LINE",
"169 670 LINE",
"473 -19 LINE",
"462 -83 LINE SMOOTH",
"446 -175 OFFCURVE",
"402 -202 OFFCURVE",
"325 -202 CURVE",
"322 -223 LINE",
"441 -219 OFFCURVE",
"468 -172 OFFCURVE",
"487 -67 CURVE SMOOTH",
"620 690 LINE"
);
}
);
width = 600.48;
},
{
layerId = "518735FF-A855-4455-BD68-071AC00DFA4E";
name = "Regular Italic";
paths = (
{
closed = 1;
nodes = (
"628 690 LINE",
"530 124 LINE",
"306 690 LINE",
"174 690 LINE",
"53 0 LINE",
"139 0 LINE",
"243 598 LINE",
"500 -31 LINE",
"491 -83 LINE SMOOTH",
"483 -128 OFFCURVE",
"462 -153 OFFCURVE",
"408 -153 CURVE",
"396 -223 LINE",
"523 -223 OFFCURVE",
"558 -197 OFFCURVE",
"581 -67 CURVE SMOOTH",
"714 690 LINE"
);
}
);
width = 717.48;
},
{
layerId = "F37E1481-2EA3-4843-874F-9D06DA6D7C4C";
name = "Bold Italic";
paths = (
{
closed = 1;
nodes = (
"623 690 LINE",
"551 254 LINE",
"367 690 LINE",
"143 690 LINE",
"22 0 LINE",
"202 0 LINE",
"278 456 LINE",
"498 -20 LINE",
"496 -33 LINE SMOOTH",
"490 -66 OFFCURVE",
"472 -85 OFFCURVE",
"411 -91 CURVE",
"388 -223 LINE",
"610 -223 OFFCURVE",
"650 -183 OFFCURVE",
"672 -57 CURVE SMOOTH",
"803 690 LINE"
);
}
);
width = 786.717;
}
);
leftKerningGroup = H;
leftMetricsKey = N;
rightKerningGroup = H;
rightMetricsKey = N;
unicode = 014A;
},
{
glyphname = O;
lastChange = "2014-04-12 01:45:58 +0900";
layers = (
{
anchors = (
{
name = top;
position = "{447, 690}";
}
);
layerId = "518735FF-A855-4455-BD68-071AC00DFA4E";
name = "Regular Italic";
paths = (
{
closed = 1;
nodes = (
"429 636 LINE",
"555 636 OFFCURVE",
"631 543 OFFCURVE",
"631 405 CURVE SMOOTH",
"631 248 OFFCURVE",
"545 54 OFFCURVE",
"355 54 CURVE",
"337 -14 LINE",
"607 -14 OFFCURVE",
"725 199 OFFCURVE",
"725 405 CURVE SMOOTH",
"725 568 OFFCURVE",
"630 704 OFFCURVE",
"447 704 CURVE"
);
},
{
closed = 1;
nodes = (
"177 704 OFFCURVE",
"59 491 OFFCURVE",
"59 285 CURVE SMOOTH",
"59 122 OFFCURVE",
"154 -14 OFFCURVE",
"337 -14 CURVE",
"355 54 LINE",
"228 54 OFFCURVE",
"153 147 OFFCURVE",
"153 285 CURVE SMOOTH",
"153 442 OFFCURVE",
"239 636 OFFCURVE",
"429 636 CURVE",
"447 704 LINE"
);
}
);
width = 747;
},
{
anchors = (
{
name = top;
position = "{447, 690}";
}
);
layerId = "4375068D-FDA0-47DA-A897-61BBB4269C7B";
name = "Light Italic";
paths = (
{
closed = 1;
nodes = (
"441 683 LINE",
"579 683 OFFCURVE",
"691 579 OFFCURVE",
"691 403 CURVE SMOOTH",
"691 211 OFFCURVE",
"561 7 OFFCURVE",
"341 7 CURVE",
"338 -14 LINE",
"578 -14 OFFCURVE",
"714 206 OFFCURVE",
"714 403 CURVE SMOOTH",
"714 589 OFFCURVE",
"600 704 OFFCURVE",
"444 704 CURVE"
);
},
{
closed = 1;
nodes = (
"204 704 OFFCURVE",
"68 484 OFFCURVE",
"68 287 CURVE SMOOTH",
"68 101 OFFCURVE",
"182 -14 OFFCURVE",
"338 -14 CURVE",
"341 7 LINE",
"203 7 OFFCURVE",
"91 111 OFFCURVE",
"91 287 CURVE SMOOTH",
"91 479 OFFCURVE",
"221 683 OFFCURVE",
"441 683 CURVE",
"444 704 LINE"
);
}
);
width = 743;
},
{
anchors = (
{
name = top;
position = "{497, 690}";
}
);
layerId = "F37E1481-2EA3-4843-874F-9D06DA6D7C4C";
name = "Bold Italic";
paths = (
{
closed = 1;
nodes = (
"461 572 LINE",
"557 572 OFFCURVE",
"607 501 OFFCURVE",
"607 400 CURVE SMOOTH",
"607 271 OFFCURVE",
"540 118 OFFCURVE",
"401 118 CURVE",
"395 -14 LINE",
"619 -14 OFFCURVE",
"797 145 OFFCURVE",
"797 405 CURVE SMOOTH",
"797 576 OFFCURVE",
"678 704 OFFCURVE",
"467 704 CURVE"
);
},
{
closed = 1;
nodes = (
"243 704 OFFCURVE",
"65 545 OFFCURVE",
"65 285 CURVE SMOOTH",
"65 114 OFFCURVE",
"184 -14 OFFCURVE",
"395 -14 CURVE",
"401 118 LINE",
"305 118 OFFCURVE",
"255 189 OFFCURVE",
"255 290 CURVE SMOOTH",
"255 419 OFFCURVE",
"322 572 OFFCURVE",
"461 572 CURVE",
"467 704 LINE"
);
}
);
width = 808;
}
);
leftKerningGroup = O;
rightKerningGroup = O;
unicode = 004F;
},
{
glyphname = Oslash;
lastChange = "2014-08-20 09:23:21 +0900";
layers = (
{
anchors = (
{
name = top;
position = "{397, 690}";
}
);
components = (
{
disableAlignment = 1;
name = O;
transform = "{1, 0, 0, 1, -4, 0}";
}
);
layerId = "4375068D-FDA0-47DA-A897-61BBB4269C7B";
name = "Light Italic";
paths = (
{
closed = 1;
nodes = (
"17 45 LINE",
"31 28 LINE",
"757 645 LINE",
"743 662 LINE"
);
}
);
width = 735;
},
{
anchors = (
{
name = top;
position = "{436, 690}";
}
);
components = (
{
disableAlignment = 1;
name = O;
transform = "{1, 0, 0, 1, 5, 0}";
}
);
layerId = "518735FF-A855-4455-BD68-071AC00DFA4E";
name = "Regular Italic";
paths = (
{
closed = 1;
nodes = (
"6 52 LINE",
"40 11 LINE",
"778 638 LINE",
"744 679 LINE"
);
}
);
width = 748;
},
{
anchors = (
{
name = top;
position = "{441, 690}";
}
);
components = (
{
disableAlignment = 1;
name = O;
transform = "{1, 0, 0, 1, -1, 0}";
}
);
layerId = "F37E1481-2EA3-4843-874F-9D06DA6D7C4C";
name = "Bold Italic";
paths = (
{
closed = 1;
nodes = (
"13 57 LINE",
"71 -13 LINE",
"831 633 LINE",
"773 703 LINE"
);
}
);
width = 803;
}
);
leftKerningGroup = O;
leftMetricsKey = "=O-4";
rightKerningGroup = O;
rightMetricsKey = "=O-4";
unicode = 00D8;
},
{
glyphname = OE;
lastChange = "2014-08-20 09:23:21 +0900";
layers = (
{
anchors = (
{
name = top;
position = "{698, 690}";
}
);
layerId = "4375068D-FDA0-47DA-A897-61BBB4269C7B";
name = "Light Italic";
paths = (
{
closed = 1;
nodes = (
"185 704 OFFCURVE",
"68 468 OFFCURVE",
"68 283 CURVE SMOOTH",
"68 106 OFFCURVE",
"162 -14 OFFCURVE",
"324 -14 CURVE",
"327 7 LINE",
"193 7 OFFCURVE",
"91 105 OFFCURVE",
"91 284 CURVE SMOOTH",
"91 462 OFFCURVE",
"207 683 OFFCURVE",
"447 683 CURVE",
"450 704 LINE"
);
},
{
closed = 1;
nodes = (
"447 683 LINE",
"662 683 OFFCURVE",
"703 509 OFFCURVE",
"675 345 CURVE",
"633 112 OFFCURVE",
"491 7 OFFCURVE",
"327 7 CURVE",
"324 -14 LINE",
"435 -14 OFFCURVE",
"527 22 OFFCURVE",
"605 121 CURVE",
"668 231 LINE",
"706 452 LINE",
"682 566 LINE",
"634 667 OFFCURVE",
"565 704 OFFCURVE",
"450 704 CURVE"
);
},
{
closed = 1;
nodes = (
"736 690 LINE",
"614 0 LINE",
"636 0 LINE",
"758 690 LINE"
);
},
{
closed = 1;
nodes = (
"629 20 LINE",
"625 0 LINE",
"1043 0 LINE",
"1047 20 LINE"
);
},
{
closed = 1;
nodes = (
"688 355 LINE",
"684 335 LINE",
"1072 335 LINE",
"1076 355 LINE"
);
},
{
closed = 1;
nodes = (
"747 690 LINE",
"743 670 LINE",
"1151 670 LINE",
"1155 690 LINE"
);
}
);
width = 1123;
},
{
anchors = (
{
name = top;
position = "{726, 690}";
}
);
layerId = "518735FF-A855-4455-BD68-071AC00DFA4E";
name = "Regular Italic";
paths = (
{
closed = 1;
nodes = (
"172 704 OFFCURVE",
"56 455 OFFCURVE",
"56 274 CURVE SMOOTH",
"56 89 OFFCURVE",
"146 -14 OFFCURVE",
"317 -14 CURVE",
"339 54 LINE",
"217 54 OFFCURVE",
"152 138 OFFCURVE",
"152 276 CURVE SMOOTH",
"152 427 OFFCURVE",
"239 636 OFFCURVE",
"441 636 CURVE",
"443 704 LINE"
);
},
{
closed = 1;
nodes = (
"441 636 LINE",
"615 636 OFFCURVE",
"642 477 OFFCURVE",
"620 345 CURVE",
"589 173 OFFCURVE",
"484 54 OFFCURVE",
"339 54 CURVE",
"317 -14 LINE",
"406 -14 OFFCURVE",
"482 9 OFFCURVE",
"544 68 CURVE",
"616 200 LINE",
"667 489 LINE",
"641 618 LINE",
"599 680 OFFCURVE",
"545 704 OFFCURVE",
"443 704 CURVE"
);
},
{
closed = 1;
nodes = (
"681 690 LINE",
"559 0 LINE",
"645 0 LINE",
"767 690 LINE"
);
},
{
closed = 1;
nodes = (
"633 70 LINE",
"620 0 LINE",
"1018 0 LINE",
"1031 70 LINE"
);
},
{
closed = 1;
nodes = (
"687 380 LINE",
"675 310 LINE",
"1033 310 LINE",
"1045 380 LINE"
);
},
{
closed = 1;
nodes = (
"742 690 LINE",
"729 620 LINE",
"1117 620 LINE",
"1130 690 LINE"
);
}
);
width = 1100;
},
{
anchors = (
{
name = top;
position = "{796, 690}";
}
);
layerId = "F37E1481-2EA3-4843-874F-9D06DA6D7C4C";
name = "Bold Italic";
paths = (
{
closed = 1;
nodes = (
"194 704 OFFCURVE",
"63 485 OFFCURVE",
"63 277 CURVE SMOOTH",
"63 79 OFFCURVE",
"180 -14 OFFCURVE",
"332 -14 CURVE",
"395 118 LINE",
"309 118 OFFCURVE",
"249 163 OFFCURVE",
"249 285 CURVE SMOOTH",
"249 417 OFFCURVE",
"316 572 OFFCURVE",
"475 572 CURVE",
"458 704 LINE"
);
},
{
closed = 1;
nodes = (
"475 572 LINE",
"604 572 OFFCURVE",
"623 462 OFFCURVE",
"604 345 CURVE",
"577 199 OFFCURVE",
"499 118 OFFCURVE",
"395 118 CURVE",
"332 -14 LINE",
"421 -14 OFFCURVE",
"459 -4 OFFCURVE",
"518 36 CURVE",
"627 204 LINE",
"677 486 LINE",
"627 656 LINE",
"584 694 OFFCURVE",
"545 704 OFFCURVE",
"458 704 CURVE"
);
},
{
closed = 1;
nodes = (
"665 690 LINE",
"543 0 LINE",
"723 0 LINE",
"845 690 LINE"
);
},
{
closed = 1;
nodes = (
"689 140 LINE",
"664 0 LINE",
"1072 0 LINE",
"1097 140 LINE"
);
},
{
closed = 1;
nodes = (
"738 416 LINE",
"713 276 LINE",
"1091 276 LINE",
"1116 416 LINE"
);
},
{
closed = 1;
nodes = (
"786 690 LINE",
"761 550 LINE",
"1159 550 LINE",
"1184 690 LINE"
);
}
);
width = 1150;
}
);
leftKerningGroup = O;
leftMetricsKey = O;
rightKerningGroup = E;
rightMetricsKey = E;
unicode = 0152;
},
{
glyphname = P;
lastChange = "2014-08-20 09:23:21 +0900";
layers = (
{
layerId = "518735FF-A855-4455-BD68-071AC00DFA4E";
name = "Regular Italic";
paths = (
{
closed = 1;
nodes = (
"254 690 LINE",
"241 618 LINE",
"383 618 LINE SMOOTH",
"414 618 OFFCURVE",
"441 617 OFFCURVE",
"459 613 CURVE SMOOTH",
"499 604 OFFCURVE",
"532 574 OFFCURVE",
"532 513 CURVE SMOOTH",
"532 417 OFFCURVE",
"474 372 OFFCURVE",
"414 359 CURVE SMOOTH",
"394 355 OFFCURVE",
"367 354 OFFCURVE",
"336 354 CURVE SMOOTH",
"194 354 LINE",
"182 282 LINE",
"316 282 LINE SMOOTH",
"351 282 OFFCURVE",
"374 282 OFFCURVE",
"406 286 CURVE SMOOTH",
"522 301 OFFCURVE",
"625 384 OFFCURVE",
"625 523 CURVE SMOOTH",
"625 617 OFFCURVE",
"570 674 OFFCURVE",
"477 686 CURVE SMOOTH",
"447 690 OFFCURVE",
"423 690 OFFCURVE",
"388 690 CURVE SMOOTH"
);
},
{
closed = 1;
nodes = (
"174 690 LINE",
"52 0 LINE",
"138 0 LINE",
"260 690 LINE"
);
}
);
width = 605;
},
{
layerId = "4375068D-FDA0-47DA-A897-61BBB4269C7B";
name = "Light Italic";
paths = (
{
closed = 1;
nodes = (
"164 690 LINE",
"161 669 LINE",
"300 669 LINE SMOOTH",
"336 669 OFFCURVE",
"363 668 OFFCURVE",
"394 664 CURVE SMOOTH",
"466 655 OFFCURVE",
"516 616 OFFCURVE",
"516 535 CURVE SMOOTH",
"516 409 OFFCURVE",
"436 346 OFFCURVE",
"336 334 CURVE SMOOTH",
"303 330 OFFCURVE",
"276 329 OFFCURVE",
"240 329 CURVE SMOOTH",
"101 329 LINE",
"97 308 LINE",
"236 308 LINE SMOOTH",
"271 308 OFFCURVE",
"303 309 OFFCURVE",
"336 313 CURVE SMOOTH",
"446 327 OFFCURVE",
"540 399 OFFCURVE",
"540 538 CURVE SMOOTH",
"540 630 OFFCURVE",
"480 675 OFFCURVE",
"401 685 CURVE SMOOTH",
"370 689 OFFCURVE",
"338 690 OFFCURVE",
"303 690 CURVE SMOOTH"
);
},
{
closed = 1;
nodes = (
"150 690 LINE",
"29 0 LINE",
"51 0 LINE",
"172 690 LINE"
);
}
);
width = 479.332;
},
{
background = {
paths = (
{
closed = 1;
nodes = (
"303 690 LINE",
"278 550 LINE",
"368 550 LINE SMOOTH",
"387 550 OFFCURVE",
"404 550 OFFCURVE",
"417 549 CURVE SMOOTH",
"455 546 OFFCURVE",
"477 524 OFFCURVE",
"477 484 CURVE SMOOTH",
"477 423 OFFCURVE",
"443 388 OFFCURVE",
"387 383 CURVE SMOOTH",
"373 382 OFFCURVE",
"358 382 OFFCURVE",
"339 382 CURVE SMOOTH",
"249 382 LINE",
"224 242 LINE",
"324 242 LINE SMOOTH",
"367 242 OFFCURVE",
"395 243 OFFCURVE",
"433 247 CURVE SMOOTH",
"549 260 OFFCURVE",
"667 346 OFFCURVE",
"667 505 CURVE SMOOTH",
"667 615 OFFCURVE",
"587 675 OFFCURVE",
"501 685 CURVE SMOOTH",
"464 689 OFFCURVE",
"436 690 OFFCURVE",
"393 690 CURVE SMOOTH"
);
}
);
};
layerId = "F37E1481-2EA3-4843-874F-9D06DA6D7C4C";
leftMetricsKey = H;
name = "Bold Italic";
paths = (
{
closed = 1;
nodes = (
"303 690 LINE",
"278 550 LINE",
"368 550 LINE SMOOTH",
"387 550 OFFCURVE",
"404 550 OFFCURVE",
"417 549 CURVE SMOOTH",
"455 546 OFFCURVE",
"477 524 OFFCURVE",
"477 484 CURVE SMOOTH",
"477 423 OFFCURVE",
"443 388 OFFCURVE",
"387 383 CURVE SMOOTH",
"373 382 OFFCURVE",
"358 382 OFFCURVE",
"339 382 CURVE SMOOTH",
"249 382 LINE",
"224 242 LINE",
"324 242 LINE SMOOTH",
"367 242 OFFCURVE",
"395 243 OFFCURVE",
"433 247 CURVE SMOOTH",
"549 260 OFFCURVE",
"667 346 OFFCURVE",
"667 505 CURVE SMOOTH",
"667 615 OFFCURVE",
"587 675 OFFCURVE",
"501 685 CURVE SMOOTH",
"464 689 OFFCURVE",
"436 690 OFFCURVE",
"393 690 CURVE SMOOTH"
);
},
{
closed = 1;
nodes = (
"143 690 LINE",
"21 0 LINE",
"201 0 LINE",
"323 690 LINE"
);
}
);
width = 648.666;
}
);
leftMetricsKey = H;
unicode = 0050;
},
{
glyphname = Thorn;
lastChange = "2014-08-20 09:23:21 +0900";
layers = (
{
layerId = "518735FF-A855-4455-BD68-071AC00DFA4E";
name = "Regular Italic";
paths = (
{
closed = 1;
nodes = (
"238 602 LINE",
"226 530 LINE",
"365 530 LINE SMOOTH",
"396 530 OFFCURVE",
"422 529 OFFCURVE",
"441 525 CURVE SMOOTH",
"482 515 OFFCURVE",
"517 490 OFFCURVE",
"517 433 CURVE SMOOTH",
"517 425 OFFCURVE",
"517 416 OFFCURVE",
"515 406 CURVE SMOOTH",
"501 330 OFFCURVE",
"450 299 OFFCURVE",
"399 288 CURVE SMOOTH",
"379 284 OFFCURVE",
"352 283 OFFCURVE",
"321 283 CURVE SMOOTH",
"182 283 LINE",
"169 211 LINE",
"308 211 LINE SMOOTH",
"343 211 OFFCURVE",
"367 211 OFFCURVE",
"399 215 CURVE SMOOTH",
"501 228 OFFCURVE",
"587 295 OFFCURVE",
"607 408 CURVE SMOOTH",
"610 422 OFFCURVE",
"611 436 OFFCURVE",
"611 448 CURVE SMOOTH",
"611 536 OFFCURVE",
"552 587 OFFCURVE",
"467 598 CURVE SMOOTH",
"436 602 OFFCURVE",
"412 602 OFFCURVE",
"377 602 CURVE SMOOTH"
);
},
{
closed = 1;
nodes = (
"174 690 LINE",
"52 0 LINE",
"138 0 LINE",
"260 690 LINE"
);
}
);
width = 609;
},
{
layerId = "4375068D-FDA0-47DA-A897-61BBB4269C7B";
name = "Light Italic";
paths = (
{
closed = 1;
nodes = (
"143 572 LINE",
"139 551 LINE",
"278 551 LINE SMOOTH",
"314 551 OFFCURVE",
"341 550 OFFCURVE",
"372 546 CURVE SMOOTH",
"445 537 OFFCURVE",
"496 504 OFFCURVE",
"496 430 CURVE SMOOTH",
"496 419 OFFCURVE",
"495 408 OFFCURVE",
"493 396 CURVE SMOOTH",
"475 292 OFFCURVE",
"404 246 OFFCURVE",
"318 236 CURVE SMOOTH",
"285 232 OFFCURVE",
"258 231 OFFCURVE",
"222 231 CURVE SMOOTH",
"83 231 LINE",
"79 210 LINE",
"218 210 LINE SMOOTH",
"253 210 OFFCURVE",
"285 211 OFFCURVE",
"318 215 CURVE SMOOTH",
"413 227 OFFCURVE",
"497 281 OFFCURVE",
"517 396 CURVE SMOOTH",
"519 410 OFFCURVE",
"521 422 OFFCURVE",
"521 434 CURVE SMOOTH",
"521 519 OFFCURVE",
"460 556 OFFCURVE",
"380 567 CURVE SMOOTH",
"349 571 OFFCURVE",
"317 572 OFFCURVE",
"282 572 CURVE SMOOTH"
);
},
{
closed = 1;
nodes = (
"150 690 LINE",
"28 0 LINE",
"50 0 LINE",
"172 690 LINE"
);
}
);
width = 537;
},
{
layerId = "F37E1481-2EA3-4843-874F-9D06DA6D7C4C";
name = "Bold Italic";
paths = (
{
closed = 1;
nodes = (
"287 602 LINE",
"263 462 LINE",
"353 462 LINE SMOOTH",
"372 462 OFFCURVE",
"388 462 OFFCURVE",
"400 461 CURVE SMOOTH",
"440 458 OFFCURVE",
"463 440 OFFCURVE",
"463 405 CURVE SMOOTH",
"463 400 OFFCURVE",
"462 394 OFFCURVE",
"461 388 CURVE SMOOTH",
"452 341 OFFCURVE",
"421 319 OFFCURVE",
"375 315 CURVE SMOOTH",
"362 314 OFFCURVE",
"346 314 OFFCURVE",
"327 314 CURVE SMOOTH",
"237 314 LINE",
"212 174 LINE",
"321 174 LINE SMOOTH",
"364 174 OFFCURVE",
"392 175 OFFCURVE",
"430 179 CURVE SMOOTH",
"532 191 OFFCURVE",
"625 255 OFFCURVE",
"649 388 CURVE SMOOTH",
"652 405 OFFCURVE",
"653 421 OFFCURVE",
"653 436 CURVE SMOOTH",
"653 537 OFFCURVE",
"588 587 OFFCURVE",
"503 597 CURVE SMOOTH",
"467 601 OFFCURVE",
"439 602 OFFCURVE",
"396 602 CURVE SMOOTH"
);
},
{
closed = 1;
nodes = (
"143 690 LINE",
"21 0 LINE",
"201 0 LINE",
"323 690 LINE"
);
}
);
width = 648;
}
);
leftMetricsKey = H;
unicode = 00DE;
},
{
glyphname = Q;
lastChange = "2014-08-20 09:23:21 +0900";
layers = (
{
layerId = "518735FF-A855-4455-BD68-071AC00DFA4E";
name = "Regular Italic";
paths = (
{
closed = 1;
nodes = (
"428 636 LINE",
"554 636 OFFCURVE",
"630 543 OFFCURVE",
"630 405 CURVE SMOOTH",
"630 248 OFFCURVE",
"544 54 OFFCURVE",
"354 54 CURVE",
"346 -14 LINE",
"510 32 LINE",
"656 102 OFFCURVE",
"724 256 OFFCURVE",
"724 405 CURVE SMOOTH",
"724 568 OFFCURVE",
"639 704 OFFCURVE",
"436 704 CURVE"
);
},
{
closed = 1;
nodes = (
"346 -14 LINE",
"366 -14 OFFCURVE",
"389 -12 OFFCURVE",
"412 -6 CURVE SMOOTH",
"441 1 OFFCURVE",
"464 4 OFFCURVE",
"487 4 CURVE SMOOTH",
"525 4 OFFCURVE",
"548 -6 OFFCURVE",
"618 -52 CURVE",
"677 7 LINE",
"627 57 OFFCURVE",
"575 82 OFFCURVE",
"500 73 CURVE"
);
},
{
closed = 1;
nodes = (
"176 704 OFFCURVE",
"58 481 OFFCURVE",
"58 285 CURVE SMOOTH",
"58 122 OFFCURVE",
"143 -14 OFFCURVE",
"346 -14 CURVE",
"354 54 LINE",
"227 54 OFFCURVE",
"152 147 OFFCURVE",
"152 285 CURVE SMOOTH",
"152 442 OFFCURVE",
"238 636 OFFCURVE",
"428 636 CURVE",
"436 704 LINE"
);
}
);
width = 755.93;
},
{
layerId = "4375068D-FDA0-47DA-A897-61BBB4269C7B";
name = "Light Italic";
paths = (
{
closed = 1;
nodes = (
"435 683 LINE",
"573 683 OFFCURVE",
"680 579 OFFCURVE",
"680 413 CURVE SMOOTH",
"680 221 OFFCURVE",
"555 7 OFFCURVE",
"335 7 CURVE",
"332 -14 LINE",
"449 6 LINE",
"614 66 OFFCURVE",
"703 251 OFFCURVE",
"703 413 CURVE SMOOTH",
"703 589 OFFCURVE",
"594 704 OFFCURVE",
"438 704 CURVE"
);
},
{
closed = 1;
nodes = (
"332 -14 LINE",
"358 -14 OFFCURVE",
"377 -12 OFFCURVE",
"402 -7 CURVE SMOOTH",
"431 -1 OFFCURVE",
"453 3 OFFCURVE",
"473 3 CURVE SMOOTH",
"526 3 OFFCURVE",
"562 -9 OFFCURVE",
"604 -52 CURVE",
"619 -35 LINE",
"579 5 OFFCURVE",
"543 22 OFFCURVE",
"474 22 CURVE"
);
},
{
closed = 1;
nodes = (
"198 704 OFFCURVE",
"67 474 OFFCURVE",
"67 277 CURVE SMOOTH",
"67 101 OFFCURVE",
"176 -14 OFFCURVE",
"332 -14 CURVE",
"335 7 LINE",
"197 7 OFFCURVE",
"90 111 OFFCURVE",
"90 277 CURVE SMOOTH",
"90 469 OFFCURVE",
"215 683 OFFCURVE",
"435 683 CURVE",
"438 704 LINE"
);
}
);
width = 723.136;
},
{
layerId = "F37E1481-2EA3-4843-874F-9D06DA6D7C4C";
name = "Bold Italic";
paths = (
{
closed = 1;
nodes = (
"465 572 LINE",
"551 572 OFFCURVE",
"596 511 OFFCURVE",
"596 410 CURVE SMOOTH",
"596 281 OFFCURVE",
"534 118 OFFCURVE",
"385 118 CURVE",
"379 -14 LINE",
"591 95 LINE",
"703 115 OFFCURVE",
"786 248 OFFCURVE",
"786 415 CURVE SMOOTH",
"786 586 OFFCURVE",
"672 704 OFFCURVE",
"471 704 CURVE"
);
},
{
closed = 1;
nodes = (
"379 -14 LINE",
"405 -14 OFFCURVE",
"428 -11 OFFCURVE",
"450 -5 CURVE SMOOTH",
"478 3 OFFCURVE",
"495 6 OFFCURVE",
"523 6 CURVE SMOOTH",
"566 6 OFFCURVE",
"601 -9 OFFCURVE",
"665 -48 CURVE",
"751 66 LINE",
"680 125 OFFCURVE",
"627 140 OFFCURVE",
"528 140 CURVE"
);
},
{
closed = 1;
nodes = (
"237 704 OFFCURVE",
"64 545 OFFCURVE",
"64 275 CURVE SMOOTH",
"64 104 OFFCURVE",
"178 -14 OFFCURVE",
"379 -14 CURVE",
"385 118 LINE",
"299 118 OFFCURVE",
"254 179 OFFCURVE",
"254 280 CURVE SMOOTH",
"254 409 OFFCURVE",
"316 572 OFFCURVE",
"465 572 CURVE",
"471 704 LINE"
);
}
);
width = 798.026;
}
);
leftKerningGroup = O;
leftMetricsKey = O;
unicode = 0051;
},
{
glyphname = R;
lastChange = "2014-08-20 09:23:21 +0900";
layers = (
{
anchors = (
{
name = bottom;
position = "{262, 0}";
},
{
name = top;
position = "{392, 690}";
}
);
layerId = "518735FF-A855-4455-BD68-071AC00DFA4E";
leftMetricsKey = H;
name = "Regular Italic";
paths = (
{
closed = 1;
nodes = (
"254 690 LINE",
"242 620 LINE",
"388 620 LINE SMOOTH",
"419 620 OFFCURVE",
"437 619 OFFCURVE",
"456 616 CURVE SMOOTH",
"508 608 OFFCURVE",
"539 579 OFFCURVE",
"539 521 CURVE SMOOTH",
"539 427 OFFCURVE",
"478 376 OFFCURVE",
"403 369 CURVE SMOOTH",
"383 367 OFFCURVE",
"366 367 OFFCURVE",
"335 367 CURVE SMOOTH",
"197 367 LINE",
"185 297 LINE",
"321 297 LINE SMOOTH",
"337 297 OFFCURVE",
"354 297 OFFCURVE",
"370 296 CURVE SMOOTH",
"430 292 OFFCURVE",
"447 250 OFFCURVE",
"448 189 CURVE SMOOTH",
"450 62 OFFCURVE",
"453 27 OFFCURVE",
"459 0 CURVE",
"552 0 LINE",
"539 23 OFFCURVE",
"534 63 OFFCURVE",
"534 111 CURVE SMOOTH",
"534 323 OFFCURVE",
"507 335 OFFCURVE",
"418 335 CURVE",
"414 330 LINE",
"506 330 OFFCURVE",
"633 391 OFFCURVE",
"633 536 CURVE SMOOTH",
"633 628 OFFCURVE",
"575 675 OFFCURVE",
"490 686 CURVE SMOOTH",
"459 690 OFFCURVE",
"435 690 OFFCURVE",
"400 690 CURVE SMOOTH"
);
},
{
closed = 1;
nodes = (
"174 690 LINE",
"52 0 LINE",
"138 0 LINE",
"260 690 LINE"
);
}
);
width = 617.667;
},
{
anchors = (
{
name = bottom;
position = "{200, 0}";
},
{
name = top;
position = "{332, 690}";
}
);
layerId = "4375068D-FDA0-47DA-A897-61BBB4269C7B";
leftMetricsKey = H;
name = "Light Italic";
paths = (
{
closed = 1;
nodes = (
"164 690 LINE",
"160 669 LINE",
"313 669 LINE SMOOTH",
"349 669 OFFCURVE",
"376 668 OFFCURVE",
"408 664 CURVE SMOOTH",
"487 654 OFFCURVE",
"531 613 OFFCURVE",
"531 542 CURVE SMOOTH",
"531 443 OFFCURVE",
"458 369 OFFCURVE",
"350 361 CURVE SMOOTH",
"317 359 OFFCURVE",
"301 359 OFFCURVE",
"275 359 CURVE SMOOTH",
"106 359 LINE",
"102 338 LINE",
"271 338 LINE SMOOTH",
"287 338 OFFCURVE",
"312 338 OFFCURVE",
"334 337 CURVE SMOOTH",
"410 333 OFFCURVE",
"430 270 OFFCURVE",
"432 199 CURVE SMOOTH",
"435 70 OFFCURVE",
"441 34 OFFCURVE",
"447 0 CURVE",
"471 0 LINE",
"463 32 OFFCURVE",
"456 72 OFFCURVE",
"454 196 CURVE SMOOTH",
"452 294 OFFCURVE",
"423 353 OFFCURVE",
"338 353 CURVE",
"337 344 LINE",
"467 344 OFFCURVE",
"556 430 OFFCURVE",
"556 546 CURVE SMOOTH",
"556 623 OFFCURVE",
"507 674 OFFCURVE",
"416 685 CURVE SMOOTH",
"384 689 OFFCURVE",
"352 690 OFFCURVE",
"317 690 CURVE SMOOTH"
);
},
{
closed = 1;
nodes = (
"150 690 LINE",
"28 0 LINE",
"50 0 LINE",
"172 690 LINE"
);
}
);
width = 550.667;
},
{
anchors = (
{
name = bottom;
position = "{271, 0}";
},
{
name = top;
position = "{393, 690}";
}
);
layerId = "F37E1481-2EA3-4843-874F-9D06DA6D7C4C";
leftMetricsKey = H;
name = "Bold Italic";
paths = (
{
closed = 1;
nodes = (
"303 690 LINE",
"278 550 LINE",
"368 550 LINE SMOOTH",
"387 550 OFFCURVE",
"403 550 OFFCURVE",
"416 549 CURVE SMOOTH",
"456 546 OFFCURVE",
"487 532 OFFCURVE",
"487 487 CURVE SMOOTH",
"487 417 OFFCURVE",
"437 397 OFFCURVE",
"384 393 CURVE SMOOTH",
"371 392 OFFCURVE",
"355 392 OFFCURVE",
"336 392 CURVE SMOOTH",
"251 392 LINE",
"228 262 LINE",
"288 262 LINE SMOOTH",
"308 262 OFFCURVE",
"324 262 OFFCURVE",
"344 261 CURVE SMOOTH",
"386 258 OFFCURVE",
"408 219 OFFCURVE",
"408 153 CURVE SMOOTH",
"408 74 OFFCURVE",
"410 37 OFFCURVE",
"415 0 CURVE",
"611 0 LINE",
"596 33 OFFCURVE",
"588 76 OFFCURVE",
"588 133 CURVE SMOOTH",
"588 296 OFFCURVE",
"543 347 OFFCURVE",
"379 347 CURVE",
"372 311 LINE",
"576 316 OFFCURVE",
"683 394 OFFCURVE",
"683 534 CURVE SMOOTH",
"683 632 OFFCURVE",
"611 675 OFFCURVE",
"524 685 CURVE SMOOTH",
"488 689 OFFCURVE",
"460 690 OFFCURVE",
"417 690 CURVE SMOOTH"
);
},
{
closed = 1;
nodes = (
"143 690 LINE",
"21 0 LINE",
"201 0 LINE",
"323 690 LINE"
);
}
);
width = 666.997;
}
);
leftMetricsKey = H;
rightKerningGroup = R;
unicode = 0052;
},
{
glyphname = S;
lastChange = "2014-04-12 01:45:58 +0900";
layers = (
{
anchors = (
{
name = bottom;
position = "{258, 0}";
},
{
name = top;
position = "{355, 690}";
}
);
layerId = "518735FF-A855-4455-BD68-071AC00DFA4E";
name = "Regular Italic";
paths = (
{
closed = 1;
nodes = (
"219 704 OFFCURVE",
"101 621 OFFCURVE",
"101 482 CURVE SMOOTH",
"101 389 OFFCURVE",
"174 345 OFFCURVE",
"278 319 CURVE SMOOTH",
"379 294 OFFCURVE",
"423 260 OFFCURVE",
"423 194 CURVE SMOOTH",
"423 104 OFFCURVE",
"350 54 OFFCURVE",
"257 54 CURVE SMOOTH",
"167 54 OFFCURVE",
"113 105 OFFCURVE",
"109 196 CURVE",
"17 196 LINE",
"9 63 OFFCURVE",
"101 -14 OFFCURVE",
"243 -14 CURVE SMOOTH",
"401 -14 OFFCURVE",
"519 73 OFFCURVE",
"519 209 CURVE SMOOTH",
"519 313 OFFCURVE",
"453 368 OFFCURVE",
"325 399 CURVE SMOOTH",
"237 420 OFFCURVE",
"197 449 OFFCURVE",
"197 508 CURVE SMOOTH",
"197 589 OFFCURVE",
"259 636 OFFCURVE",
"341 636 CURVE SMOOTH",
"428 636 OFFCURVE",
"479 586 OFFCURVE",
"472 499 CURVE",
"564 499 LINE",
"571 617 OFFCURVE",
"503 704 OFFCURVE",
"360 704 CURVE SMOOTH"
);
}
);
width = 565;
},
{
anchors = (
{
name = bottom;
position = "{242, 0}";
},
{
name = top;
position = "{342, 690}";
}
);
layerId = "4375068D-FDA0-47DA-A897-61BBB4269C7B";
name = "Light Italic";
paths = (
{
closed = 1;
nodes = (
"205 704 OFFCURVE",
"108 622 OFFCURVE",
"108 501 CURVE SMOOTH",
"108 417 OFFCURVE",
"168 378 OFFCURVE",
"291 341 CURVE SMOOTH",
"408 306 OFFCURVE",
"462 264 OFFCURVE",
"462 176 CURVE SMOOTH",
"462 75 OFFCURVE",
"366 7 OFFCURVE",
"242 7 CURVE SMOOTH",
"117 7 OFFCURVE",
"33 67 OFFCURVE",
"40 180 CURVE",
"18 180 LINE",
"8 47 OFFCURVE",
"114 -14 OFFCURVE",
"235 -14 CURVE SMOOTH",
"384 -14 OFFCURVE",
"487 66 OFFCURVE",
"487 179 CURVE SMOOTH",
"487 276 OFFCURVE",
"425 326 OFFCURVE",
"305 362 CURVE SMOOTH",
"190 397 OFFCURVE",
"133 428 OFFCURVE",
"133 506 CURVE SMOOTH",
"133 627 OFFCURVE",
"240 683 OFFCURVE",
"341 683 CURVE SMOOTH",
"438 683 OFFCURVE",
"511 620 OFFCURVE",
"511 514 CURVE",
"533 514 LINE",
"538 617 OFFCURVE",
"475 704 OFFCURVE",
"346 704 CURVE SMOOTH"
);
}
);
width = 544;
},
{
anchors = (
{
name = bottom;
position = "{265, 0}";
},
{
name = top;
position = "{375, 690}";
}
);
layerId = "F37E1481-2EA3-4843-874F-9D06DA6D7C4C";
name = "Bold Italic";
paths = (
{
closed = 1;
nodes = (
"229 704 OFFCURVE",
"88 617 OFFCURVE",
"88 460 CURVE SMOOTH",
"88 356 OFFCURVE",
"165 307 OFFCURVE",
"298 273 CURVE SMOOTH",
"370 254 OFFCURVE",
"398 223 OFFCURVE",
"398 192 CURVE SMOOTH",
"398 148 OFFCURVE",
"353 118 OFFCURVE",
"298 118 CURVE SMOOTH",
"244 118 OFFCURVE",
"195 146 OFFCURVE",
"195 211 CURVE",
"15 211 LINE",
"-1 56 OFFCURVE",
"112 -14 OFFCURVE",
"279 -14 CURVE SMOOTH",
"440 -14 OFFCURVE",
"591 67 OFFCURVE",
"591 228 CURVE SMOOTH",
"591 315 OFFCURVE",
"537 381 OFFCURVE",
"411 412 CURVE SMOOTH",
"313 436 OFFCURVE",
"281 462 OFFCURVE",
"281 499 CURVE SMOOTH",
"281 547 OFFCURVE",
"316 572 OFFCURVE",
"363 572 CURVE SMOOTH",
"422 572 OFFCURVE",
"445 534 OFFCURVE",
"443 477 CURVE",
"623 477 LINE",
"630 605 OFFCURVE",
"562 704 OFFCURVE",
"380 704 CURVE SMOOTH"
);
}
);
width = 627;
}
);
leftKerningGroup = S;
rightKerningGroup = S;
unicode = 0053;
},
{
glyphname = T;
lastChange = "2014-04-12 01:45:58 +0900";
layers = (
{
anchors = (
{
name = bottom;
position = "{277, 0}";
},
{
name = center;
position = "{338, 345}";
},
{
name = top;
position = "{399, 690}";
}
);
layerId = "518735FF-A855-4455-BD68-071AC00DFA4E";
name = "Regular Italic";
paths = (
{
closed = 1;
nodes = (
"356 690 LINE",
"234 0 LINE",
"320 0 LINE",
"442 690 LINE"
);
},
{
closed = 1;
nodes = (
"110 690 LINE",
"97 620 LINE",
"675 620 LINE",
"688 690 LINE"
);
}
);
width = 613;
},
{
anchors = (
{
name = bottom;
position = "{255, 0}";
},
{
name = center;
position = "{321, 345}";
},
{
name = top;
position = "{382, 690}";
}
);
layerId = "4375068D-FDA0-47DA-A897-61BBB4269C7B";
name = "Light Italic";
paths = (
{
closed = 1;
nodes = (
"371 690 LINE",
"249 0 LINE",
"271 0 LINE",
"393 690 LINE"
);
},
{
closed = 1;
nodes = (
"107 690 LINE",
"103 670 LINE",
"653 670 LINE",
"657 690 LINE"
);
}
);
width = 580;
},
{
anchors = (
{
name = bottom;
position = "{281, 0}";
},
{
name = center;
position = "{342, 345}";
},
{
name = top;
position = "{403, 690}";
}
);
layerId = "F37E1481-2EA3-4843-874F-9D06DA6D7C4C";
name = "Bold Italic";
paths = (
{
closed = 1;
nodes = (
"313 690 LINE",
"191 0 LINE",
"371 0 LINE",
"493 690 LINE"
);
},
{
closed = 1;
nodes = (
"89 690 LINE",
"63 550 LINE",
"691 550 LINE",
"717 690 LINE"
);
}
);
width = 632;
}
);
leftKerningGroup = T;
rightKerningGroup = T;
unicode = 0054;
},
{
glyphname = Tbar;
lastChange = "2014-04-12 01:45:58 +0900";
layers = (
{
components = (
{
disableAlignment = 1;
name = T;
transform = "{1, 0, 0, 1, 0, 0}";
}
);
layerId = "4375068D-FDA0-47DA-A897-61BBB4269C7B";
name = "Light Italic";
paths = (
{
closed = 1;
nodes = (
"178 344 LINE",
"174 323 LINE",
"484 323 LINE",
"488 344 LINE"
);
}
);
width = 580;
},
{
components = (
{
disableAlignment = 1;
name = T;
transform = "{1, 0, 0, 1, 0, 0}";
}
);
layerId = "518735FF-A855-4455-BD68-071AC00DFA4E";
name = "Regular Italic";
paths = (
{
closed = 1;
nodes = (
"189 361 LINE",
"179 305 LINE",
"489 305 LINE",
"499 361 LINE"
);
}
);
width = 634;
},
{
components = (
{
disableAlignment = 1;
name = T;
transform = "{1, 0, 0, 1, 0, 0}";
}
);
layerId = "F37E1481-2EA3-4843-874F-9D06DA6D7C4C";
name = "Bold Italic";
paths = (
{
closed = 1;
nodes = (
"175 389 LINE",
"158 293 LINE",
"518 293 LINE",
"535 389 LINE"
);
}
);
width = 662;
}
);
unicode = 0166;
},
{
glyphname = U;
lastChange = "2014-04-12 01:45:58 +0900";
layers = (
{
anchors = (
{
name = ogonek;
position = "{347, 0}";
},
{
name = top;
position = "{429, 690}";
}
);
layerId = "518735FF-A855-4455-BD68-071AC00DFA4E";
name = "Regular Italic";
paths = (
{
closed = 1;
nodes = (
"602 690 LINE",
"527 263 LINE SMOOTH",
"523 241 OFFCURVE",
"519 220 OFFCURVE",
"514 202 CURVE SMOOTH",
"485 97 OFFCURVE",
"423 54 OFFCURVE",
"317 54 CURVE SMOOTH",
"218 54 OFFCURVE",
"172 104 OFFCURVE",
"172 182 CURVE SMOOTH",
"172 208 OFFCURVE",
"174 224 OFFCURVE",
"182 270 CURVE SMOOTH",
"256 690 LINE",
"170 690 LINE",
"94 262 LINE SMOOTH",
"89 235 OFFCURVE",
"86 209 OFFCURVE",
"86 179 CURVE SMOOTH",
"86 55 OFFCURVE",
"159 -14 OFFCURVE",
"305 -14 CURVE SMOOTH",
"474 -14 OFFCURVE",
"566 61 OFFCURVE",
"598 193 CURVE SMOOTH",
"603 213 OFFCURVE",
"607 233 OFFCURVE",
"611 255 CURVE SMOOTH",
"688 690 LINE"
);
}
);
width = 683;
},
{
anchors = (
{
name = ogonek;
position = "{348, 0}";
},
{
name = top;
position = "{387, 690}";
}
);
layerId = "4375068D-FDA0-47DA-A897-61BBB4269C7B";
name = "Light Italic";
paths = (
{
closed = 1;
nodes = (
"587 690 LINE",
"508 240 LINE SMOOTH",
"503 213 OFFCURVE",
"500 198 OFFCURVE",
"495 178 CURVE SMOOTH",
"471 82 OFFCURVE",
"404 7 OFFCURVE",
"271 7 CURVE SMOOTH",
"149 7 OFFCURVE",
"98 72 OFFCURVE",
"98 148 CURVE SMOOTH",
"98 177 OFFCURVE",
"102 206 OFFCURVE",
"107 235 CURVE SMOOTH",
"187 690 LINE",
"165 690 LINE",
"85 239 LINE SMOOTH",
"79 204 OFFCURVE",
"76 178 OFFCURVE",
"76 147 CURVE SMOOTH",
"76 54 OFFCURVE",
"143 -14 OFFCURVE",
"267 -14 CURVE SMOOTH",
"414 -14 OFFCURVE",
"489 66 OFFCURVE",
"515 172 CURVE SMOOTH",
"520 193 OFFCURVE",
"525 217 OFFCURVE",
"529 239 CURVE SMOOTH",
"609 690 LINE"
);
}
);
width = 600;
},
{
anchors = (
{
name = ogonek;
position = "{326, 0}";
},
{
name = top;
position = "{449, 690}";
}
);
layerId = "F37E1481-2EA3-4843-874F-9D06DA6D7C4C";
name = "Bold Italic";
paths = (
{
closed = 1;
nodes = (
"575 690 LINE",
"501 270 LINE SMOOTH",
"498 251 OFFCURVE",
"496 241 OFFCURVE",
"493 229 CURVE SMOOTH",
"472 144 OFFCURVE",
"427 118 OFFCURVE",
"356 118 CURVE SMOOTH",
"294 118 OFFCURVE",
"243 150 OFFCURVE",
"243 212 CURVE SMOOTH",
"243 231 OFFCURVE",
"245 248 OFFCURVE",
"249 270 CURVE SMOOTH",
"323 690 LINE",
"143 690 LINE",
"80 333 LINE SMOOTH",
"67 257 OFFCURVE",
"63 225 OFFCURVE",
"63 188 CURVE SMOOTH",
"63 74 OFFCURVE",
"152 -14 OFFCURVE",
"343 -14 CURVE SMOOTH",
"554 -14 OFFCURVE",
"636 81 OFFCURVE",
"669 216 CURVE SMOOTH",
"679 257 OFFCURVE",
"683 278 OFFCURVE",
"691 323 CURVE SMOOTH",
"755 690 LINE"
);
}
);
width = 719;
}
);
leftKerningGroup = U;
rightKerningGroup = U;
unicode = 0055;
},
{
glyphname = V;
lastChange = "2014-04-12 01:45:58 +0900";
layers = (
{
layerId = "518735FF-A855-4455-BD68-071AC00DFA4E";
name = "Regular Italic";
paths = (
{
closed = 1;
nodes = (
"617 690 LINE",
"295 65 LINE",
"200 690 LINE",
"107 690 LINE",
"223 0 LINE",
"345 0 LINE",
"715 690 LINE"
);
}
);
width = 652;
},
{
layerId = "4375068D-FDA0-47DA-A897-61BBB4269C7B";
name = "Light Italic";
paths = (
{
closed = 1;
nodes = (
"641 690 LINE",
"264 19 LINE",
"124 690 LINE",
"101 690 LINE",
"246 0 LINE",
"278 0 LINE",
"667 690 LINE"
);
}
);
width = 585;
},
{
layerId = "F37E1481-2EA3-4843-874F-9D06DA6D7C4C";
name = "Bold Italic";
paths = (
{
closed = 1;
nodes = (
"634 690 LINE",
"371 139 LINE",
"303 690 LINE",
"107 690 LINE",
"228 0 LINE",
"461 0 LINE",
"825 690 LINE"
);
}
);
width = 742;
}
);
unicode = 0056;
},
{
glyphname = W;
lastChange = "2014-04-12 01:45:58 +0900";
layers = (
{
anchors = (
{
name = top;
position = "{564, 690}";
}
);
layerId = "518735FF-A855-4455-BD68-071AC00DFA4E";
name = "Regular Italic";
paths = (
{
closed = 1;
nodes = (
"925 690 LINE",
"643 31 LINE",
"672 31 LINE",
"618 680 LINE",
"496 680 LINE",
"210 32 LINE",
"239 31 LINE",
"196 690 LINE",
"101 690 LINE",
"161 0 LINE",
"275 0 LINE",
"562 638 LINE",
"539 639 LINE",
"593 0 LINE",
"706 0 LINE",
"1020 690 LINE"
);
}
);
width = 953;
},
{
anchors = (
{
name = top;
position = "{503, 690}";
}
);
layerId = "4375068D-FDA0-47DA-A897-61BBB4269C7B";
name = "Light Italic";
paths = (
{
closed = 1;
nodes = (
"878 690 LINE",
"575 10 LINE",
"586 10 LINE",
"515 680 LINE",
"482 680 LINE",
"162 10 LINE",
"172 10 LINE",
"123 690 LINE",
"101 690 LINE",
"153 0 LINE",
"180 0 LINE",
"503 672 LINE",
"495 672 LINE",
"566 0 LINE",
"592 0 LINE",
"901 690 LINE"
);
}
);
width = 823;
},
{
anchors = (
{
name = top;
position = "{603, 690}";
}
);
layerId = "F37E1481-2EA3-4843-874F-9D06DA6D7C4C";
name = "Bold Italic";
paths = (
{
closed = 1;
nodes = (
"905 690 LINE",
"679 40 LINE",
"713 40 LINE",
"731 680 LINE",
"472 680 LINE",
"258 31 LINE",
"302 30 LINE",
"286 690 LINE",
"101 690 LINE",
"152 0 LINE",
"393 0 LINE",
"613 631 LINE",
"569 632 LINE",
"569 0 LINE",
"809 0 LINE",
"1104 690 LINE"
);
}
);
width = 1016;
}
);
leftKerningGroup = W;
rightKerningGroup = W;
unicode = 0057;
},
{
glyphname = X;
lastChange = "2014-05-06 11:20:22 +0900";
layers = (
{
layerId = "518735FF-A855-4455-BD68-071AC00DFA4E";
name = "Regular Italic";
paths = (
{
closed = 1;
nodes = (
"586 690 LINE",
"317 376 LINE",
"372 368 LINE",
"214 690 LINE",
"117 690 LINE",
"286 353 LINE",
"-22 0 LINE",
"79 0 LINE",
"356 327 LINE",
"304 334 LINE",
"474 0 LINE",
"578 0 LINE",
"388 351 LINE",
"688 690 LINE"
);
}
);
width = 627;
},
{
layerId = "4375068D-FDA0-47DA-A897-61BBB4269C7B";
name = "Light Italic";
paths = (
{
closed = 1;
nodes = (
"598 690 LINE",
"301 359 LINE",
"310 359 LINE",
"144 690 LINE",
"120 690 LINE",
"290 349 LINE",
"-19 0 LINE",
"8 0 LINE",
"307 338 LINE",
"298 338 LINE",
"478 0 LINE",
"506 0 LINE",
"317 347 LINE",
"625 689 LINE"
);
}
);
width = 563;
},
{
layerId = "F37E1481-2EA3-4843-874F-9D06DA6D7C4C";
name = "Bold Italic";
paths = (
{
closed = 1;
nodes = (
"555 690 LINE",
"308 377 LINE",
"414 376 LINE",
"272 690 LINE",
"69 690 LINE",
"247 352 LINE",
"-70 0 LINE",
"147 0 LINE",
"390 318 LINE",
"278 317 LINE",
"447 0 LINE",
"652 0 LINE",
"453 343 LINE",
"762 690 LINE"
);
}
);
width = 704;
}
);
unicode = 0058;
},
{
glyphname = Y;
lastChange = "2014-04-12 01:45:58 +0900";
layers = (
{
anchors = (
{
name = top;
position = "{381, 690}";
}
);
layerId = "518735FF-A855-4455-BD68-071AC00DFA4E";
name = "Regular Italic";
paths = (
{
closed = 1;
nodes = (
"567 690 LINE",
"319 350 LINE",
"185 690 LINE",
"94 690 LINE",
"273 250 LINE",
"336 250 LINE",
"668 690 LINE"
);
},
{
closed = 1;
nodes = (
"269 300 LINE",
"216 0 LINE",
"302 0 LINE",
"355 300 LINE"
);
}
);
width = 581;
},
{
anchors = (
{
name = top;
position = "{354, 690}";
}
);
layerId = "4375068D-FDA0-47DA-A897-61BBB4269C7B";
name = "Light Italic";
paths = (
{
closed = 1;
nodes = (
"583 690 LINE",
"284 295 LINE",
"122 690 LINE",
"98 690 LINE",
"270 270 LINE",
"291 270 LINE",
"612 690 LINE"
);
},
{
closed = 1;
nodes = (
"272 286 LINE",
"221 0 LINE",
"243 0 LINE",
"294 286 LINE"
);
}
);
width = 545;
},
{
anchors = (
{
name = top;
position = "{432, 690}";
}
);
layerId = "F37E1481-2EA3-4843-874F-9D06DA6D7C4C";
name = "Bold Italic";
paths = (
{
closed = 1;
nodes = (
"566 690 LINE",
"386 414 LINE",
"291 690 LINE",
"99 690 LINE",
"274 246 LINE",
"436 246 LINE",
"765 690 LINE"
);
},
{
closed = 1;
nodes = (
"287 380 LINE",
"220 0 LINE",
"400 0 LINE",
"467 380 LINE"
);
}
);
width = 683;
}
);
leftKerningGroup = Y;
rightKerningGroup = Y;
unicode = 0059;
},
{
glyphname = Z;
lastChange = "2014-04-12 01:45:58 +0900";
layers = (
{
anchors = (
{
name = top;
position = "{381, 690}";
}
);
layerId = "518735FF-A855-4455-BD68-071AC00DFA4E";
name = "Regular Italic";
paths = (
{
closed = 1;
nodes = (
"149 690 LINE",
"136 620 LINE",
"547 620 LINE",
"543 649 LINE",
"11 66 LINE",
"-1 0 LINE",
"522 0 LINE",
"535 70 LINE",
"92 70 LINE",
"96 41 LINE",
"626 621 LINE",
"638 690 LINE"
);
}
);
width = 591;
},
{
anchors = (
{
name = top;
position = "{349, 690}";
}
);
layerId = "4375068D-FDA0-47DA-A897-61BBB4269C7B";
name = "Light Italic";
paths = (
{
closed = 1;
nodes = (
"139 690 LINE",
"135 669 LINE",
"561 669 LINE",
"561 684 LINE",
"-8 17 LINE",
"-11 0 LINE",
"465 0 LINE",
"469 21 LINE",
"11 21 LINE",
"11 6 LINE",
"577 670 LINE",
"581 690 LINE"
);
}
);
width = 538;
},
{
anchors = (
{
name = top;
position = "{416, 690}";
}
);
layerId = "F37E1481-2EA3-4843-874F-9D06DA6D7C4C";
name = "Bold Italic";
paths = (
{
closed = 1;
nodes = (
"156 690 LINE",
"131 550 LINE",
"525 550 LINE",
"540 649 LINE",
"30 136 LINE",
"6 0 LINE",
"571 0 LINE",
"596 140 LINE",
"172 140 LINE",
"157 41 LINE",
"664 551 LINE",
"689 690 LINE"
);
}
);
width = 648;
}
);
leftKerningGroup = Z;
rightKerningGroup = Z;
unicode = 005A;
},
{
glyphname = a;
lastChange = "2014-04-12 01:45:58 +0900";
layers = (
{
anchors = (
{
name = ogonek;
position = "{330, 0}";
},
{
name = top;
position = "{310, 530}";
}
);
layerId = "518735FF-A855-4455-BD68-071AC00DFA4E";
name = "Regular Italic";
paths = (
{
closed = 1;
nodes = (
"180 544 OFFCURVE",
"92 479 OFFCURVE",
"69 366 CURVE",
"159 366 LINE",
"175 439 OFFCURVE",
"213 478 OFFCURVE",
"303 478 CURVE SMOOTH",
"365 478 OFFCURVE",
"388 445 OFFCURVE",
"388 404 CURVE SMOOTH",
"388 389 OFFCURVE",
"386 372 OFFCURVE",
"379 333 CURVE SMOOTH",
"356 201 LINE",
"335 85 LINE",
"330 0 LINE",
"416 0 LINE",
"419 59 OFFCURVE",
"423 95 OFFCURVE",
"430 135 CURVE SMOOTH",
"465 334 LINE SMOOTH",
"470 363 OFFCURVE",
"474 391 OFFCURVE",
"474 413 CURVE SMOOTH",
"474 491 OFFCURVE",
"423 544 OFFCURVE",
"304 544 CURVE SMOOTH"
);
},
{
closed = 1;
nodes = (
"174 336 OFFCURVE",
"12 277 OFFCURVE",
"12 123 CURVE SMOOTH",
"12 29 OFFCURVE",
"83 -14 OFFCURVE",
"157 -14 CURVE SMOOTH",
"217 -14 OFFCURVE",
"264 -3 OFFCURVE",
"296 28 CURVE",
"343 87 LINE",
"356 201 LINE",
"340 115 OFFCURVE",
"264 52 OFFCURVE",
"197 52 CURVE SMOOTH",
"143 52 OFFCURVE",
"106 80 OFFCURVE",
"106 132 CURVE SMOOTH",
"106 235 OFFCURVE",
"231 272 OFFCURVE",
"370 256 CURVE",
"382 319 LINE"
);
}
);
width = 506;
},
{
anchors = (
{
name = ogonek;
position = "{371, 0}";
},
{
name = top;
position = "{318, 530}";
}
);
layerId = "4375068D-FDA0-47DA-A897-61BBB4269C7B";
name = "Light Italic";
paths = (
{
closed = 1;
nodes = (
"202 540 OFFCURVE",
"119 470 OFFCURVE",
"97 382 CURVE",
"119 382 LINE",
"149 480 OFFCURVE",
"231 519 OFFCURVE",
"308 519 CURVE SMOOTH",
"398 519 OFFCURVE",
"431 476 OFFCURVE",
"431 406 CURVE SMOOTH",
"431 389 OFFCURVE",
"428 367 OFFCURVE",
"422 334 CURVE SMOOTH",
"400 209 LINE",
"388 138 LINE",
"371 0 LINE",
"394 0 LINE",
"400 69 OFFCURVE",
"405 110 OFFCURVE",
"415 170 CURVE SMOOTH",
"445 336 LINE SMOOTH",
"452 374 OFFCURVE",
"454 396 OFFCURVE",
"454 413 CURVE SMOOTH",
"454 487 OFFCURVE",
"408 540 OFFCURVE",
"312 540 CURVE SMOOTH"
);
},
{
closed = 1;
nodes = (
"224 318 OFFCURVE",
"30 271 OFFCURVE",
"30 111 CURVE SMOOTH",
"30 26 OFFCURVE",
"93 -14 OFFCURVE",
"169 -14 CURVE SMOOTH",
"240 -14 OFFCURVE",
"307 17 OFFCURVE",
"356 77 CURVE",
"395 142 LINE",
"400 209 LINE",
"382 105 OFFCURVE",
"289 7 OFFCURVE",
"176 7 CURVE SMOOTH",
"102 7 OFFCURVE",
"53 44 OFFCURVE",
"53 112 CURVE SMOOTH",
"53 233 OFFCURVE",
"192 303 OFFCURVE",
"418 282 CURVE",
"422 303 LINE"
);
}
);
width = 495;
},
{
anchors = (
{
name = ogonek;
position = "{324, 0}";
},
{
name = top;
position = "{344, 530}";
}
);
layerId = "F37E1481-2EA3-4843-874F-9D06DA6D7C4C";
name = "Bold Italic";
paths = (
{
closed = 1;
nodes = (
"208 548 OFFCURVE",
"91 477 OFFCURVE",
"68 352 CURVE",
"238 353 LINE",
"249 399 OFFCURVE",
"280 426 OFFCURVE",
"322 426 CURVE SMOOTH",
"360 426 OFFCURVE",
"373 403 OFFCURVE",
"373 377 CURVE SMOOTH",
"373 359 OFFCURVE",
"371 343 OFFCURVE",
"369 332 CURVE SMOOTH",
"344 191 LINE",
"327 95 LINE",
"324 0 LINE",
"500 0 LINE",
"503 59 OFFCURVE",
"507 95 OFFCURVE",
"514 135 CURVE SMOOTH",
"540 281 LINE SMOOTH",
"550 337 OFFCURVE",
"555 368 OFFCURVE",
"555 399 CURVE SMOOTH",
"555 484 OFFCURVE",
"499 548 OFFCURVE",
"343 548 CURVE SMOOTH"
);
},
{
closed = 1;
nodes = (
"139 340 OFFCURVE",
"12 251 OFFCURVE",
"12 129 CURVE SMOOTH",
"12 33 OFFCURVE",
"78 -14 OFFCURVE",
"162 -14 CURVE SMOOTH",
"210 -14 OFFCURVE",
"257 -2 OFFCURVE",
"294 22 CURVE",
"333 90 LINE",
"344 191 LINE",
"334 135 OFFCURVE",
"287 108 OFFCURVE",
"251 108 CURVE SMOOTH",
"219 108 OFFCURVE",
"198 122 OFFCURVE",
"198 154 CURVE SMOOTH",
"198 210 OFFCURVE",
"260 239 OFFCURVE",
"355 226 CURVE",
"373 328 LINE"
);
}
);
width = 589;
}
);
leftKerningGroup = a;
rightKerningGroup = a;
rightMetricsKey = "h-4";
unicode = 0061;
},
{
glyphname = ae;
lastChange = "2014-08-20 09:23:21 +0900";
layers = (
{
anchors = (
{
name = top;
position = "{591, 530}";
}
);
layerId = "4375068D-FDA0-47DA-A897-61BBB4269C7B";
name = "Light Italic";
paths = (
{
closed = 1;
nodes = (
"620 544 OFFCURVE",
"512 482 OFFCURVE",
"471 370 CURVE",
"475 370 LINE",
"484 441 OFFCURVE",
"462 544 OFFCURVE",
"315 544 CURVE SMOOTH",
"209 544 OFFCURVE",
"114 474 OFFCURVE",
"92 386 CURVE",
"114 386 LINE",
"144 484 OFFCURVE",
"237 523 OFFCURVE",
"311 523 CURVE SMOOTH",
"409 523 OFFCURVE",
"452 471 OFFCURVE",
"452 378 CURVE SMOOTH",
"452 356 OFFCURVE",
"450 331 OFFCURVE",
"441 280 CURVE",
"407 280 LINE SMOOTH",
"166 280 OFFCURVE",
"27 224 OFFCURVE",
"27 98 CURVE SMOOTH",
"27 19 OFFCURVE",
"96 -14 OFFCURVE",
"177 -14 CURVE SMOOTH",
"262 -14 OFFCURVE",
"336 20 OFFCURVE",
"400 96 CURVE",
"443 180 LINE",
"435 195 LINE",
"427 102 OFFCURVE",
"467 -14 OFFCURVE",
"615 -14 CURVE SMOOTH",
"715 -14 OFFCURVE",
"814 45 OFFCURVE",
"867 161 CURVE",
"845 161 LINE",
"795 54 OFFCURVE",
"704 7 OFFCURVE",
"621 7 CURVE SMOOTH",
"528 7 OFFCURVE",
"454 59 OFFCURVE",
"454 191 CURVE SMOOTH",
"454 211 OFFCURVE",
"456 234 OFFCURVE",
"460 258 CURVE",
"891 258 LINE",
"896 276 OFFCURVE",
"901 313 OFFCURVE",
"901 341 CURVE SMOOTH",
"901 449 OFFCURVE",
"849 544 OFFCURVE",
"718 544 CURVE SMOOTH"
);
},
{
closed = 1;
nodes = (
"403 259 OFFCURVE",
"420 259 OFFCURVE",
"437 258 CURVE",
"432 229 LINE SMOOTH",
"408 97 OFFCURVE",
"305 7 OFFCURVE",
"184 7 CURVE SMOOTH",
"102 7 OFFCURVE",
"52 46 OFFCURVE",
"52 106 CURVE SMOOTH",
"52 209 OFFCURVE",
"183 259 OFFCURVE",
"386 259 CURVE SMOOTH"
);
},
{
closed = 1;
nodes = (
"853 523 OFFCURVE",
"893 404 OFFCURVE",
"871 279 CURVE",
"463 279 LINE",
"497 444 OFFCURVE",
"604 523 OFFCURVE",
"712 523 CURVE SMOOTH"
);
}
);
width = 935.132;
},
{
anchors = (
{
name = top;
position = "{527, 530}";
}
);
layerId = "518735FF-A855-4455-BD68-071AC00DFA4E";
name = "Regular Italic";
paths = (
{
closed = 1;
nodes = (
"557 544 OFFCURVE",
"469 478 OFFCURVE",
"414 368 CURVE",
"475 368 LINE",
"482 446 OFFCURVE",
"479 544 OFFCURVE",
"312 544 CURVE SMOOTH",
"188 544 OFFCURVE",
"100 479 OFFCURVE",
"77 366 CURVE",
"167 366 LINE",
"183 439 OFFCURVE",
"226 478 OFFCURVE",
"301 478 CURVE SMOOTH",
"368 478 OFFCURVE",
"395 441 OFFCURVE",
"395 382 CURVE SMOOTH",
"395 367 OFFCURVE",
"393 350 OFFCURVE",
"385 305 CURVE",
"351 305 LINE SMOOTH",
"99 305 OFFCURVE",
"11 225 OFFCURVE",
"11 117 CURVE SMOOTH",
"11 37 OFFCURVE",
"78 -14 OFFCURVE",
"165 -14 CURVE SMOOTH",
"248 -14 OFFCURVE",
"291 1 OFFCURVE",
"346 47 CURVE",
"429 169 LINE",
"371 168 LINE",
"379 33 OFFCURVE",
"457 -14 OFFCURVE",
"561 -14 CURVE SMOOTH",
"670 -14 OFFCURVE",
"781 43 OFFCURVE",
"824 171 CURVE",
"734 171 LINE",
"709 95 OFFCURVE",
"645 52 OFFCURVE",
"576 52 CURVE SMOOTH",
"507 52 OFFCURVE",
"456 95 OFFCURVE",
"456 197 CURVE SMOOTH",
"456 210 OFFCURVE",
"457 224 OFFCURVE",
"459 239 CURVE",
"841 239 LINE",
"851 271 OFFCURVE",
"857 312 OFFCURVE",
"857 347 CURVE SMOOTH",
"857 466 OFFCURVE",
"794 544 OFFCURVE",
"670 544 CURVE SMOOTH"
);
},
{
closed = 1;
nodes = (
"335 240 OFFCURVE",
"354 240 OFFCURVE",
"373 239 CURVE",
"368 209 LINE SMOOTH",
"351 113 OFFCURVE",
"278 52 OFFCURVE",
"198 52 CURVE SMOOTH",
"141 52 OFFCURVE",
"107 79 OFFCURVE",
"107 127 CURVE SMOOTH",
"107 210 OFFCURVE",
"184 240 OFFCURVE",
"318 240 CURVE SMOOTH"
);
},
{
closed = 1;
nodes = (
"768 478 OFFCURVE",
"774 378 OFFCURVE",
"768 305 CURVE",
"471 305 LINE",
"502 418 OFFCURVE",
"572 478 OFFCURVE",
"657 478 CURVE SMOOTH"
);
}
);
width = 876.744;
},
{
anchors = (
{
name = top;
position = "{673, 530}";
}
);
layerId = "F37E1481-2EA3-4843-874F-9D06DA6D7C4C";
name = "Bold Italic";
paths = (
{
closed = 1;
nodes = (
"628 544 OFFCURVE",
"524 492 OFFCURVE",
"478 379 CURVE",
"532 379 LINE",
"541 455 OFFCURVE",
"512 544 OFFCURVE",
"349 544 CURVE SMOOTH",
"214 544 OFFCURVE",
"91 473 OFFCURVE",
"68 348 CURVE",
"238 348 LINE",
"249 395 OFFCURVE",
"288 422 OFFCURVE",
"330 422 CURVE SMOOTH",
"374 422 OFFCURVE",
"394 405 OFFCURVE",
"394 366 CURVE SMOOTH",
"394 358 OFFCURVE",
"393 349 OFFCURVE",
"390 332 CURVE",
"336 332 LINE SMOOTH",
"101 332 OFFCURVE",
"12 232 OFFCURVE",
"12 127 CURVE SMOOTH",
"12 40 OFFCURVE",
"83 -14 OFFCURVE",
"207 -14 CURVE SMOOTH",
"256 -14 OFFCURVE",
"313 -3 OFFCURVE",
"359 23 CURVE",
"475 148 LINE",
"410 148 LINE",
"432 39 OFFCURVE",
"511 -14 OFFCURVE",
"628 -14 CURVE SMOOTH",
"765 -14 OFFCURVE",
"877 54 OFFCURVE",
"929 175 CURVE",
"752 175 LINE",
"738 134 OFFCURVE",
"702 108 OFFCURVE",
"651 108 CURVE SMOOTH",
"604 108 OFFCURVE",
"571 129 OFFCURVE",
"571 203 CURVE SMOOTH",
"571 209 OFFCURVE",
"572 215 OFFCURVE",
"572 222 CURVE",
"944 222 LINE",
"955 255 OFFCURVE",
"962 294 OFFCURVE",
"962 328 CURVE SMOOTH",
"962 444 OFFCURVE",
"892 544 OFFCURVE",
"746 544 CURVE SMOOTH"
);
},
{
closed = 1;
nodes = (
"348 223 OFFCURVE",
"361 223 OFFCURVE",
"375 222 CURVE",
"372 205 LINE SMOOTH",
"362 146 OFFCURVE",
"317 108 OFFCURVE",
"263 108 CURVE SMOOTH",
"222 108 OFFCURVE",
"200 122 OFFCURVE",
"200 150 CURVE SMOOTH",
"200 200 OFFCURVE",
"242 223 OFFCURVE",
"336 223 CURVE SMOOTH"
);
},
{
closed = 1;
nodes = (
"755 422 OFFCURVE",
"781 394 OFFCURVE",
"779 332 CURVE",
"598 332 LINE",
"622 397 OFFCURVE",
"660 422 OFFCURVE",
"706 422 CURVE SMOOTH"
);
}
);
width = 985.123;
}
);
leftKerningGroup = a;
leftMetricsKey = a;
rightKerningGroup = e;
rightMetricsKey = e;
unicode = 00E6;
},
{
glyphname = b;
lastChange = "2014-08-20 09:23:21 +0900";
layers = (
{
layerId = "4375068D-FDA0-47DA-A897-61BBB4269C7B";
name = "Light Italic";
paths = (
{
closed = 1;
nodes = (
"258 540 OFFCURVE",
"214 522 OFFCURVE",
"157 466 CURVE",
"106 387 LINE",
"98 288 LINE",
"129 460 OFFCURVE",
"227 519 OFFCURVE",
"331 519 CURVE SMOOTH",
"440 519 OFFCURVE",
"499 437 OFFCURVE",
"499 326 CURVE SMOOTH",
"499 167 OFFCURVE",
"403 7 OFFCURVE",
"241 7 CURVE SMOOTH",
"107 7 OFFCURVE",
"66 104 OFFCURVE",
"88 229 CURVE",
"61 149 LINE",
"86 63 LINE",
"120 8 OFFCURVE",
"160 -14 OFFCURVE",
"238 -14 CURVE SMOOTH",
"419 -14 OFFCURVE",
"522 159 OFFCURVE",
"522 327 CURVE SMOOTH",
"522 451 OFFCURVE",
"453 540 OFFCURVE",
"336 540 CURVE SMOOTH"
);
},
{
closed = 1;
nodes = (
"155 735 LINE",
"25 0 LINE",
"47 0 LINE",
"88 229 LINE",
"98 288 LINE",
"177 735 LINE"
);
}
);
width = 547.562;
},
{
layerId = "F37E1481-2EA3-4843-874F-9D06DA6D7C4C";
name = "Bold Italic";
paths = (
{
closed = 1;
nodes = (
"397 548 OFFCURVE",
"353 537 OFFCURVE",
"320 515 CURVE",
"251 435 LINE",
"237 274 LINE",
"257 384 OFFCURVE",
"312 426 OFFCURVE",
"378 426 CURVE SMOOTH",
"433 426 OFFCURVE",
"471 390 OFFCURVE",
"471 308 CURVE SMOOTH",
"471 202 OFFCURVE",
"411 108 OFFCURVE",
"327 108 CURVE SMOOTH",
"237 108 OFFCURVE",
"221 179 OFFCURVE",
"233 251 CURVE",
"189 99 LINE",
"227 12 LINE",
"251 -4 OFFCURVE",
"301 -14 OFFCURVE",
"345 -14 CURVE SMOOTH",
"556 -14 OFFCURVE",
"661 155 OFFCURVE",
"661 337 CURVE SMOOTH",
"661 477 OFFCURVE",
"584 548 OFFCURVE",
"451 548 CURVE SMOOTH"
);
},
{
closed = 1;
nodes = (
"138 735 LINE",
"8 0 LINE",
"188 0 LINE",
"232 251 LINE",
"236 274 LINE",
"318 735 LINE"
);
}
);
width = 679.461;
},
{
layerId = "518735FF-A855-4455-BD68-071AC00DFA4E";
name = "Regular Italic";
paths = (
{
closed = 1;
nodes = (
"336 544 OFFCURVE",
"277 527 OFFCURVE",
"243 502 CURVE",
"175 425 LINE",
"162 270 LINE",
"189 422 OFFCURVE",
"278 478 OFFCURVE",
"366 478 CURVE SMOOTH",
"453 478 OFFCURVE",
"494 414 OFFCURVE",
"494 324 CURVE SMOOTH",
"494 189 OFFCURVE",
"420 52 OFFCURVE",
"286 52 CURVE SMOOTH",
"178 52 OFFCURVE",
"140 143 OFFCURVE",
"157 241 CURVE",
"121 99 LINE",
"153 30 LINE",
"176 4 OFFCURVE",
"230 -14 OFFCURVE",
"274 -14 CURVE SMOOTH",
"488 -14 OFFCURVE",
"588 164 OFFCURVE",
"588 328 CURVE SMOOTH",
"588 449 OFFCURVE",
"522 544 OFFCURVE",
"390 544 CURVE SMOOTH"
);
},
{
closed = 1;
nodes = (
"158 735 LINE",
"28 0 LINE",
"114 0 LINE",
"157 241 LINE",
"162 270 LINE",
"244 735 LINE"
);
}
);
width = 613.564;
}
);
leftMetricsKey = h;
rightMetricsKey = o;
unicode = 0062;
},
{
glyphname = c;
lastChange = "2014-08-20 09:23:21 +0900";
layers = (
{
anchors = (
{
name = bottom;
position = "{214, 0}";
},
{
name = top;
position = "{318, 530}";
}
);
layerId = "518735FF-A855-4455-BD68-071AC00DFA4E";
name = "Regular Italic";
paths = (
{
closed = 1;
nodes = (
"131 544 OFFCURVE",
"25 373 OFFCURVE",
"25 195 CURVE SMOOTH",
"25 57 OFFCURVE",
"108 -14 OFFCURVE",
"222 -14 CURVE SMOOTH",
"352 -14 OFFCURVE",
"434 46 OFFCURVE",
"486 169 CURVE",
"396 169 LINE",
"365 92 OFFCURVE",
"308 52 OFFCURVE",
"235 52 CURVE SMOOTH",
"170 52 OFFCURVE",
"119 96 OFFCURVE",
"119 198 CURVE SMOOTH",
"119 365 OFFCURVE",
"202 478 OFFCURVE",
"312 478 CURVE SMOOTH",
"384 478 OFFCURVE",
"421 437 OFFCURVE",
"425 352 CURVE",
"515 352 LINE",
"514 468 OFFCURVE",
"455 544 OFFCURVE",
"328 544 CURVE SMOOTH"
);
}
);
width = 530.788;
},
{
anchors = (
{
name = bottom;
position = "{221, 0}";
},
{
name = top;
position = "{312, 530}";
}
);
layerId = "4375068D-FDA0-47DA-A897-61BBB4269C7B";
name = "Light Italic";
paths = (
{
closed = 1;
nodes = (
"128 540 OFFCURVE",
"26 371 OFFCURVE",
"26 210 CURVE SMOOTH",
"26 67 OFFCURVE",
"103 -14 OFFCURVE",
"214 -14 CURVE SMOOTH",
"322 -14 OFFCURVE",
"415 45 OFFCURVE",
"460 157 CURVE",
"438 157 LINE",
"395 60 OFFCURVE",
"314 6 OFFCURVE",
"219 6 CURVE SMOOTH",
"125 6 OFFCURVE",
"48 70 OFFCURVE",
"48 211 CURVE SMOOTH",
"48 368 OFFCURVE",
"150 520 OFFCURVE",
"313 520 CURVE SMOOTH",
"420 520 OFFCURVE",
"473 458 OFFCURVE",
"473 363 CURVE",
"495 363 LINE",
"498 468 OFFCURVE",
"432 540 OFFCURVE",
"318 540 CURVE SMOOTH"
);
}
);
width = 517.074;
},
{
anchors = (
{
name = bottom;
position = "{262, 0}";
},
{
name = top;
position = "{356, 530}";
}
);
layerId = "F37E1481-2EA3-4843-874F-9D06DA6D7C4C";
name = "Bold Italic";
paths = (
{
closed = 1;
nodes = (
"154 544 OFFCURVE",
"21 402 OFFCURVE",
"21 215 CURVE SMOOTH",
"21 54 OFFCURVE",
"128 -14 OFFCURVE",
"272 -14 CURVE SMOOTH",
"427 -14 OFFCURVE",
"524 58 OFFCURVE",
"572 196 CURVE",
"395 196 LINE",
"375 138 OFFCURVE",
"337 108 OFFCURVE",
"286 108 CURVE SMOOTH",
"243 108 OFFCURVE",
"211 145 OFFCURVE",
"211 213 CURVE SMOOTH",
"211 321 OFFCURVE",
"257 422 OFFCURVE",
"338 422 CURVE SMOOTH",
"388 422 OFFCURVE",
"420 391 OFFCURVE",
"420 326 CURVE",
"594 326 LINE",
"594 451 OFFCURVE",
"520 544 OFFCURVE",
"351 544 CURVE SMOOTH"
);
}
);
width = 605.8;
}
);
leftKerningGroup = o;
leftMetricsKey = o;
rightKerningGroup = c;
unicode = 0063;
},
{
glyphname = d;
lastChange = "2014-08-20 09:23:21 +0900";
layers = (
{
anchors = (
{
name = center;
position = "{296, 265}";
}
);
layerId = "518735FF-A855-4455-BD68-071AC00DFA4E";
name = "Regular Italic";
paths = (
{
closed = 1;
nodes = (
"126 544 OFFCURVE",
"26 366 OFFCURVE",
"26 202 CURVE SMOOTH",
"26 81 OFFCURVE",
"92 -14 OFFCURVE",
"224 -14 CURVE SMOOTH",
"278 -14 OFFCURVE",
"337 3 OFFCURVE",
"371 28 CURVE",
"439 105 LINE",
"452 260 LINE",
"425 108 OFFCURVE",
"336 52 OFFCURVE",
"248 52 CURVE SMOOTH",
"161 52 OFFCURVE",
"120 116 OFFCURVE",
"120 206 CURVE SMOOTH",
"120 341 OFFCURVE",
"194 478 OFFCURVE",
"328 478 CURVE SMOOTH",
"436 478 OFFCURVE",
"474 387 OFFCURVE",
"457 289 CURVE",
"493 431 LINE",
"461 500 LINE",
"438 526 OFFCURVE",
"384 544 OFFCURVE",
"340 544 CURVE SMOOTH"
);
},
{
closed = 1;
nodes = (
"536 735 LINE",
"457 289 LINE",
"452 260 LINE",
"406 0 LINE",
"492 0 LINE",
"622 735 LINE"
);
}
);
width = 612.128;
},
{
anchors = (
{
name = center;
position = "{267, 265}";
}
);
layerId = "4375068D-FDA0-47DA-A897-61BBB4269C7B";
name = "Light Italic";
paths = (
{
closed = 1;
nodes = (
"128 540 OFFCURVE",
"25 367 OFFCURVE",
"25 199 CURVE SMOOTH",
"25 75 OFFCURVE",
"94 -14 OFFCURVE",
"211 -14 CURVE SMOOTH",
"289 -14 OFFCURVE",
"333 4 OFFCURVE",
"390 60 CURVE",
"441 139 LINE",
"449 238 LINE",
"418 66 OFFCURVE",
"320 7 OFFCURVE",
"216 7 CURVE SMOOTH",
"107 7 OFFCURVE",
"48 89 OFFCURVE",
"48 200 CURVE SMOOTH",
"48 359 OFFCURVE",
"144 519 OFFCURVE",
"306 519 CURVE SMOOTH",
"440 519 OFFCURVE",
"481 422 OFFCURVE",
"459 297 CURVE",
"486 377 LINE",
"461 463 LINE",
"427 518 OFFCURVE",
"387 540 OFFCURVE",
"309 540 CURVE SMOOTH"
);
},
{
closed = 1;
nodes = (
"537 735 LINE",
"459 297 LINE",
"449 238 LINE",
"407 0 LINE",
"429 0 LINE",
"559 735 LINE"
);
}
);
width = 546.124;
},
{
anchors = (
{
name = center;
position = "{336, 265}";
}
);
layerId = "F37E1481-2EA3-4843-874F-9D06DA6D7C4C";
name = "Bold Italic";
paths = (
{
closed = 1;
nodes = (
"124 548 OFFCURVE",
"19 379 OFFCURVE",
"19 197 CURVE SMOOTH",
"19 57 OFFCURVE",
"96 -14 OFFCURVE",
"229 -14 CURVE SMOOTH",
"283 -14 OFFCURVE",
"327 -3 OFFCURVE",
"360 19 CURVE",
"429 99 LINE",
"443 260 LINE",
"423 150 OFFCURVE",
"368 108 OFFCURVE",
"302 108 CURVE SMOOTH",
"247 108 OFFCURVE",
"209 144 OFFCURVE",
"209 226 CURVE SMOOTH",
"209 332 OFFCURVE",
"269 426 OFFCURVE",
"353 426 CURVE SMOOTH",
"443 426 OFFCURVE",
"459 355 OFFCURVE",
"447 283 CURVE",
"491 435 LINE",
"453 522 LINE",
"429 538 OFFCURVE",
"379 548 OFFCURVE",
"335 548 CURVE SMOOTH"
);
},
{
closed = 1;
nodes = (
"527 735 LINE",
"447 283 LINE",
"443 260 LINE",
"397 0 LINE",
"577 0 LINE",
"707 735 LINE"
);
}
);
width = 678.922;
}
);
leftKerningGroup = o;
leftMetricsKey = o;
rightKerningGroup = d;
unicode = 0064;
},
{
glyphname = eth;
lastChange = "2014-08-20 09:23:58 +0900";
layers = (
{
layerId = "518735FF-A855-4455-BD68-071AC00DFA4E";
name = "Regular Italic";
paths = (
{
closed = 1;
nodes = (
"312 694 LINE",
"444 639 OFFCURVE",
"455 537 OFFCURVE",
"455 425 CURVE",
"476 425 LINE",
"425 515 LINE",
"392 537 OFFCURVE",
"362 544 OFFCURVE",
"313 544 CURVE SMOOTH",
"118 544 OFFCURVE",
"25 347 OFFCURVE",
"25 205 CURVE SMOOTH",
"25 85 OFFCURVE",
"92 -14 OFFCURVE",
"234 -14 CURVE SMOOTH",
"457 -14 OFFCURVE",
"539 185 OFFCURVE",
"539 370 CURVE SMOOTH",
"539 583 OFFCURVE",
"499 688 OFFCURVE",
"372 745 CURVE"
);
},
{
closed = 1;
nodes = (
"378 478 OFFCURVE",
"445 438 OFFCURVE",
"445 337 CURVE SMOOTH",
"445 205 OFFCURVE",
"389 52 OFFCURVE",
"241 52 CURVE SMOOTH",
"167 52 OFFCURVE",
"119 98 OFFCURVE",
"119 208 CURVE SMOOTH",
"119 318 OFFCURVE",
"174 478 OFFCURVE",
"312 478 CURVE SMOOTH"
);
},
{
closed = 1;
nodes = (
"261 609 LINE",
"279 560 LINE",
"552 665 LINE",
"534 714 LINE"
);
}
);
width = 595.572;
},
{
layerId = "4375068D-FDA0-47DA-A897-61BBB4269C7B";
name = "Light Italic";
paths = (
{
closed = 1;
nodes = (
"316 731 LINE",
"438 701 OFFCURVE",
"467 603 OFFCURVE",
"473 395 CURVE",
"485 417 LINE",
"439 499 LINE",
"405 530 OFFCURVE",
"362 544 OFFCURVE",
"313 544 CURVE SMOOTH",
"106 544 OFFCURVE",
"24 332 OFFCURVE",
"24 201 CURVE SMOOTH",
"24 83 OFFCURVE",
"93 -14 OFFCURVE",
"202 -14 CURVE SMOOTH",
"396 -14 OFFCURVE",
"494 173 OFFCURVE",
"494 400 CURVE SMOOTH",
"494 645 OFFCURVE",
"437 714 OFFCURVE",
"334 745 CURVE"
);
},
{
closed = 1;
nodes = (
"407 523 OFFCURVE",
"468 458 OFFCURVE",
"468 359 CURVE SMOOTH",
"468 222 OFFCURVE",
"398 7 OFFCURVE",
"207 7 CURVE SMOOTH",
"116 7 OFFCURVE",
"47 80 OFFCURVE",
"47 201 CURVE SMOOTH",
"47 336 OFFCURVE",
"130 523 OFFCURVE",
"310 523 CURVE SMOOTH"
);
},
{
closed = 1;
nodes = (
"247 609 LINE",
"254 590 LINE",
"528 695 LINE",
"520 714 LINE"
);
}
);
width = 540.994;
},
{
layerId = "F37E1481-2EA3-4843-874F-9D06DA6D7C4C";
name = "Bold Italic";
paths = (
{
closed = 1;
nodes = (
"319 695 LINE",
"450 614 OFFCURVE",
"464 519 OFFCURVE",
"464 425 CURVE",
"477 435 LINE",
"425 519 LINE",
"392 541 OFFCURVE",
"367 548 OFFCURVE",
"328 548 CURVE SMOOTH",
"117 548 OFFCURVE",
"22 378 OFFCURVE",
"22 211 CURVE SMOOTH",
"22 80 OFFCURVE",
"117 -14 OFFCURVE",
"288 -14 CURVE SMOOTH",
"539 -14 OFFCURVE",
"629 195 OFFCURVE",
"629 381 CURVE SMOOTH",
"629 531 OFFCURVE",
"586 690 OFFCURVE",
"476 745 CURVE"
);
},
{
closed = 1;
nodes = (
"411 416 OFFCURVE",
"443 368 OFFCURVE",
"443 311 CURVE SMOOTH",
"443 243 OFFCURVE",
"415 118 OFFCURVE",
"301 118 CURVE SMOOTH",
"243 118 OFFCURVE",
"208 151 OFFCURVE",
"208 224 CURVE SMOOTH",
"208 296 OFFCURVE",
"241 416 OFFCURVE",
"355 416 CURVE SMOOTH"
);
},
{
closed = 1;
nodes = (
"302 632 LINE",
"314 562 LINE",
"669 626 LINE",
"657 696 LINE"
);
}
);
width = 670.042;
}
);
leftKerningGroup = o;
leftMetricsKey = o;
unicode = 00F0;
},
{
glyphname = dcroat;
lastChange = "2014-08-20 09:23:21 +0900";
layers = (
{
components = (
{
name = d;
transform = "{1, 0, 0, 1, 0, 0}";
}
);
layerId = "4375068D-FDA0-47DA-A897-61BBB4269C7B";
name = "Light Italic";
paths = (
{
closed = 1;
nodes = (
"406 634 LINE",
"403 613 LINE",
"584 613 LINE",
"587 634 LINE"
);
}
);
width = 552.635;
},
{
components = (
{
name = d;
transform = "{1, 0, 0, 1, 0, 0}";
}
);
layerId = "518735FF-A855-4455-BD68-071AC00DFA4E";
name = "Regular Italic";
paths = (
{
closed = 1;
nodes = (
"403 651 LINE",
"393 595 LINE",
"639 595 LINE",
"649 651 LINE"
);
}
);
width = 613.94;
},
{
components = (
{
name = d;
transform = "{1, 0, 0, 1, 0, 0}";
}
);
layerId = "F37E1481-2EA3-4843-874F-9D06DA6D7C4C";
name = "Bold Italic";
paths = (
{
closed = 1;
nodes = (
"396 671 LINE",
"379 575 LINE",
"719 575 LINE",
"736 671 LINE"
);
}
);
width = 679.207;
}
);
leftKerningGroup = o;
leftMetricsKey = d;
rightMetricsKey = "=d-40";
unicode = 0111;
},
{
glyphname = e;
lastChange = "2014-08-20 09:23:21 +0900";
layers = (
{
anchors = (
{
name = bottom;
position = "{223, 0}";
},
{
name = ogonek;
position = "{232, 0}";
},
{
name = top;
position = "{326, 530}";
}
);
layerId = "518735FF-A855-4455-BD68-071AC00DFA4E";
name = "Regular Italic";
paths = (
{
closed = 1;
nodes = (
"108 544 OFFCURVE",
"25 348 OFFCURVE",
"25 194 CURVE SMOOTH",
"25 60 OFFCURVE",
"105 -14 OFFCURVE",
"224 -14 CURVE SMOOTH",
"333 -14 OFFCURVE",
"444 43 OFFCURVE",
"487 171 CURVE",
"397 171 LINE",
"372 95 OFFCURVE",
"308 52 OFFCURVE",
"239 52 CURVE SMOOTH",
"170 52 OFFCURVE",
"119 96 OFFCURVE",
"119 197 CURVE SMOOTH",
"119 312 OFFCURVE",
"162 478 OFFCURVE",
"307 478 CURVE SMOOTH",
"384 478 OFFCURVE",
"433 429 OFFCURVE",
"433 342 CURVE SMOOTH",
"433 330 OFFCURVE",
"432 318 OFFCURVE",
"431 305 CURVE",
"94 305 LINE",
"82 239 LINE",
"504 239 LINE",
"514 271 OFFCURVE",
"520 312 OFFCURVE",
"520 347 CURVE SMOOTH",
"520 466 OFFCURVE",
"444 544 OFFCURVE",
"320 544 CURVE SMOOTH"
);
}
);
width = 539.488;
},
{
anchors = (
{
name = bottom;
position = "{210, 0}";
},
{
name = ogonek;
position = "{271, 0}";
},
{
name = top;
position = "{304, 530}";
}
);
layerId = "4375068D-FDA0-47DA-A897-61BBB4269C7B";
name = "Light Italic";
paths = (
{
closed = 1;
nodes = (
"123 540 OFFCURVE",
"24 346 OFFCURVE",
"24 204 CURVE SMOOTH",
"24 58 OFFCURVE",
"103 -14 OFFCURVE",
"208 -14 CURVE SMOOTH",
"308 -14 OFFCURVE",
"398 37 OFFCURVE",
"455 161 CURVE",
"433 161 LINE",
"383 54 OFFCURVE",
"297 7 OFFCURVE",
"214 7 CURVE SMOOTH",
"129 7 OFFCURVE",
"47 60 OFFCURVE",
"47 205 CURVE SMOOTH",
"47 321 OFFCURVE",
"127 519 OFFCURVE",
"308 519 CURVE SMOOTH",
"394 519 OFFCURVE",
"466 475 OFFCURVE",
"466 340 CURVE SMOOTH",
"466 321 OFFCURVE",
"465 301 OFFCURVE",
"461 279 CURVE",
"43 279 LINE",
"40 258 LINE",
"479 258 LINE",
"484 276 OFFCURVE",
"489 312 OFFCURVE",
"489 340 CURVE SMOOTH",
"489 448 OFFCURVE",
"441 540 OFFCURVE",
"311 540 CURVE SMOOTH"
);
}
);
width = 523.33;
},
{
anchors = (
{
name = bottom;
position = "{261, 0}";
},
{
name = ogonek;
position = "{238, 0}";
},
{
name = top;
position = "{357, 530}";
}
);
layerId = "F37E1481-2EA3-4843-874F-9D06DA6D7C4C";
name = "Bold Italic";
paths = (
{
closed = 1;
nodes = (
"161 548 OFFCURVE",
"21 416 OFFCURVE",
"21 209 CURVE SMOOTH",
"21 46 OFFCURVE",
"136 -14 OFFCURVE",
"270 -14 CURVE SMOOTH",
"415 -14 OFFCURVE",
"517 54 OFFCURVE",
"559 175 CURVE",
"382 175 LINE",
"368 134 OFFCURVE",
"332 108 OFFCURVE",
"281 108 CURVE SMOOTH",
"234 108 OFFCURVE",
"201 135 OFFCURVE",
"201 207 CURVE SMOOTH",
"201 338 OFFCURVE",
"257 426 OFFCURVE",
"330 426 CURVE SMOOTH",
"383 426 OFFCURVE",
"406 393 OFFCURVE",
"406 343 CURVE SMOOTH",
"406 341 OFFCURVE",
"406 338 OFFCURVE",
"405 332 CURVE",
"196 332 LINE",
"176 222 LINE",
"571 222 LINE",
"582 255 OFFCURVE",
"589 294 OFFCURVE",
"589 327 CURVE SMOOTH",
"589 444 OFFCURVE",
"515 548 OFFCURVE",
"345 548 CURVE SMOOTH"
);
}
);
width = 612.288;
}
);
leftKerningGroup = o;
leftMetricsKey = o;
rightKerningGroup = e;
unicode = 0065;
},
{
glyphname = f;
lastChange = "2014-04-12 01:45:58 +0900";
layers = (
{
layerId = "518735FF-A855-4455-BD68-071AC00DFA4E";
name = "Regular Italic";
paths = (
{
closed = 1;
nodes = (
"228 754 OFFCURVE",
"174 711 OFFCURVE",
"150 634 CURVE SMOOTH",
"144 616 OFFCURVE",
"139 592 OFFCURVE",
"135 570 CURVE SMOOTH",
"35 0 LINE",
"121 0 LINE",
"222 578 LINE SMOOTH",
"225 593 OFFCURVE",
"229 609 OFFCURVE",
"237 632 CURVE SMOOTH",
"249 665 OFFCURVE",
"277 682 OFFCURVE",
"319 682 CURVE SMOOTH",
"331 682 OFFCURVE",
"344 681 OFFCURVE",
"358 678 CURVE",
"371 749 LINE",
"353 752 OFFCURVE",
"332 754 OFFCURVE",
"300 754 CURVE SMOOTH"
);
},
{
closed = 1;
nodes = (
"80 526 LINE",
"68 460 LINE",
"310 460 LINE",
"322 526 LINE"
);
}
);
width = 273;
},
{
layerId = "4375068D-FDA0-47DA-A897-61BBB4269C7B";
name = "Light Italic";
paths = (
{
closed = 1;
nodes = (
"213 754 OFFCURVE",
"165 729 OFFCURVE",
"147 663 CURVE SMOOTH",
"141 637 OFFCURVE",
"138 621 OFFCURVE",
"134 601 CURVE SMOOTH",
"29 0 LINE",
"51 0 LINE",
"158 609 LINE SMOOTH",
"161 624 OFFCURVE",
"164 641 OFFCURVE",
"169 663 CURVE SMOOTH",
"181 706 OFFCURVE",
"210 733 OFFCURVE",
"258 733 CURVE SMOOTH",
"270 733 OFFCURVE",
"283 732 OFFCURVE",
"297 728 CURVE",
"301 749 LINE",
"283 753 OFFCURVE",
"274 754 OFFCURVE",
"254 754 CURVE SMOOTH"
);
},
{
closed = 1;
nodes = (
"74 526 LINE",
"71 505 LINE",
"247 505 LINE",
"250 526 LINE"
);
}
);
width = 223;
},
{
layerId = "F37E1481-2EA3-4843-874F-9D06DA6D7C4C";
name = "Bold Italic";
paths = (
{
closed = 1;
nodes = (
"219 754 OFFCURVE",
"149 702 OFFCURVE",
"121 592 CURVE SMOOTH",
"116 574 OFFCURVE",
"111 550 OFFCURVE",
"108 534 CURVE SMOOTH",
"14 0 LINE",
"194 0 LINE",
"287 535 LINE SMOOTH",
"289 547 OFFCURVE",
"292 560 OFFCURVE",
"296 574 CURVE SMOOTH",
"307 612 OFFCURVE",
"342 632 OFFCURVE",
"389 632 CURVE SMOOTH",
"399 632 OFFCURVE",
"410 631 OFFCURVE",
"422 629 CURVE",
"443 746 LINE",
"416 751 OFFCURVE",
"385 754 OFFCURVE",
"324 754 CURVE SMOOTH"
);
},
{
closed = 1;
nodes = (
"59 530 LINE",
"40 418 LINE",
"376 418 LINE",
"395 530 LINE"
);
}
);
width = 349;
}
);
unicode = 0066;
},
{
glyphname = g;
lastChange = "2014-08-20 09:23:21 +0900";
layers = (
{
anchors = (
{
name = top;
position = "{354, 530}";
}
);
layerId = "518735FF-A855-4455-BD68-071AC00DFA4E";
name = "Regular Italic";
paths = (
{
closed = 1;
nodes = (
"500 530 LINE",
"420 76 LINE SMOOTH",
"417 60 OFFCURVE",
"413 43 OFFCURVE",
"408 18 CURVE SMOOTH",
"386 -84 OFFCURVE",
"319 -144 OFFCURVE",
"214 -144 CURVE SMOOTH",
"123 -144 OFFCURVE",
"79 -99 OFFCURVE",
"83 -34 CURVE SMOOTH",
"84 -25 LINE",
"-3 -25 LINE",
"-4 -35 LINE SMOOTH",
"-13 -147 OFFCURVE",
"71 -210 OFFCURVE",
"202 -210 CURVE SMOOTH",
"365 -210 OFFCURVE",
"464 -128 OFFCURVE",
"496 27 CURVE SMOOTH",
"502 56 OFFCURVE",
"509 97 OFFCURVE",
"515 130 CURVE SMOOTH",
"586 530 LINE"
);
},
{
closed = 1;
nodes = (
"126 544 OFFCURVE",
"26 366 OFFCURVE",
"26 202 CURVE SMOOTH",
"26 81 OFFCURVE",
"92 -14 OFFCURVE",
"224 -14 CURVE SMOOTH",
"278 -14 OFFCURVE",
"337 3 OFFCURVE",
"371 28 CURVE",
"439 105 LINE",
"452 260 LINE",
"425 108 OFFCURVE",
"336 52 OFFCURVE",
"248 52 CURVE SMOOTH",
"161 52 OFFCURVE",
"120 116 OFFCURVE",
"120 206 CURVE SMOOTH",
"120 341 OFFCURVE",
"194 478 OFFCURVE",
"328 478 CURVE SMOOTH",
"436 478 OFFCURVE",
"474 387 OFFCURVE",
"457 289 CURVE",
"493 431 LINE",
"461 500 LINE",
"438 526 OFFCURVE",
"384 544 OFFCURVE",
"340 544 CURVE SMOOTH"
);
}
);
width = 612.275;
},
{
anchors = (
{
name = top;
position = "{324, 530}";
}
);
layerId = "4375068D-FDA0-47DA-A897-61BBB4269C7B";
name = "Light Italic";
paths = (
{
closed = 1;
nodes = (
"500 530 LINE",
"424 100 LINE SMOOTH",
"416 51 OFFCURVE",
"411 24 OFFCURVE",
"404 -11 CURVE SMOOTH",
"380 -131 OFFCURVE",
"303 -199 OFFCURVE",
"179 -199 CURVE SMOOTH",
"92 -199 OFFCURVE",
"22 -166 OFFCURVE",
"22 -62 CURVE SMOOTH",
"22 -47 LINE",
"0 -47 LINE",
"0 -62 LINE SMOOTH",
"0 -173 OFFCURVE",
"76 -220 OFFCURVE",
"173 -220 CURVE SMOOTH",
"317 -220 OFFCURVE",
"400 -137 OFFCURVE",
"425 -18 CURVE SMOOTH",
"432 16 OFFCURVE",
"439 57 OFFCURVE",
"453 140 CURVE SMOOTH",
"522 530 LINE"
);
},
{
closed = 1;
nodes = (
"128 540 OFFCURVE",
"25 367 OFFCURVE",
"25 199 CURVE SMOOTH",
"25 75 OFFCURVE",
"94 -14 OFFCURVE",
"211 -14 CURVE SMOOTH",
"289 -14 OFFCURVE",
"333 4 OFFCURVE",
"390 60 CURVE",
"441 139 LINE",
"449 238 LINE",
"418 66 OFFCURVE",
"320 7 OFFCURVE",
"216 7 CURVE SMOOTH",
"107 7 OFFCURVE",
"48 89 OFFCURVE",
"48 200 CURVE SMOOTH",
"48 359 OFFCURVE",
"144 519 OFFCURVE",
"306 519 CURVE SMOOTH",
"440 519 OFFCURVE",
"481 422 OFFCURVE",
"459 297 CURVE",
"486 377 LINE",
"461 463 LINE",
"427 518 OFFCURVE",
"387 540 OFFCURVE",
"309 540 CURVE SMOOTH"
);
}
);
width = 545.583;
},
{
anchors = (
{
name = top;
position = "{401, 530}";
}
);
layerId = "F37E1481-2EA3-4843-874F-9D06DA6D7C4C";
leftMetricsKey = d;
rightMetricsKey = d;
name = "Bold Italic";
paths = (
{
closed = 1;
nodes = (
"492 534 LINE",
"412 83 LINE SMOOTH",
"407 54 OFFCURVE",
"402 29 OFFCURVE",
"398 13 CURVE SMOOTH",
"380 -59 OFFCURVE",
"326 -88 OFFCURVE",
"259 -88 CURVE SMOOTH",
"203 -88 OFFCURVE",
"166 -68 OFFCURVE",
"168 -33 CURVE SMOOTH",
"169 -23 LINE",
"-5 -23 LINE",
"-6 -33 LINE SMOOTH",
"-15 -155 OFFCURVE",
"71 -220 OFFCURVE",
"231 -220 CURVE SMOOTH",
"442 -220 OFFCURVE",
"545 -142 OFFCURVE",
"582 33 CURVE SMOOTH",
"588 62 OFFCURVE",
"596 103 OFFCURVE",
"602 136 CURVE SMOOTH",
"672 534 LINE"
);
},
{
closed = 1;
nodes = (
"124 548 OFFCURVE",
"19 379 OFFCURVE",
"19 197 CURVE SMOOTH",
"19 68 OFFCURVE",
"96 -8 OFFCURVE",
"229 -8 CURVE SMOOTH",
"283 -8 OFFCURVE",
"327 3 OFFCURVE",
"360 25 CURVE",
"429 105 LINE",
"443 260 LINE",
"423 150 OFFCURVE",
"368 114 OFFCURVE",
"302 114 CURVE SMOOTH",
"247 114 OFFCURVE",
"209 144 OFFCURVE",
"209 226 CURVE SMOOTH",
"209 332 OFFCURVE",
"269 426 OFFCURVE",
"353 426 CURVE SMOOTH",
"443 426 OFFCURVE",
"459 355 OFFCURVE",
"447 283 CURVE",
"491 435 LINE",
"453 522 LINE",
"429 538 OFFCURVE",
"379 548 OFFCURVE",
"335 548 CURVE SMOOTH"
);
}
);
width = 679.542;
},
{
anchors = (
{
name = top;
position = "{246, 530}";
}
);
associatedMasterId = "518735FF-A855-4455-BD68-071AC00DFA4E";
layerId = "08F919A0-8930-4093-A33F-9DA10B114F23";
name = "Regular Aug 15 13, 12:28";
paths = (
{
closed = 1;
nodes = (
"100 246 OFFCURVE",
"49 219 OFFCURVE",
"49 153 CURVE SMOOTH",
"49 76 OFFCURVE",
"95 51 OFFCURVE",
"196 51 CURVE SMOOTH",
"236 51 LINE SMOOTH",
"260 51 OFFCURVE",
"274 51 OFFCURVE",
"287 50 CURVE SMOOTH",
"338 47 OFFCURVE",
"366 20 OFFCURVE",
"366 -28 CURVE SMOOTH",
"366 -85 OFFCURVE",
"313 -119 OFFCURVE",
"233 -119 CURVE SMOOTH",
"144 -119 OFFCURVE",
"100 -78 OFFCURVE",
"100 -23 CURVE SMOOTH",
"100 27 OFFCURVE",
"134 61 OFFCURVE",
"168 72 CURVE",
"133 82 LINE",
"52 47 LINE",
"24 23 OFFCURVE",
"12 -5 OFFCURVE",
"12 -46 CURVE SMOOTH",
"12 -132 OFFCURVE",
"90 -185 OFFCURVE",
"222 -185 CURVE SMOOTH",
"376 -185 OFFCURVE",
"457 -114 OFFCURVE",
"457 -18 CURVE SMOOTH",
"457 59 OFFCURVE",
"417 116 OFFCURVE",
"314 127 CURVE SMOOTH",
"294 129 OFFCURVE",
"280 129 OFFCURVE",
"258 129 CURVE SMOOTH",
"235 129 LINE SMOOTH",
"204 129 OFFCURVE",
"180 130 OFFCURVE",
"165 132 CURVE SMOOTH",
"136 136 OFFCURVE",
"122 149 OFFCURVE",
"122 174 CURVE SMOOTH",
"122 202 OFFCURVE",
"143 216 OFFCURVE",
"184 228 CURVE",
"142 256 LINE"
);
},
{
closed = 1;
nodes = (
"150 544 OFFCURVE",
"51 486 OFFCURVE",
"51 364 CURVE SMOOTH",
"51 242 OFFCURVE",
"150 184 OFFCURVE",
"246 184 CURVE",
"246 250 LINE",
"181 250 OFFCURVE",
"139 295 OFFCURVE",
"139 364 CURVE SMOOTH",
"139 433 OFFCURVE",
"181 478 OFFCURVE",
"246 478 CURVE",
"246 544 LINE"
);
},
{
closed = 1;
nodes = (
"246 478 LINE",
"311 478 OFFCURVE",
"353 433 OFFCURVE",
"353 364 CURVE SMOOTH",
"353 295 OFFCURVE",
"311 250 OFFCURVE",
"246 250 CURVE",
"246 184 LINE",
"342 184 OFFCURVE",
"441 242 OFFCURVE",
"441 364 CURVE SMOOTH",
"441 486 OFFCURVE",
"342 544 OFFCURVE",
"246 544 CURVE"
);
},
{
closed = 1;
nodes = (
"311 526 LINE",
"374 460 LINE",
"480 460 LINE",
"480 526 LINE"
);
}
);
width = 497;
},
{
anchors = (
{
name = top;
position = "{269, 530}";
}
);
associatedMasterId = "F37E1481-2EA3-4843-874F-9D06DA6D7C4C";
layerId = "22B07598-1A03-4148-AF7E-4552536AC72B";
name = "Bold Aug 17 13, 20:23";
paths = (
{
closed = 1;
nodes = (
"62 207 OFFCURVE",
"34 178 OFFCURVE",
"34 134 CURVE SMOOTH",
"34 54 OFFCURVE",
"108 29 OFFCURVE",
"218 29 CURVE SMOOTH",
"252 29 LINE SMOOTH",
"260 29 OFFCURVE",
"271 29 OFFCURVE",
"283 28 CURVE SMOOTH",
"318 25 OFFCURVE",
"336 15 OFFCURVE",
"336 -18 CURVE SMOOTH",
"336 -49 OFFCURVE",
"309 -67 OFFCURVE",
"254 -67 CURVE SMOOTH",
"199 -67 OFFCURVE",
"164 -46 OFFCURVE",
"164 -11 CURVE SMOOTH",
"164 12 OFFCURVE",
"170 31 OFFCURVE",
"190 48 CURVE",
"155 58 LINE",
"40 40 LINE",
"14 16 OFFCURVE",
"0 -11 OFFCURVE",
"0 -46 CURVE SMOOTH",
"0 -128 OFFCURVE",
"73 -185 OFFCURVE",
"246 -185 CURVE SMOOTH",
"404 -185 OFFCURVE",
"500 -119 OFFCURVE",
"500 -14 CURVE SMOOTH",
"500 72 OFFCURVE",
"449 130 OFFCURVE",
"348 135 CURVE SMOOTH",
"318 137 OFFCURVE",
"302 137 OFFCURVE",
"280 137 CURVE SMOOTH",
"237 137 LINE SMOOTH",
"222 137 OFFCURVE",
"210 137 OFFCURVE",
"195 138 CURVE SMOOTH",
"153 141 OFFCURVE",
"140 154 OFFCURVE",
"140 169 CURVE SMOOTH",
"140 180 OFFCURVE",
"147 190 OFFCURVE",
"162 198 CURVE",
"112 225 LINE"
);
},
{
closed = 1;
nodes = (
"137 544 OFFCURVE",
"42 482 OFFCURVE",
"42 356 CURVE SMOOTH",
"42 230 OFFCURVE",
"137 168 OFFCURVE",
"263 168 CURVE",
"263 278 LINE",
"217 278 OFFCURVE",
"191 312 OFFCURVE",
"191 356 CURVE SMOOTH",
"191 400 OFFCURVE",
"217 434 OFFCURVE",
"263 434 CURVE",
"263 544 LINE"
);
},
{
closed = 1;
nodes = (
"263 434 LINE",
"309 434 OFFCURVE",
"336 400 OFFCURVE",
"336 356 CURVE SMOOTH",
"336 312 OFFCURVE",
"309 278 OFFCURVE",
"263 278 CURVE",
"263 168 LINE",
"389 168 OFFCURVE",
"484 230 OFFCURVE",
"484 356 CURVE SMOOTH",
"484 482 OFFCURVE",
"389 544 OFFCURVE",
"263 544 CURVE"
);
},
{
closed = 1;
nodes = (
"313 526 LINE",
"376 414 LINE",
"515 414 LINE",
"515 526 LINE"
);
}
);
width = 538;
},
{
anchors = (
{
name = top;
position = "{242, 530}";
}
);
associatedMasterId = "4375068D-FDA0-47DA-A897-61BBB4269C7B";
layerId = "B72595FD-738C-433C-9E15-6D67AA440AFF";
name = "Light Aug 17 13, 20:28";
paths = (
{
closed = 1;
nodes = (
"90 205 OFFCURVE",
"74 183 OFFCURVE",
"74 152 CURVE SMOOTH",
"74 100 OFFCURVE",
"119 74 OFFCURVE",
"212 74 CURVE SMOOTH",
"258 74 LINE SMOOTH",
"277 74 OFFCURVE",
"295 74 OFFCURVE",
"318 71 CURVE SMOOTH",
"376 63 OFFCURVE",
"412 31 OFFCURVE",
"412 -32 CURVE SMOOTH",
"412 -119 OFFCURVE",
"327 -164 OFFCURVE",
"231 -164 CURVE SMOOTH",
"137 -164 OFFCURVE",
"54 -129 OFFCURVE",
"54 -43 CURVE SMOOTH",
"54 5 OFFCURVE",
"84 61 OFFCURVE",
"168 79 CURVE",
"131 87 LINE",
"89 69 LINE",
"53 43 OFFCURVE",
"30 0 OFFCURVE",
"30 -43 CURVE SMOOTH",
"30 -144 OFFCURVE",
"120 -185 OFFCURVE",
"231 -185 CURVE SMOOTH",
"349 -185 OFFCURVE",
"436 -123 OFFCURVE",
"436 -31 CURVE SMOOTH",
"436 49 OFFCURVE",
"381 85 OFFCURVE",
"322 93 CURVE SMOOTH",
"300 96 OFFCURVE",
"284 96 OFFCURVE",
"260 96 CURVE SMOOTH",
"218 96 LINE SMOOTH",
"203 96 OFFCURVE",
"184 96 OFFCURVE",
"169 98 CURVE SMOOTH",
"120 105 OFFCURVE",
"98 124 OFFCURVE",
"98 157 CURVE SMOOTH",
"98 176 OFFCURVE",
"109 196 OFFCURVE",
"131 203 CURVE",
"116 220 LINE"
);
},
{
closed = 1;
nodes = (
"133 544 OFFCURVE",
"50 470 OFFCURVE",
"50 354 CURVE SMOOTH",
"50 238 OFFCURVE",
"133 164 OFFCURVE",
"239 164 CURVE",
"239 184 LINE",
"164 184 OFFCURVE",
"74 235 OFFCURVE",
"74 354 CURVE SMOOTH",
"74 473 OFFCURVE",
"164 524 OFFCURVE",
"239 524 CURVE",
"239 544 LINE"
);
},
{
closed = 1;
nodes = (
"239 524 LINE",
"314 524 OFFCURVE",
"407 473 OFFCURVE",
"407 354 CURVE SMOOTH",
"407 235 OFFCURVE",
"314 184 OFFCURVE",
"239 184 CURVE",
"239 164 LINE",
"345 164 OFFCURVE",
"431 238 OFFCURVE",
"431 354 CURVE SMOOTH",
"431 470 OFFCURVE",
"345 544 OFFCURVE",
"239 544 CURVE"
);
},
{
closed = 1;
nodes = (
"294 526 LINE",
"327 505 LINE",
"440 505 LINE",
"440 526 LINE"
);
}
);
width = 483;
}
);
leftKerningGroup = o;
leftMetricsKey = d;
rightKerningGroup = g;
rightMetricsKey = d;
unicode = 0067;
},
{
glyphname = h;
lastChange = "2014-04-12 01:49:03 +0900";
layers = (
{
anchors = (
{
name = center;
position = "{296, 265}";
},
{
name = top;
position = "{343, 530}";
}
);
layerId = "518735FF-A855-4455-BD68-071AC00DFA4E";
name = "Regular Italic";
paths = (
{
closed = 1;
nodes = (
"327 544 OFFCURVE",
"286 535 OFFCURVE",
"235 500 CURVE",
"186 432 LINE",
"155 233 LINE",
"187 414 OFFCURVE",
"267 474 OFFCURVE",
"351 476 CURVE SMOOTH",
"426 478 OFFCURVE",
"454 438 OFFCURVE",
"454 384 CURVE SMOOTH",
"454 363 OFFCURVE",
"451 337 OFFCURVE",
"443 292 CURVE SMOOTH",
"390 0 LINE",
"476 0 LINE",
"530 298 LINE SMOOTH",
"542 362 OFFCURVE",
"543 380 OFFCURVE",
"543 408 CURVE SMOOTH",
"543 491 OFFCURVE",
"489 544 OFFCURVE",
"381 544 CURVE SMOOTH"
);
},
{
closed = 1;
nodes = (
"158 740 LINE",
"28 0 LINE",
"114 0 LINE",
"155 233 LINE",
"244 740 LINE"
);
}
);
width = 595;
},
{
anchors = (
{
name = center;
position = "{262, 265}";
},
{
name = top;
position = "{309, 530}";
}
);
layerId = "4375068D-FDA0-47DA-A897-61BBB4269C7B";
name = "Light Italic";
paths = (
{
closed = 1;
nodes = (
"263 540 OFFCURVE",
"199 517 OFFCURVE",
"150 462 CURVE",
"112 396 LINE",
"101 312 LINE",
"126 450 OFFCURVE",
"223 519 OFFCURVE",
"324 519 CURVE SMOOTH",
"418 519 OFFCURVE",
"458 466 OFFCURVE",
"458 393 CURVE SMOOTH",
"458 361 OFFCURVE",
"454 327 OFFCURVE",
"446 283 CURVE SMOOTH",
"396 0 LINE",
"418 0 LINE",
"470 292 LINE SMOOTH",
"478 339 OFFCURVE",
"481 362 OFFCURVE",
"481 396 CURVE SMOOTH",
"481 485 OFFCURVE",
"428 540 OFFCURVE",
"328 540 CURVE SMOOTH"
);
},
{
closed = 1;
nodes = (
"155 740 LINE",
"25 0 LINE",
"47 0 LINE",
"101 312 LINE",
"177 740 LINE"
);
}
);
width = 531;
},
{
anchors = (
{
name = center;
position = "{321, 265}";
},
{
name = top;
position = "{368, 530}";
}
);
layerId = "F37E1481-2EA3-4843-874F-9D06DA6D7C4C";
name = "Bold Italic";
paths = (
{
closed = 1;
nodes = (
"405 548 OFFCURVE",
"365 537 OFFCURVE",
"328 517 CURVE",
"252 442 LINE",
"231 248 LINE",
"253 369 OFFCURVE",
"298 426 OFFCURVE",
"355 426 CURVE SMOOTH",
"408 426 OFFCURVE",
"426 396 OFFCURVE",
"426 351 CURVE SMOOTH",
"426 332 OFFCURVE",
"422 303 OFFCURVE",
"416 268 CURVE SMOOTH",
"368 0 LINE",
"548 0 LINE",
"603 308 LINE SMOOTH",
"611 353 OFFCURVE",
"615 383 OFFCURVE",
"615 411 CURVE SMOOTH",
"615 490 OFFCURVE",
"563 548 OFFCURVE",
"454 548 CURVE SMOOTH"
);
},
{
closed = 1;
nodes = (
"138 740 LINE",
"8 0 LINE",
"188 0 LINE",
"231 248 LINE",
"318 740 LINE"
);
}
);
width = 643;
}
);
leftKerningGroup = h;
rightKerningGroup = h;
unicode = 0068;
},
{
glyphname = hbar;
lastChange = "2014-08-20 09:23:21 +0900";
layers = (
{
components = (
{
name = h;
transform = "{1, 0, 0, 1, 18, 0}";
}
);
layerId = "518735FF-A855-4455-BD68-071AC00DFA4E";
name = "Regular Italic";
paths = (
{
closed = 1;
nodes = (
"102 651 LINE",
"92 595 LINE",
"338 595 LINE",
"348 651 LINE"
);
}
);
width = 613;
},
{
components = (
{
name = h;
transform = "{1, 0, 0, 1, 15, 0}";
}
);
layerId = "4375068D-FDA0-47DA-A897-61BBB4269C7B";
name = "Light Italic";
paths = (
{
closed = 1;
nodes = (
"97 634 LINE",
"93 613 LINE",
"274 613 LINE",
"278 634 LINE"
);
}
);
width = 546;
},
{
components = (
{
name = h;
transform = "{1, 0, 0, 1, 13, 0}";
}
);
layerId = "F37E1481-2EA3-4843-874F-9D06DA6D7C4C";
name = "Bold Italic";
paths = (
{
closed = 1;
nodes = (
"86 671 LINE",
"69 575 LINE",
"407 575 LINE",
"424 671 LINE"
);
}
);
width = 656;
}
);
leftMetricsKey = "=h-40";
rightKerningGroup = h;
rightMetricsKey = h;
unicode = 0127;
},
{
glyphname = dotlessi;
lastChange = "2014-08-20 09:23:21 +0900";
layers = (
{
anchors = (
{
name = ogonek;
position = "{28, 0}";
},
{
name = top;
position = "{165, 530}";
}
);
layerId = "518735FF-A855-4455-BD68-071AC00DFA4E";
name = "Regular Italic";
paths = (
{
closed = 1;
nodes = (
"122 530 LINE",
"28 0 LINE",
"114 0 LINE",
"208 530 LINE"
);
}
);
width = 234.275;
},
{
anchors = (
{
name = ogonek;
position = "{24, 0}";
},
{
name = top;
position = "{129, 530}";
}
);
layerId = "4375068D-FDA0-47DA-A897-61BBB4269C7B";
name = "Light Italic";
paths = (
{
closed = 1;
nodes = (
"117 526 LINE",
"24 0 LINE",
"46 0 LINE",
"139 526 LINE"
);
}
);
width = 162.976;
},
{
anchors = (
{
name = ogonek;
position = "{8, 0}";
},
{
name = top;
position = "{195, 530}";
}
);
layerId = "F37E1481-2EA3-4843-874F-9D06DA6D7C4C";
name = "Bold Italic";
paths = (
{
closed = 1;
nodes = (
"103 534 LINE",
"8 0 LINE",
"188 0 LINE",
"283 534 LINE"
);
}
);
width = 290.364;
}
);
leftKerningGroup = i;
leftMetricsKey = n;
rightKerningGroup = i;
rightMetricsKey = d;
unicode = 0131;
},
{
glyphname = j;
lastChange = "2014-04-11 16:09:59 +0900";
layers = (
{
layerId = "4375068D-FDA0-47DA-A897-61BBB4269C7B";
name = "Light Italic";
paths = (
{
closed = 1;
nodes = (
"126 526 LINE",
"19 -84 LINE SMOOTH",
"16 -100 OFFCURVE",
"14 -109 OFFCURVE",
"10 -123 CURVE SMOOTH",
"-5 -181 OFFCURVE",
"-38 -198 OFFCURVE",
"-95 -187 CURVE",
"-99 -206 LINE",
"-86 -209 OFFCURVE",
"-75 -210 OFFCURVE",
"-64 -210 CURVE SMOOTH",
"-22 -210 OFFCURVE",
"15 -188 OFFCURVE",
"31 -125 CURVE SMOOTH",
"36 -107 OFFCURVE",
"39 -93 OFFCURVE",
"43 -73 CURVE SMOOTH",
"148 526 LINE"
);
},
{
closed = 1;
nodes = (
"143 653 OFFCURVE",
"132 644 OFFCURVE",
"132 630 CURVE SMOOTH",
"132 621 OFFCURVE",
"139 613 OFFCURVE",
"149 613 CURVE SMOOTH",
"161 613 OFFCURVE",
"172 622 OFFCURVE",
"172 636 CURVE SMOOTH",
"172 645 OFFCURVE",
"165 653 OFFCURVE",
"155 653 CURVE SMOOTH"
);
}
);
width = 151;
},
{
layerId = "F37E1481-2EA3-4843-874F-9D06DA6D7C4C";
name = "Bold Italic";
paths = (
{
closed = 1;
nodes = (
"86 534 LINE",
"-5 15 LINE SMOOTH",
"-8 0 OFFCURVE",
"-12 -19 OFFCURVE",
"-16 -33 CURVE SMOOTH",
"-29 -79 OFFCURVE",
"-60 -92 OFFCURVE",
"-125 -85 CURVE",
"-146 -206 LINE",
"-129 -209 OFFCURVE",
"-108 -210 OFFCURVE",
"-87 -210 CURVE SMOOTH",
"68 -210 OFFCURVE",
"137 -148 OFFCURVE",
"161 -48 CURVE SMOOTH",
"166 -30 OFFCURVE",
"172 -4 OFFCURVE",
"175 16 CURVE SMOOTH",
"266 534 LINE"
);
},
{
closed = 1;
nodes = (
"139 751 OFFCURVE",
"104 717 OFFCURVE",
"104 648 CURVE SMOOTH",
"104 603 OFFCURVE",
"135 575 OFFCURVE",
"193 575 CURVE SMOOTH",
"259 575 OFFCURVE",
"294 609 OFFCURVE",
"294 678 CURVE SMOOTH",
"294 723 OFFCURVE",
"263 751 OFFCURVE",
"205 751 CURVE SMOOTH"
);
}
);
width = 270;
},
{
layerId = "518735FF-A855-4455-BD68-071AC00DFA4E";
name = "Regular Italic";
paths = (
{
closed = 1;
nodes = (
"107 530 LINE",
"7 -40 LINE SMOOTH",
"2 -67 OFFCURVE",
"-1 -81 OFFCURVE",
"-6 -95 CURVE SMOOTH",
"-17 -128 OFFCURVE",
"-46 -144 OFFCURVE",
"-92 -138 CURVE",
"-105 -208 LINE",
"-92 -210 OFFCURVE",
"-80 -210 OFFCURVE",
"-64 -210 CURVE SMOOTH",
"18 -210 OFFCURVE",
"59 -174 OFFCURVE",
"78 -110 CURVE SMOOTH",
"83 -92 OFFCURVE",
"88 -66 OFFCURVE",
"92 -46 CURVE SMOOTH",
"193 530 LINE"
);
},
{
closed = 1;
nodes = (
"142 704 OFFCURVE",
"113 676 OFFCURVE",
"113 640 CURVE SMOOTH",
"113 614 OFFCURVE",
"132 594 OFFCURVE",
"160 594 CURVE SMOOTH",
"196 594 OFFCURVE",
"225 622 OFFCURVE",
"225 658 CURVE SMOOTH",
"225 684 OFFCURVE",
"206 704 OFFCURVE",
"178 704 CURVE SMOOTH"
);
}
);
width = 203;
}
);
unicode = 006A;
},
{
glyphname = k;
lastChange = "2014-08-20 09:23:21 +0900";
layers = (
{
anchors = (
{
name = bottom;
position = "{227, 0}";
}
);
layerId = "518735FF-A855-4455-BD68-071AC00DFA4E";
name = "Regular Italic";
paths = (
{
closed = 1;
nodes = (
"455 530 LINE",
"157 265 LINE",
"140 169 LINE",
"222 241 LINE",
"196 253 LINE",
"371 0 LINE",
"474 0 LINE",
"244 321 LINE",
"228 240 LINE",
"565 530 LINE"
);
},
{
closed = 1;
nodes = (
"158 735 LINE",
"28 0 LINE",
"114 0 LINE",
"244 735 LINE"
);
}
);
width = 517.036;
},
{
anchors = (
{
name = bottom;
position = "{183, 0}";
}
);
layerId = "4375068D-FDA0-47DA-A897-61BBB4269C7B";
name = "Light Italic";
paths = (
{
closed = 1;
nodes = (
"439 526 LINE",
"88 246 LINE",
"85 219 LINE",
"144 266 LINE",
"136 268 LINE",
"369 0 LINE",
"398 0 LINE",
"152 283 LINE",
"148 268 LINE",
"474 526 LINE"
);
},
{
closed = 1;
nodes = (
"155 735 LINE",
"25 0 LINE",
"47 0 LINE",
"177 735 LINE"
);
}
);
width = 473.036;
},
{
anchors = (
{
name = bottom;
position = "{276, 0}";
}
);
layerId = "F37E1481-2EA3-4843-874F-9D06DA6D7C4C";
name = "Bold Italic";
paths = (
{
closed = 1;
nodes = (
"470 534 LINE",
"231 299 LINE",
"204 145 LINE",
"280 211 LINE",
"242 243 LINE",
"389 0 LINE",
"608 0 LINE",
"378 333 LINE",
"362 240 LINE",
"681 534 LINE"
);
},
{
closed = 1;
nodes = (
"138 735 LINE",
"8 0 LINE",
"188 0 LINE",
"318 735 LINE"
);
}
);
width = 641.036;
}
);
leftKerningGroup = h;
leftMetricsKey = h;
rightKerningGroup = k;
unicode = 006B;
},
{
glyphname = l;
lastChange = "2014-04-12 01:45:58 +0900";
layers = (
{
anchors = (
{
name = bottom;
position = "{77, 0}";
},
{
name = top;
position = "{196, 735}";
},
{
name = topright;
position = "{261, 530}";
}
);
layerId = "518735FF-A855-4455-BD68-071AC00DFA4E";
name = "Regular Italic";
paths = (
{
closed = 1;
nodes = (
"153 735 LINE",
"50 149 LINE SMOOTH",
"40 95 OFFCURVE",
"37 76 OFFCURVE",
"37 61 CURVE SMOOTH",
"37 9 OFFCURVE",
"69 -4 OFFCURVE",
"114 -4 CURVE SMOOTH",
"134 -4 OFFCURVE",
"156 -3 OFFCURVE",
"176 0 CURVE",
"187 63 LINE",
"147 59 OFFCURVE",
"129 65 OFFCURVE",
"129 100 CURVE SMOOTH",
"129 112 OFFCURVE",
"131 125 OFFCURVE",
"136 152 CURVE SMOOTH",
"239 735 LINE"
);
}
);
width = 248;
},
{
anchors = (
{
name = bottom;
position = "{66, 0}";
},
{
name = top;
position = "{162, 735}";
},
{
name = topright;
position = "{191, 530}";
}
);
layerId = "4375068D-FDA0-47DA-A897-61BBB4269C7B";
name = "Light Italic";
paths = (
{
closed = 1;
nodes = (
"151 735 LINE",
"43 120 LINE SMOOTH",
"32 58 OFFCURVE",
"30 45 OFFCURVE",
"30 34 CURVE SMOOTH",
"30 4 OFFCURVE",
"47 -5 OFFCURVE",
"71 -5 CURVE SMOOTH",
"81 -5 OFFCURVE",
"90 -5 OFFCURVE",
"100 -3 CURVE",
"104 16 LINE",
"66 11 OFFCURVE",
"53 17 OFFCURVE",
"53 40 CURVE SMOOTH",
"53 49 OFFCURVE",
"54 60 OFFCURVE",
"65 120 CURVE SMOOTH",
"173 735 LINE"
);
}
);
width = 175;
},
{
anchors = (
{
name = bottom;
position = "{116, 0}";
},
{
name = top;
position = "{217, 738}";
},
{
name = topright;
position = "{344, 530}";
}
);
layerId = "F37E1481-2EA3-4843-874F-9D06DA6D7C4C";
name = "Bold Italic";
paths = (
{
closed = 1;
nodes = (
"135 735 LINE",
"37 189 LINE SMOOTH",
"28 139 OFFCURVE",
"23 102 OFFCURVE",
"23 72 CURVE SMOOTH",
"23 14 OFFCURVE",
"62 -10 OFFCURVE",
"148 -10 CURVE SMOOTH",
"188 -10 OFFCURVE",
"216 -8 OFFCURVE",
"244 -4 CURVE",
"264 107 LINE",
"225 105 OFFCURVE",
"211 110 OFFCURVE",
"211 138 CURVE SMOOTH",
"211 152 OFFCURVE",
"214 170 OFFCURVE",
"218 192 CURVE SMOOTH",
"315 735 LINE"
);
}
);
width = 306;
}
);
leftKerningGroup = l;
rightKerningGroup = l;
unicode = 006C;
},
{
glyphname = ldot;
lastChange = "2014-08-20 09:40:27 +0900";
layers = (
{
components = (
{
name = l;
transform = "{1, 0, 0, 1, 0, 0}";
}
);
layerId = "4375068D-FDA0-47DA-A897-61BBB4269C7B";
name = "Light Italic";
paths = (
{
closed = 1;
nodes = (
"171 420 OFFCURVE",
"160 411 OFFCURVE",
"160 397 CURVE SMOOTH",
"160 388 OFFCURVE",
"167 380 OFFCURVE",
"177 380 CURVE SMOOTH",
"189 380 OFFCURVE",
"200 389 OFFCURVE",
"200 403 CURVE SMOOTH",
"200 412 OFFCURVE",
"193 420 OFFCURVE",
"183 420 CURVE SMOOTH"
);
}
);
width = 191;
},
{
components = (
{
name = l;
transform = "{1, 0, 0, 1, 0, 0}";
}
);
layerId = "518735FF-A855-4455-BD68-071AC00DFA4E";
name = "Regular Italic";
paths = (
{
closed = 1;
nodes = (
"267 455 OFFCURVE",
"238 427 OFFCURVE",
"238 391 CURVE SMOOTH",
"238 365 OFFCURVE",
"257 345 OFFCURVE",
"285 345 CURVE SMOOTH",
"321 345 OFFCURVE",
"350 373 OFFCURVE",
"350 409 CURVE SMOOTH",
"350 435 OFFCURVE",
"331 455 OFFCURVE",
"303 455 CURVE SMOOTH"
);
}
);
width = 338;
},
{
components = (
{
name = l;
transform = "{1, 0, 0, 1, 0, 0}";
}
);
layerId = "F37E1481-2EA3-4843-874F-9D06DA6D7C4C";
name = "Bold Italic";
paths = (
{
closed = 1;
nodes = (
"344 502 OFFCURVE",
"295 454 OFFCURVE",
"295 379 CURVE SMOOTH",
"295 328 OFFCURVE",
"334 302 OFFCURVE",
"379 302 CURVE SMOOTH",
"450 302 OFFCURVE",
"499 350 OFFCURVE",
"499 425 CURVE SMOOTH",
"499 476 OFFCURVE",
"461 502 OFFCURVE",
"415 502 CURVE SMOOTH"
);
}
);
width = 476;
}
);
leftKerningGroup = l;
leftMetricsKey = l;
rightKerningGroup = l;
unicode = 0140;
},
{
glyphname = lslash;
lastChange = "2014-08-20 09:23:21 +0900";
layers = (
{
components = (
{
disableAlignment = 1;
name = l;
transform = "{1, 0, 0, 1, 26, 0}";
}
);
layerId = "518735FF-A855-4455-BD68-071AC00DFA4E";
name = "Regular Italic";
paths = (
{
closed = 1;
nodes = (
"37 292 LINE",
"25 225 LINE",
"264 353 LINE",
"276 420 LINE"
);
}
);
width = 284;
},
{
components = (
{
disableAlignment = 1;
name = l;
transform = "{1, 0, 0, 1, 22, 0}";
}
);
layerId = "4375068D-FDA0-47DA-A897-61BBB4269C7B";
name = "Light Italic";
paths = (
{
closed = 1;
nodes = (
"34 286 LINE",
"29 260 LINE",
"183 358 LINE",
"187 384 LINE"
);
}
);
width = 207;
},
{
components = (
{
disableAlignment = 1;
name = l;
transform = "{1, 0, 0, 1, 23, 0}";
}
);
layerId = "F37E1481-2EA3-4843-874F-9D06DA6D7C4C";
name = "Bold Italic";
paths = (
{
closed = 1;
nodes = (
"16 287 LINE",
"-5 168 LINE",
"328 358 LINE",
"349 477 LINE"
);
}
);
width = 339;
}
);
leftMetricsKey = "=l-38";
rightMetricsKey = "=l+10";
unicode = 0142;
},
{
glyphname = m;
lastChange = "2014-08-20 09:23:21 +0900";
layers = (
{
layerId = "518735FF-A855-4455-BD68-071AC00DFA4E";
name = "Regular Italic";
paths = (
{
closed = 1;
nodes = (
"621 544 OFFCURVE",
"581 535 OFFCURVE",
"550 513 CURVE",
"476 427 LINE",
"472 262 LINE",
"495 393 OFFCURVE",
"559 476 OFFCURVE",
"626 476 CURVE SMOOTH",
"683 476 OFFCURVE",
"716 449 OFFCURVE",
"716 394 CURVE SMOOTH",
"716 365 OFFCURVE",
"711 335 OFFCURVE",
"702 284 CURVE SMOOTH",
"652 0 LINE",
"738 0 LINE",
"795 324 LINE SMOOTH",
"803 368 OFFCURVE",
"806 389 OFFCURVE",
"806 417 CURVE SMOOTH",
"806 489 OFFCURVE",
"762 544 OFFCURVE",
"668 544 CURVE SMOOTH"
);
},
{
closed = 1;
nodes = (
"121 530 LINE",
"28 0 LINE",
"114 0 LINE",
"160 262 LINE",
"207 530 LINE"
);
},
{
closed = 1;
nodes = (
"309 544 OFFCURVE",
"269 535 OFFCURVE",
"238 513 CURVE",
"189 446 LINE",
"160 262 LINE",
"183 393 OFFCURVE",
"247 476 OFFCURVE",
"314 476 CURVE SMOOTH",
"371 476 OFFCURVE",
"404 449 OFFCURVE",
"404 394 CURVE SMOOTH",
"404 365 OFFCURVE",
"399 335 OFFCURVE",
"390 284 CURVE SMOOTH",
"340 0 LINE",
"426 0 LINE",
"472 262 LINE",
"483 324 LINE SMOOTH",
"491 368 OFFCURVE",
"494 389 OFFCURVE",
"494 417 CURVE SMOOTH",
"494 489 OFFCURVE",
"450 544 OFFCURVE",
"356 544 CURVE SMOOTH"
);
}
);
width = 855.412;
},
{
layerId = "4375068D-FDA0-47DA-A897-61BBB4269C7B";
name = "Light Italic";
paths = (
{
closed = 1;
nodes = (
"575 540 OFFCURVE",
"523 518 OFFCURVE",
"479 471 CURVE",
"426 389 LINE",
"425 302 LINE",
"451 452 OFFCURVE",
"537 520 OFFCURVE",
"625 520 CURVE SMOOTH",
"704 520 OFFCURVE",
"737 475 OFFCURVE",
"737 391 CURVE SMOOTH",
"737 353 OFFCURVE",
"733 329 OFFCURVE",
"725 283 CURVE SMOOTH",
"675 0 LINE",
"697 0 LINE",
"748 292 LINE SMOOTH",
"757 346 OFFCURVE",
"760 357 OFFCURVE",
"760 401 CURVE SMOOTH",
"760 487 OFFCURVE",
"717 540 OFFCURVE",
"630 540 CURVE SMOOTH"
);
},
{
closed = 1;
nodes = (
"117 526 LINE",
"25 0 LINE",
"47 0 LINE",
"100 302 LINE",
"139 526 LINE"
);
},
{
closed = 1;
nodes = (
"250 540 OFFCURVE",
"198 518 OFFCURVE",
"154 471 CURVE",
"114 404 LINE",
"100 302 LINE",
"126 452 OFFCURVE",
"212 520 OFFCURVE",
"300 520 CURVE SMOOTH",
"382 520 OFFCURVE",
"412 477 OFFCURVE",
"412 391 CURVE SMOOTH",
"412 359 OFFCURVE",
"409 336 OFFCURVE",
"400 283 CURVE SMOOTH",
"350 0 LINE",
"372 0 LINE",
"425 302 LINE",
"426 319 LINE SMOOTH",
"428 348 OFFCURVE",
"435 359 OFFCURVE",
"435 401 CURVE SMOOTH",
"435 488 OFFCURVE",
"392 540 OFFCURVE",
"305 540 CURVE SMOOTH"
);
}
);
width = 809.487;
},
{
layerId = "F37E1481-2EA3-4843-874F-9D06DA6D7C4C";
name = "Bold Italic";
paths = (
{
closed = 1;
nodes = (
"726 548 OFFCURVE",
"687 540 OFFCURVE",
"644 509 CURVE",
"584 442 LINE",
"580 282 LINE",
"595 369 OFFCURVE",
"642 426 OFFCURVE",
"692 426 CURVE SMOOTH",
"730 426 OFFCURVE",
"749 400 OFFCURVE",
"749 355 CURVE SMOOTH",
"749 331 OFFCURVE",
"744 296 OFFCURVE",
"740 272 CURVE SMOOTH",
"692 0 LINE",
"872 0 LINE",
"927 312 LINE SMOOTH",
"935 356 OFFCURVE",
"940 388 OFFCURVE",
"940 415 CURVE SMOOTH",
"940 487 OFFCURVE",
"891 548 OFFCURVE",
"775 548 CURVE SMOOTH"
);
},
{
closed = 1;
nodes = (
"102 534 LINE",
"8 0 LINE",
"188 0 LINE",
"238 282 LINE",
"282 534 LINE"
);
},
{
closed = 1;
nodes = (
"394 548 OFFCURVE",
"359 537 OFFCURVE",
"322 517 CURVE",
"262 452 LINE",
"238 282 LINE",
"254 373 OFFCURVE",
"296 426 OFFCURVE",
"344 426 CURVE SMOOTH",
"388 426 OFFCURVE",
"407 400 OFFCURVE",
"407 355 CURVE SMOOTH",
"407 333 OFFCURVE",
"402 300 OFFCURVE",
"398 272 CURVE SMOOTH",
"350 0 LINE",
"530 0 LINE",
"580 282 LINE",
"585 312 LINE SMOOTH",
"592 356 OFFCURVE",
"598 388 OFFCURVE",
"598 415 CURVE SMOOTH",
"598 487 OFFCURVE",
"549 548 OFFCURVE",
"443 548 CURVE SMOOTH"
);
}
);
width = 966.336;
}
);
leftKerningGroup = n;
leftMetricsKey = h;
rightKerningGroup = h;
rightMetricsKey = h;
unicode = 006D;
},
{
glyphname = n;
lastChange = "2014-08-20 09:23:21 +0900";
layers = (
{
anchors = (
{
name = bottom;
position = "{250, 0}";
},
{
name = top;
position = "{352, 530}";
}
);
layerId = "518735FF-A855-4455-BD68-071AC00DFA4E";
name = "Regular Italic";
paths = (
{
closed = 1;
nodes = (
"327 544 OFFCURVE",
"286 535 OFFCURVE",
"235 500 CURVE",
"186 432 LINE",
"155 233 LINE",
"187 414 OFFCURVE",
"267 474 OFFCURVE",
"351 476 CURVE SMOOTH",
"426 478 OFFCURVE",
"454 438 OFFCURVE",
"454 384 CURVE SMOOTH",
"454 363 OFFCURVE",
"451 337 OFFCURVE",
"443 292 CURVE SMOOTH",
"390 0 LINE",
"476 0 LINE",
"530 298 LINE SMOOTH",
"542 362 OFFCURVE",
"543 380 OFFCURVE",
"543 408 CURVE SMOOTH",
"543 491 OFFCURVE",
"489 544 OFFCURVE",
"381 544 CURVE SMOOTH"
);
},
{
closed = 1;
nodes = (
"121 530 LINE",
"28 0 LINE",
"114 0 LINE",
"155 233 LINE",
"207 530 LINE"
);
}
);
width = 595;
},
{
anchors = (
{
name = bottom;
position = "{216, 0}";
},
{
name = top;
position = "{309, 530}";
}
);
layerId = "4375068D-FDA0-47DA-A897-61BBB4269C7B";
name = "Light Italic";
paths = (
{
closed = 1;
nodes = (
"263 540 OFFCURVE",
"199 517 OFFCURVE",
"150 462 CURVE",
"112 396 LINE",
"101 312 LINE",
"126 450 OFFCURVE",
"223 519 OFFCURVE",
"324 519 CURVE SMOOTH",
"418 519 OFFCURVE",
"458 466 OFFCURVE",
"458 393 CURVE SMOOTH",
"458 361 OFFCURVE",
"454 327 OFFCURVE",
"446 283 CURVE SMOOTH",
"396 0 LINE",
"418 0 LINE",
"470 292 LINE SMOOTH",
"478 339 OFFCURVE",
"481 362 OFFCURVE",
"481 396 CURVE SMOOTH",
"481 485 OFFCURVE",
"428 540 OFFCURVE",
"328 540 CURVE SMOOTH"
);
},
{
closed = 1;
nodes = (
"117 526 LINE",
"25 0 LINE",
"47 0 LINE",
"101 312 LINE",
"139 526 LINE"
);
}
);
width = 531;
},
{
anchors = (
{
name = bottom;
position = "{275, 0}";
},
{
name = top;
position = "{368, 530}";
}
);
layerId = "F37E1481-2EA3-4843-874F-9D06DA6D7C4C";
name = "Bold Italic";
paths = (
{
closed = 1;
nodes = (
"405 548 OFFCURVE",
"365 537 OFFCURVE",
"328 517 CURVE",
"252 442 LINE",
"231 248 LINE",
"253 369 OFFCURVE",
"298 426 OFFCURVE",
"355 426 CURVE SMOOTH",
"408 426 OFFCURVE",
"426 396 OFFCURVE",
"426 351 CURVE SMOOTH",
"426 332 OFFCURVE",
"422 303 OFFCURVE",
"416 268 CURVE SMOOTH",
"368 0 LINE",
"548 0 LINE",
"603 308 LINE SMOOTH",
"611 353 OFFCURVE",
"615 383 OFFCURVE",
"615 411 CURVE SMOOTH",
"615 490 OFFCURVE",
"563 548 OFFCURVE",
"454 548 CURVE SMOOTH"
);
},
{
closed = 1;
nodes = (
"102 534 LINE",
"8 0 LINE",
"188 0 LINE",
"231 248 LINE",
"282 534 LINE"
);
}
);
width = 643;
}
);
leftKerningGroup = n;
leftMetricsKey = h;
rightKerningGroup = h;
rightMetricsKey = h;
unicode = 006E;
},
{
glyphname = eng;
lastChange = "2014-08-20 09:23:21 +0900";
layers = (
{
layerId = "518735FF-A855-4455-BD68-071AC00DFA4E";
name = "Regular Italic";
paths = (
{
closed = 1;
nodes = (
"327 544 OFFCURVE",
"286 535 OFFCURVE",
"235 500 CURVE",
"186 432 LINE",
"155 233 LINE",
"187 414 OFFCURVE",
"267 474 OFFCURVE",
"351 476 CURVE SMOOTH",
"426 478 OFFCURVE",
"454 438 OFFCURVE",
"454 384 CURVE SMOOTH",
"454 363 OFFCURVE",
"451 337 OFFCURVE",
"443 292 CURVE SMOOTH",
"384 -34 LINE SMOOTH",
"375 -82 OFFCURVE",
"355 -104 OFFCURVE",
"301 -104 CURVE",
"289 -174 LINE",
"378 -174 OFFCURVE",
"428 -164 OFFCURVE",
"460 -69 CURVE SMOOTH",
"465 -55 OFFCURVE",
"469 -38 OFFCURVE",
"473 -18 CURVE SMOOTH",
"530 298 LINE SMOOTH",
"542 362 OFFCURVE",
"543 380 OFFCURVE",
"543 408 CURVE SMOOTH",
"543 491 OFFCURVE",
"489 544 OFFCURVE",
"381 544 CURVE SMOOTH"
);
},
{
closed = 1;
nodes = (
"121 530 LINE",
"28 0 LINE",
"114 0 LINE",
"155 233 LINE",
"207 530 LINE"
);
}
);
width = 595;
},
{
layerId = "4375068D-FDA0-47DA-A897-61BBB4269C7B";
name = "Light Italic";
paths = (
{
closed = 1;
nodes = (
"263 540 OFFCURVE",
"199 517 OFFCURVE",
"150 462 CURVE",
"112 396 LINE",
"101 312 LINE",
"126 450 OFFCURVE",
"223 519 OFFCURVE",
"324 519 CURVE SMOOTH",
"418 519 OFFCURVE",
"458 466 OFFCURVE",
"458 393 CURVE SMOOTH",
"458 361 OFFCURVE",
"454 327 OFFCURVE",
"446 283 CURVE SMOOTH",
"390 -34 LINE SMOOTH",
"374 -126 OFFCURVE",
"330 -153 OFFCURVE",
"253 -153 CURVE",
"250 -174 LINE",
"337 -171 OFFCURVE",
"387 -140 OFFCURVE",
"407 -59 CURVE SMOOTH",
"410 -45 OFFCURVE",
"412 -36 OFFCURVE",
"415 -18 CURVE SMOOTH",
"470 292 LINE SMOOTH",
"478 339 OFFCURVE",
"481 362 OFFCURVE",
"481 396 CURVE SMOOTH",
"481 485 OFFCURVE",
"428 540 OFFCURVE",
"328 540 CURVE SMOOTH"
);
},
{
closed = 1;
nodes = (
"117 526 LINE",
"25 0 LINE",
"47 0 LINE",
"101 312 LINE",
"139 526 LINE"
);
}
);
width = 531;
},
{
layerId = "F37E1481-2EA3-4843-874F-9D06DA6D7C4C";
name = "Bold Italic";
paths = (
{
closed = 1;
nodes = (
"405 548 OFFCURVE",
"365 537 OFFCURVE",
"328 517 CURVE",
"252 442 LINE",
"231 248 LINE",
"253 369 OFFCURVE",
"298 426 OFFCURVE",
"355 426 CURVE SMOOTH",
"408 426 OFFCURVE",
"426 396 OFFCURVE",
"426 351 CURVE SMOOTH",
"426 332 OFFCURVE",
"422 303 OFFCURVE",
"416 268 CURVE SMOOTH",
"368 0 LINE SMOOTH",
"362 -30 OFFCURVE",
"345 -42 OFFCURVE",
"286 -42 CURVE",
"263 -174 LINE",
"434 -174 OFFCURVE",
"499 -152 OFFCURVE",
"533 -64 CURVE SMOOTH",
"538 -50 OFFCURVE",
"541 -39 OFFCURVE",
"545 -18 CURVE SMOOTH",
"603 308 LINE SMOOTH",
"611 353 OFFCURVE",
"615 383 OFFCURVE",
"615 411 CURVE SMOOTH",
"615 490 OFFCURVE",
"563 548 OFFCURVE",
"454 548 CURVE SMOOTH"
);
},
{
closed = 1;
nodes = (
"102 534 LINE",
"8 0 LINE",
"188 0 LINE",
"231 248 LINE",
"282 534 LINE"
);
}
);
width = 643;
}
);
leftKerningGroup = n;
leftMetricsKey = n;
rightKerningGroup = h;
rightMetricsKey = n;
unicode = 014B;
},
{
glyphname = o;
lastChange = "2014-04-12 01:45:58 +0900";
layers = (
{
anchors = (
{
name = top;
position = "{341, 530}";
}
);
layerId = "518735FF-A855-4455-BD68-071AC00DFA4E";
name = "Regular Italic";
paths = (
{
closed = 1;
nodes = (
"322 478 LINE",
"422 478 OFFCURVE",
"466 401 OFFCURVE",
"466 308 CURVE SMOOTH",
"466 187 OFFCURVE",
"398 52 OFFCURVE",
"266 52 CURVE",
"255 -14 LINE",
"471 -14 OFFCURVE",
"560 167 OFFCURVE",
"560 310 CURVE SMOOTH",
"560 431 OFFCURVE",
"497 544 OFFCURVE",
"333 544 CURVE"
);
},
{
closed = 1;
nodes = (
"117 544 OFFCURVE",
"28 363 OFFCURVE",
"28 220 CURVE SMOOTH",
"28 99 OFFCURVE",
"91 -14 OFFCURVE",
"255 -14 CURVE",
"266 52 LINE",
"166 52 OFFCURVE",
"122 129 OFFCURVE",
"122 222 CURVE SMOOTH",
"122 343 OFFCURVE",
"190 478 OFFCURVE",
"322 478 CURVE",
"333 544 LINE"
);
}
);
width = 588;
},
{
anchors = (
{
name = top;
position = "{322, 530}";
}
);
layerId = "4375068D-FDA0-47DA-A897-61BBB4269C7B";
name = "Light Italic";
paths = (
{
closed = 1;
nodes = (
"310 519 LINE",
"419 519 OFFCURVE",
"501 445 OFFCURVE",
"501 312 CURVE SMOOTH",
"501 182 OFFCURVE",
"415 7 OFFCURVE",
"240 7 CURVE",
"236 -14 LINE",
"437 -14 OFFCURVE",
"524 178 OFFCURVE",
"524 312 CURVE SMOOTH",
"524 442 OFFCURVE",
"452 540 OFFCURVE",
"314 540 CURVE"
);
},
{
closed = 1;
nodes = (
"113 540 OFFCURVE",
"26 348 OFFCURVE",
"26 214 CURVE SMOOTH",
"26 84 OFFCURVE",
"98 -14 OFFCURVE",
"236 -14 CURVE",
"240 7 LINE",
"131 7 OFFCURVE",
"49 81 OFFCURVE",
"49 214 CURVE SMOOTH",
"49 344 OFFCURVE",
"135 519 OFFCURVE",
"310 519 CURVE",
"314 540 LINE"
);
}
);
width = 551;
},
{
anchors = (
{
name = top;
position = "{367, 530}";
}
);
layerId = "F37E1481-2EA3-4843-874F-9D06DA6D7C4C";
name = "Bold Italic";
paths = (
{
closed = 1;
nodes = (
"342 426 LINE",
"400 426 OFFCURVE",
"427 376 OFFCURVE",
"427 306 CURVE SMOOTH",
"427 205 OFFCURVE",
"384 108 OFFCURVE",
"298 108 CURVE",
"285 -14 LINE",
"504 -14 OFFCURVE",
"617 138 OFFCURVE",
"617 310 CURVE SMOOTH",
"617 451 OFFCURVE",
"528 548 OFFCURVE",
"355 548 CURVE"
);
},
{
closed = 1;
nodes = (
"136 548 OFFCURVE",
"23 396 OFFCURVE",
"23 224 CURVE SMOOTH",
"23 83 OFFCURVE",
"112 -14 OFFCURVE",
"285 -14 CURVE",
"298 108 LINE",
"240 108 OFFCURVE",
"213 158 OFFCURVE",
"213 228 CURVE SMOOTH",
"213 329 OFFCURVE",
"256 426 OFFCURVE",
"342 426 CURVE",
"355 548 LINE"
);
}
);
width = 639;
}
);
leftKerningGroup = o;
rightKerningGroup = o;
unicode = 006F;
},
{
glyphname = oslash;
lastChange = "2014-08-20 09:23:21 +0900";
layers = (
{
anchors = (
{
name = top;
position = "{344, 530}";
}
);
components = (
{
name = o;
transform = "{1, 0, 0, 1, 16, 0}";
}
);
layerId = "4375068D-FDA0-47DA-A897-61BBB4269C7B";
name = "Light Italic";
paths = (
{
closed = 1;
nodes = (
"-19 9 LINE",
"-7 -6 LINE",
"613 521 LINE",
"601 536 LINE"
);
}
);
width = 610.359;
},
{
anchors = (
{
name = top;
position = "{358, 530}";
}
);
components = (
{
name = o;
transform = "{1, 0, 0, 1, 10, 0}";
}
);
layerId = "518735FF-A855-4455-BD68-071AC00DFA4E";
name = "Regular Italic";
paths = (
{
closed = 1;
nodes = (
"-16 22 LINE",
"18 -19 LINE",
"638 508 LINE",
"604 549 LINE"
);
}
);
width = 629.619;
},
{
anchors = (
{
name = top;
position = "{366, 530}";
}
);
components = (
{
name = o;
transform = "{1, 0, 0, 1, 4, 0}";
}
);
layerId = "F37E1481-2EA3-4843-874F-9D06DA6D7C4C";
name = "Bold Italic";
paths = (
{
closed = 1;
nodes = (
"-20 37 LINE",
"38 -34 LINE",
"658 493 LINE",
"600 564 LINE"
);
}
);
width = 642.379;
}
);
leftKerningGroup = o;
leftMetricsKey = "=o-4";
rightKerningGroup = o;
rightMetricsKey = "=O-4";
unicode = 00F8;
},
{
glyphname = oe;
lastChange = "2014-08-20 09:23:21 +0900";
layers = (
{
anchors = (
{
name = top;
position = "{585, 530}";
}
);
layerId = "4375068D-FDA0-47DA-A897-61BBB4269C7B";
name = "Light Italic";
paths = (
{
closed = 1;
nodes = (
"675 544 OFFCURVE",
"572 469 OFFCURVE",
"526 341 CURVE",
"532 342 LINE",
"531 469 OFFCURVE",
"449 544 OFFCURVE",
"329 544 CURVE SMOOTH",
"117 544 OFFCURVE",
"27 354 OFFCURVE",
"27 219 CURVE SMOOTH",
"27 80 OFFCURVE",
"103 -14 OFFCURVE",
"231 -14 CURVE SMOOTH",
"356 -14 OFFCURVE",
"454 59 OFFCURVE",
"502 184 CURVE",
"497 190 LINE",
"497 55 OFFCURVE",
"585 -14 OFFCURVE",
"680 -14 CURVE SMOOTH",
"780 -14 OFFCURVE",
"875 37 OFFCURVE",
"932 161 CURVE",
"910 161 LINE",
"860 54 OFFCURVE",
"769 7 OFFCURVE",
"686 7 CURVE SMOOTH",
"601 7 OFFCURVE",
"521 60 OFFCURVE",
"521 195 CURVE SMOOTH",
"521 214 OFFCURVE",
"522 235 OFFCURVE",
"526 258 CURVE",
"956 258 LINE",
"962 286 OFFCURVE",
"966 312 OFFCURVE",
"966 340 CURVE SMOOTH",
"966 448 OFFCURVE",
"913 544 OFFCURVE",
"786 544 CURVE SMOOTH"
);
},
{
closed = 1;
nodes = (
"481 523 OFFCURVE",
"525 391 OFFCURVE",
"503 264 CURVE SMOOTH",
"472 88 OFFCURVE",
"354 7 OFFCURVE",
"235 7 CURVE SMOOTH",
"136 7 OFFCURVE",
"50 83 OFFCURVE",
"50 220 CURVE SMOOTH",
"50 352 OFFCURVE",
"137 523 OFFCURVE",
"325 523 CURVE SMOOTH"
);
},
{
closed = 1;
nodes = (
"863 523 OFFCURVE",
"943 476 OFFCURVE",
"943 339 CURVE SMOOTH",
"943 320 OFFCURVE",
"941 301 OFFCURVE",
"937 279 CURVE",
"530 279 LINE",
"563 444 OFFCURVE",
"679 523 OFFCURVE",
"780 523 CURVE SMOOTH"
);
}
);
width = 999.999;
},
{
anchors = (
{
name = top;
position = "{616, 530}";
}
);
layerId = "518735FF-A855-4455-BD68-071AC00DFA4E";
name = "Regular Italic";
paths = (
{
closed = 1;
nodes = (
"667 544 OFFCURVE",
"580 497 OFFCURVE",
"518 385 CURVE",
"544 388 LINE",
"522 493 OFFCURVE",
"455 544 OFFCURVE",
"342 544 CURVE SMOOTH",
"108 544 OFFCURVE",
"24 330 OFFCURVE",
"24 201 CURVE SMOOTH",
"24 81 OFFCURVE",
"90 -14 OFFCURVE",
"244 -14 CURVE SMOOTH",
"356 -14 OFFCURVE",
"438 36 OFFCURVE",
"496 140 CURVE",
"471 143 LINE",
"492 30 OFFCURVE",
"562 -14 OFFCURVE",
"654 -14 CURVE SMOOTH",
"763 -14 OFFCURVE",
"874 43 OFFCURVE",
"917 171 CURVE",
"827 171 LINE",
"802 95 OFFCURVE",
"738 52 OFFCURVE",
"669 52 CURVE SMOOTH",
"599 52 OFFCURVE",
"550 96 OFFCURVE",
"550 199 CURVE SMOOTH",
"550 211 OFFCURVE",
"550 225 OFFCURVE",
"552 239 CURVE",
"934 239 LINE",
"944 271 OFFCURVE",
"950 312 OFFCURVE",
"950 347 CURVE SMOOTH",
"950 466 OFFCURVE",
"887 544 OFFCURVE",
"763 544 CURVE SMOOTH"
);
},
{
closed = 1;
nodes = (
"421 478 OFFCURVE",
"467 416 OFFCURVE",
"467 323 CURVE SMOOTH",
"467 218 OFFCURVE",
"407 52 OFFCURVE",
"255 52 CURVE SMOOTH",
"165 52 OFFCURVE",
"119 114 OFFCURVE",
"119 207 CURVE SMOOTH",
"119 312 OFFCURVE",
"179 478 OFFCURVE",
"331 478 CURVE SMOOTH"
);
},
{
closed = 1;
nodes = (
"826 478 OFFCURVE",
"864 431 OFFCURVE",
"864 344 CURVE SMOOTH",
"864 333 OFFCURVE",
"863 319 OFFCURVE",
"861 305 CURVE",
"565 305 LINE",
"595 418 OFFCURVE",
"665 478 OFFCURVE",
"750 478 CURVE SMOOTH"
);
}
);
width = 969.488;
},
{
anchors = (
{
name = top;
position = "{667, 530}";
}
);
layerId = "F37E1481-2EA3-4843-874F-9D06DA6D7C4C";
name = "Bold Italic";
paths = (
{
closed = 1;
nodes = (
"649 544 OFFCURVE",
"554 496 OFFCURVE",
"493 375 CURVE",
"566 375 LINE",
"548 498 OFFCURVE",
"466 544 OFFCURVE",
"355 544 CURVE SMOOTH",
"118 544 OFFCURVE",
"21 361 OFFCURVE",
"21 214 CURVE SMOOTH",
"21 69 OFFCURVE",
"114 -14 OFFCURVE",
"267 -14 CURVE SMOOTH",
"366 -14 OFFCURVE",
"468 31 OFFCURVE",
"523 151 CURVE",
"453 155 LINE",
"470 28 OFFCURVE",
"554 -14 OFFCURVE",
"650 -14 CURVE SMOOTH",
"792 -14 OFFCURVE",
"894 54 OFFCURVE",
"946 175 CURVE",
"769 175 LINE",
"755 134 OFFCURVE",
"719 108 OFFCURVE",
"668 108 CURVE SMOOTH",
"621 108 OFFCURVE",
"588 129 OFFCURVE",
"588 203 CURVE SMOOTH",
"588 206 OFFCURVE",
"588 212 OFFCURVE",
"589 222 CURVE",
"961 222 LINE",
"972 252 OFFCURVE",
"979 291 OFFCURVE",
"979 328 CURVE SMOOTH",
"979 444 OFFCURVE",
"909 544 OFFCURVE",
"762 544 CURVE SMOOTH"
);
},
{
closed = 1;
nodes = (
"395 422 OFFCURVE",
"425 383 OFFCURVE",
"425 322 CURVE SMOOTH",
"425 241 OFFCURVE",
"390 108 OFFCURVE",
"288 108 CURVE SMOOTH",
"237 108 OFFCURVE",
"207 151 OFFCURVE",
"207 218 CURVE SMOOTH",
"207 303 OFFCURVE",
"242 422 OFFCURVE",
"344 422 CURVE SMOOTH"
);
},
{
closed = 1;
nodes = (
"768 422 OFFCURVE",
"797 396 OFFCURVE",
"797 344 CURVE SMOOTH",
"797 342 OFFCURVE",
"797 339 OFFCURVE",
"796 332 CURVE",
"615 332 LINE",
"639 397 OFFCURVE",
"676 422 OFFCURVE",
"723 422 CURVE SMOOTH"
);
}
);
width = 1002.66;
}
);
leftKerningGroup = o;
leftMetricsKey = o;
rightKerningGroup = e;
rightMetricsKey = e;
unicode = 0153;
},
{
glyphname = p;
lastChange = "2014-08-20 09:23:21 +0900";
layers = (
{
layerId = "518735FF-A855-4455-BD68-071AC00DFA4E";
name = "Regular Italic";
paths = (
{
closed = 1;
nodes = (
"336 544 OFFCURVE",
"277 527 OFFCURVE",
"243 502 CURVE",
"175 425 LINE",
"162 270 LINE",
"189 422 OFFCURVE",
"278 478 OFFCURVE",
"366 478 CURVE SMOOTH",
"453 478 OFFCURVE",
"494 414 OFFCURVE",
"494 324 CURVE SMOOTH",
"494 189 OFFCURVE",
"420 52 OFFCURVE",
"286 52 CURVE SMOOTH",
"178 52 OFFCURVE",
"140 143 OFFCURVE",
"157 241 CURVE",
"121 99 LINE",
"153 30 LINE",
"176 4 OFFCURVE",
"230 -14 OFFCURVE",
"274 -14 CURVE SMOOTH",
"488 -14 OFFCURVE",
"588 164 OFFCURVE",
"588 328 CURVE SMOOTH",
"588 449 OFFCURVE",
"522 544 OFFCURVE",
"390 544 CURVE SMOOTH"
);
},
{
closed = 1;
nodes = (
"122 530 LINE",
"-7 -196 LINE",
"79 -196 LINE",
"157 241 LINE",
"162 270 LINE",
"208 530 LINE"
);
}
);
width = 613.564;
},
{
layerId = "4375068D-FDA0-47DA-A897-61BBB4269C7B";
name = "Light Italic";
paths = (
{
closed = 1;
nodes = (
"258 540 OFFCURVE",
"214 522 OFFCURVE",
"157 466 CURVE",
"106 387 LINE",
"98 288 LINE",
"129 460 OFFCURVE",
"227 519 OFFCURVE",
"331 519 CURVE SMOOTH",
"440 519 OFFCURVE",
"499 437 OFFCURVE",
"499 326 CURVE SMOOTH",
"499 167 OFFCURVE",
"403 7 OFFCURVE",
"241 7 CURVE SMOOTH",
"107 7 OFFCURVE",
"66 104 OFFCURVE",
"88 229 CURVE",
"61 149 LINE",
"86 63 LINE",
"120 8 OFFCURVE",
"160 -14 OFFCURVE",
"238 -14 CURVE SMOOTH",
"419 -14 OFFCURVE",
"522 159 OFFCURVE",
"522 327 CURVE SMOOTH",
"522 451 OFFCURVE",
"453 540 OFFCURVE",
"336 540 CURVE SMOOTH"
);
},
{
closed = 1;
nodes = (
"119 526 LINE",
"-10 -196 LINE",
"12 -196 LINE",
"88 229 LINE",
"98 288 LINE",
"141 526 LINE"
);
}
);
width = 547.562;
},
{
layerId = "F37E1481-2EA3-4843-874F-9D06DA6D7C4C";
name = "Bold Italic";
paths = (
{
closed = 1;
nodes = (
"397 548 OFFCURVE",
"353 537 OFFCURVE",
"320 515 CURVE",
"251 435 LINE",
"237 274 LINE",
"257 384 OFFCURVE",
"312 426 OFFCURVE",
"378 426 CURVE SMOOTH",
"433 426 OFFCURVE",
"471 390 OFFCURVE",
"471 308 CURVE SMOOTH",
"471 202 OFFCURVE",
"411 108 OFFCURVE",
"327 108 CURVE SMOOTH",
"237 108 OFFCURVE",
"221 179 OFFCURVE",
"233 251 CURVE",
"189 99 LINE",
"227 12 LINE",
"251 -4 OFFCURVE",
"301 -14 OFFCURVE",
"345 -14 CURVE SMOOTH",
"556 -14 OFFCURVE",
"661 155 OFFCURVE",
"661 337 CURVE SMOOTH",
"661 477 OFFCURVE",
"584 548 OFFCURVE",
"451 548 CURVE SMOOTH"
);
},
{
closed = 1;
nodes = (
"103 534 LINE",
"-27 -196 LINE",
"153 -196 LINE",
"233 251 LINE",
"237 274 LINE",
"283 534 LINE"
);
}
);
width = 679.461;
}
);
leftKerningGroup = n;
leftMetricsKey = h;
rightKerningGroup = o;
rightMetricsKey = o;
unicode = 0070;
},
{
glyphname = thorn;
lastChange = "2014-08-20 09:23:21 +0900";
layers = (
{
layerId = "518735FF-A855-4455-BD68-071AC00DFA4E";
name = "Regular Italic";
paths = (
{
closed = 1;
nodes = (
"336 544 OFFCURVE",
"277 527 OFFCURVE",
"243 502 CURVE",
"175 425 LINE",
"162 270 LINE",
"189 422 OFFCURVE",
"278 478 OFFCURVE",
"366 478 CURVE SMOOTH",
"453 478 OFFCURVE",
"494 414 OFFCURVE",
"494 324 CURVE SMOOTH",
"494 189 OFFCURVE",
"420 52 OFFCURVE",
"286 52 CURVE SMOOTH",
"178 52 OFFCURVE",
"140 143 OFFCURVE",
"157 241 CURVE",
"121 99 LINE",
"153 30 LINE",
"176 4 OFFCURVE",
"230 -14 OFFCURVE",
"274 -14 CURVE SMOOTH",
"488 -14 OFFCURVE",
"588 164 OFFCURVE",
"588 328 CURVE SMOOTH",
"588 449 OFFCURVE",
"522 544 OFFCURVE",
"390 544 CURVE SMOOTH"
);
},
{
closed = 1;
nodes = (
"159 735 LINE",
"-7 -196 LINE",
"79 -196 LINE",
"157 241 LINE",
"162 270 LINE",
"245 735 LINE"
);
}
);
width = 613.564;
},
{
layerId = "4375068D-FDA0-47DA-A897-61BBB4269C7B";
name = "Light Italic";
paths = (
{
closed = 1;
nodes = (
"264 540 OFFCURVE",
"214 522 OFFCURVE",
"157 466 CURVE",
"106 387 LINE",
"98 288 LINE",
"129 460 OFFCURVE",
"227 519 OFFCURVE",
"331 519 CURVE SMOOTH",
"440 519 OFFCURVE",
"499 437 OFFCURVE",
"499 326 CURVE SMOOTH",
"499 174 OFFCURVE",
"415 7 OFFCURVE",
"231 7 CURVE SMOOTH",
"107 7 OFFCURVE",
"66 104 OFFCURVE",
"88 229 CURVE",
"61 149 LINE",
"86 54 LINE",
"120 6 OFFCURVE",
"160 -14 OFFCURVE",
"228 -14 CURVE SMOOTH",
"432 -14 OFFCURVE",
"522 165 OFFCURVE",
"522 327 CURVE SMOOTH",
"522 451 OFFCURVE",
"453 540 OFFCURVE",
"336 540 CURVE SMOOTH"
);
},
{
closed = 1;
nodes = (
"156 735 LINE",
"-10 -196 LINE",
"12 -196 LINE",
"88 229 LINE",
"98 288 LINE",
"178 735 LINE"
);
}
);
width = 547.93;
},
{
layerId = "F37E1481-2EA3-4843-874F-9D06DA6D7C4C";
name = "Bold Italic";
paths = (
{
closed = 1;
nodes = (
"397 548 OFFCURVE",
"353 537 OFFCURVE",
"320 515 CURVE",
"251 435 LINE",
"237 274 LINE",
"257 384 OFFCURVE",
"312 426 OFFCURVE",
"378 426 CURVE SMOOTH",
"438 426 OFFCURVE",
"475 390 OFFCURVE",
"475 308 CURVE SMOOTH",
"475 192 OFFCURVE",
"411 108 OFFCURVE",
"327 108 CURVE SMOOTH",
"237 108 OFFCURVE",
"221 179 OFFCURVE",
"233 251 CURVE",
"189 99 LINE",
"227 12 LINE",
"251 -4 OFFCURVE",
"301 -14 OFFCURVE",
"345 -14 CURVE SMOOTH",
"556 -14 OFFCURVE",
"661 145 OFFCURVE",
"661 327 CURVE SMOOTH",
"661 467 OFFCURVE",
"584 548 OFFCURVE",
"451 548 CURVE SMOOTH"
);
},
{
closed = 1;
nodes = (
"139 735 LINE",
"-27 -196 LINE",
"153 -196 LINE",
"233 251 LINE",
"237 274 LINE",
"319 735 LINE"
);
}
);
width = 681.123;
}
);
leftKerningGroup = h;
leftMetricsKey = h;
rightKerningGroup = o;
rightMetricsKey = o;
unicode = 00FE;
},
{
glyphname = q;
lastChange = "2014-08-20 09:23:21 +0900";
layers = (
{
layerId = "518735FF-A855-4455-BD68-071AC00DFA4E";
name = "Regular Italic";
paths = (
{
closed = 1;
nodes = (
"126 544 OFFCURVE",
"26 366 OFFCURVE",
"26 202 CURVE SMOOTH",
"26 81 OFFCURVE",
"92 -14 OFFCURVE",
"224 -14 CURVE SMOOTH",
"278 -14 OFFCURVE",
"337 3 OFFCURVE",
"371 28 CURVE",
"439 105 LINE",
"452 260 LINE",
"425 108 OFFCURVE",
"336 52 OFFCURVE",
"248 52 CURVE SMOOTH",
"161 52 OFFCURVE",
"120 116 OFFCURVE",
"120 206 CURVE SMOOTH",
"120 341 OFFCURVE",
"194 478 OFFCURVE",
"328 478 CURVE SMOOTH",
"436 478 OFFCURVE",
"474 387 OFFCURVE",
"457 289 CURVE",
"493 431 LINE",
"461 500 LINE",
"438 526 OFFCURVE",
"384 544 OFFCURVE",
"340 544 CURVE SMOOTH"
);
},
{
closed = 1;
nodes = (
"500 530 LINE",
"457 289 LINE",
"452 260 LINE",
"371 -196 LINE",
"457 -196 LINE",
"586 530 LINE"
);
}
);
width = 612.275;
},
{
layerId = "4375068D-FDA0-47DA-A897-61BBB4269C7B";
name = "Light Italic";
paths = (
{
closed = 1;
nodes = (
"128 540 OFFCURVE",
"25 367 OFFCURVE",
"25 199 CURVE SMOOTH",
"25 75 OFFCURVE",
"94 -14 OFFCURVE",
"211 -14 CURVE SMOOTH",
"289 -14 OFFCURVE",
"333 4 OFFCURVE",
"390 60 CURVE",
"441 139 LINE",
"449 238 LINE",
"418 66 OFFCURVE",
"320 7 OFFCURVE",
"216 7 CURVE SMOOTH",
"107 7 OFFCURVE",
"48 89 OFFCURVE",
"48 200 CURVE SMOOTH",
"48 359 OFFCURVE",
"144 519 OFFCURVE",
"306 519 CURVE SMOOTH",
"440 519 OFFCURVE",
"481 422 OFFCURVE",
"459 297 CURVE",
"486 377 LINE",
"461 463 LINE",
"427 518 OFFCURVE",
"387 540 OFFCURVE",
"309 540 CURVE SMOOTH"
);
},
{
closed = 1;
nodes = (
"500 526 LINE",
"459 297 LINE",
"449 238 LINE",
"371 -196 LINE",
"393 -196 LINE",
"522 526 LINE"
);
}
);
width = 545.976;
},
{
layerId = "F37E1481-2EA3-4843-874F-9D06DA6D7C4C";
name = "Bold Italic";
paths = (
{
closed = 1;
nodes = (
"124 548 OFFCURVE",
"19 379 OFFCURVE",
"19 197 CURVE SMOOTH",
"19 57 OFFCURVE",
"96 -14 OFFCURVE",
"229 -14 CURVE SMOOTH",
"283 -14 OFFCURVE",
"327 -3 OFFCURVE",
"360 19 CURVE",
"429 99 LINE",
"443 260 LINE",
"423 150 OFFCURVE",
"368 108 OFFCURVE",
"302 108 CURVE SMOOTH",
"247 108 OFFCURVE",
"209 144 OFFCURVE",
"209 226 CURVE SMOOTH",
"209 332 OFFCURVE",
"269 426 OFFCURVE",
"353 426 CURVE SMOOTH",
"443 426 OFFCURVE",
"459 355 OFFCURVE",
"447 283 CURVE",
"491 435 LINE",
"453 522 LINE",
"429 538 OFFCURVE",
"379 548 OFFCURVE",
"335 548 CURVE SMOOTH"
);
},
{
closed = 1;
nodes = (
"492 534 LINE",
"447 283 LINE",
"443 260 LINE",
"362 -196 LINE",
"542 -196 LINE",
"672 534 LINE"
);
}
);
width = 679.364;
}
);
leftKerningGroup = o;
leftMetricsKey = o;
rightKerningGroup = u;
rightMetricsKey = d;
unicode = 0071;
},
{
glyphname = r;
lastChange = "2014-08-20 09:23:21 +0900";
layers = (
{
anchors = (
{
name = bottom;
position = "{71, 0}";
},
{
name = top;
position = "{216, 530}";
}
);
layerId = "518735FF-A855-4455-BD68-071AC00DFA4E";
name = "Regular Italic";
paths = (
{
closed = 1;
nodes = (
"122 530 LINE",
"28 0 LINE",
"114 0 LINE",
"167 302 LINE",
"208 530 LINE"
);
},
{
closed = 1;
nodes = (
"307 542 OFFCURVE",
"278 533 OFFCURVE",
"254 518 CURVE",
"188 441 LINE",
"167 302 LINE",
"189 423 OFFCURVE",
"266 476 OFFCURVE",
"355 470 CURVE",
"367 535 LINE",
"357 540 OFFCURVE",
"346 542 OFFCURVE",
"332 542 CURVE SMOOTH"
);
}
);
width = 324.094;
},
{
anchors = (
{
name = bottom;
position = "{36, 0}";
},
{
name = top;
position = "{175, 530}";
}
);
layerId = "4375068D-FDA0-47DA-A897-61BBB4269C7B";
name = "Light Italic";
paths = (
{
closed = 1;
nodes = (
"118 530 LINE",
"25 0 LINE",
"47 0 LINE",
"97 288 LINE",
"140 530 LINE"
);
},
{
closed = 1;
nodes = (
"232 540 OFFCURVE",
"186 515 OFFCURVE",
"150 473 CURVE",
"112 401 LINE",
"97 288 LINE",
"133 497 OFFCURVE",
"232 524 OFFCURVE",
"300 519 CURVE",
"304 539 LINE",
"297 540 OFFCURVE",
"289 540 OFFCURVE",
"281 540 CURVE SMOOTH"
);
}
);
width = 264.41;
},
{
anchors = (
{
name = bottom;
position = "{98, 0}";
},
{
name = top;
position = "{260, 530}";
}
);
layerId = "F37E1481-2EA3-4843-874F-9D06DA6D7C4C";
name = "Bold Italic";
paths = (
{
closed = 1;
nodes = (
"101 530 LINE",
"8 0 LINE",
"188 0 LINE",
"223 196 LINE",
"281 530 LINE"
);
},
{
closed = 1;
nodes = (
"394 548 OFFCURVE",
"349 533 OFFCURVE",
"315 501 CURVE",
"258 418 LINE",
"223 196 LINE",
"258 389 OFFCURVE",
"347 408 OFFCURVE",
"443 398 CURVE",
"468 545 LINE",
"456 547 OFFCURVE",
"445 548 OFFCURVE",
"428 548 CURVE SMOOTH"
);
}
);
width = 415.59;
}
);
leftKerningGroup = n;
leftMetricsKey = n;
rightKerningGroup = r;
unicode = 0072;
},
{
glyphname = s;
lastChange = "2014-04-12 01:45:58 +0900";
layers = (
{
anchors = (
{
name = bottom;
position = "{172, 0}";
},
{
name = top;
position = "{265, 530}";
}
);
layerId = "518735FF-A855-4455-BD68-071AC00DFA4E";
name = "Regular Italic";
paths = (
{
closed = 1;
nodes = (
"120 544 OFFCURVE",
"52 471 OFFCURVE",
"52 384 CURVE SMOOTH",
"52 292 OFFCURVE",
"117 258 OFFCURVE",
"199 233 CURVE SMOOTH",
"274 210 OFFCURVE",
"305 183 OFFCURVE",
"305 136 CURVE SMOOTH",
"305 80 OFFCURVE",
"259 46 OFFCURVE",
"199 46 CURVE SMOOTH",
"135 46 OFFCURVE",
"87 73 OFFCURVE",
"80 150 CURVE",
"-10 150 LINE",
"-6 69 OFFCURVE",
"43 -20 OFFCURVE",
"192 -20 CURVE SMOOTH",
"324 -20 OFFCURVE",
"399 51 OFFCURVE",
"399 143 CURVE SMOOTH",
"399 230 OFFCURVE",
"344 272 OFFCURVE",
"242 303 CURVE SMOOTH",
"185 320 OFFCURVE",
"146 344 OFFCURVE",
"146 393 CURVE SMOOTH",
"146 437 OFFCURVE",
"175 478 OFFCURVE",
"249 478 CURVE SMOOTH",
"309 478 OFFCURVE",
"337 441 OFFCURVE",
"340 379 CURVE",
"430 379 LINE",
"428 476 OFFCURVE",
"376 544 OFFCURVE",
"253 544 CURVE SMOOTH"
);
}
);
width = 451;
},
{
anchors = (
{
name = bottom;
position = "{187, 0}";
},
{
name = top;
position = "{270, 530}";
}
);
layerId = "4375068D-FDA0-47DA-A897-61BBB4269C7B";
name = "Light Italic";
paths = (
{
closed = 1;
nodes = (
"152 540 OFFCURVE",
"82 472 OFFCURVE",
"82 391 CURVE SMOOTH",
"82 309 OFFCURVE",
"149 274 OFFCURVE",
"214 257 CURVE SMOOTH",
"320 229 OFFCURVE",
"363 199 OFFCURVE",
"363 130 CURVE SMOOTH",
"363 58 OFFCURVE",
"301 7 OFFCURVE",
"207 7 CURVE SMOOTH",
"104 7 OFFCURVE",
"42 46 OFFCURVE",
"38 150 CURVE",
"16 150 LINE",
"17 30 OFFCURVE",
"98 -14 OFFCURVE",
"201 -14 CURVE SMOOTH",
"299 -14 OFFCURVE",
"386 34 OFFCURVE",
"386 133 CURVE SMOOTH",
"386 212 OFFCURVE",
"331 248 OFFCURVE",
"227 276 CURVE SMOOTH",
"154 296 OFFCURVE",
"105 327 OFFCURVE",
"105 392 CURVE SMOOTH",
"105 455 OFFCURVE",
"160 519 OFFCURVE",
"255 519 CURVE SMOOTH",
"336 519 OFFCURVE",
"394 483 OFFCURVE",
"403 383 CURVE",
"425 383 LINE",
"419 485 OFFCURVE",
"358 540 OFFCURVE",
"260 540 CURVE SMOOTH"
);
}
);
width = 456;
},
{
anchors = (
{
name = bottom;
position = "{211, 0}";
},
{
name = top;
position = "{304, 530}";
}
);
layerId = "F37E1481-2EA3-4843-874F-9D06DA6D7C4C";
name = "Bold Italic";
paths = (
{
closed = 1;
nodes = (
"125 544 OFFCURVE",
"44 464 OFFCURVE",
"44 372 CURVE SMOOTH",
"44 285 OFFCURVE",
"96 251 OFFCURVE",
"183 220 CURVE SMOOTH",
"276 187 OFFCURVE",
"299 168 OFFCURVE",
"299 137 CURVE SMOOTH",
"299 107 OFFCURVE",
"275 92 OFFCURVE",
"240 92 CURVE SMOOTH",
"202 92 OFFCURVE",
"170 111 OFFCURVE",
"165 160 CURVE",
"-12 160 LINE",
"-6 40 OFFCURVE",
"87 -20 OFFCURVE",
"234 -20 CURVE SMOOTH",
"380 -20 OFFCURVE",
"487 42 OFFCURVE",
"487 156 CURVE SMOOTH",
"487 236 OFFCURVE",
"444 282 OFFCURVE",
"339 318 CURVE SMOOTH",
"250 348 OFFCURVE",
"231 361 OFFCURVE",
"231 395 CURVE SMOOTH",
"231 417 OFFCURVE",
"248 432 OFFCURVE",
"276 432 CURVE SMOOTH",
"306 432 OFFCURVE",
"325 411 OFFCURVE",
"330 374 CURVE",
"506 374 LINE",
"500 471 OFFCURVE",
"436 544 OFFCURVE",
"282 544 CURVE SMOOTH"
);
}
);
width = 515;
}
);
leftKerningGroup = s;
rightKerningGroup = s;
unicode = 0073;
},
{
glyphname = germandbls;
lastChange = "2014-08-20 09:23:21 +0900";
layers = (
{
layerId = "518735FF-A855-4455-BD68-071AC00DFA4E";
name = "Regular Italic";
paths = (
{
closed = 1;
nodes = (
"195 754 OFFCURVE",
"139 628 OFFCURVE",
"113 480 CURVE SMOOTH",
"28 0 LINE",
"114 0 LINE",
"200 488 LINE SMOOTH",
"217 584 OFFCURVE",
"256 686 OFFCURVE",
"373 686 CURVE SMOOTH",
"449 686 OFFCURVE",
"484 650 OFFCURVE",
"484 600 CURVE SMOOTH",
"484 576 OFFCURVE",
"479 547 OFFCURVE",
"457 514 CURVE",
"375 473 OFFCURVE",
"349 428 OFFCURVE",
"349 381 CURVE SMOOTH",
"349 330 OFFCURVE",
"366 306 OFFCURVE",
"409 261 CURVE SMOOTH",
"445 224 OFFCURVE",
"457 189 OFFCURVE",
"457 160 CURVE SMOOTH",
"457 117 OFFCURVE",
"430 62 OFFCURVE",
"341 62 CURVE SMOOTH",
"319 62 OFFCURVE",
"291 64 OFFCURVE",
"249 75 CURVE",
"237 6 LINE",
"275 -2 OFFCURVE",
"300 -4 OFFCURVE",
"333 -4 CURVE SMOOTH",
"478 -4 OFFCURVE",
"551 78 OFFCURVE",
"551 162 CURVE SMOOTH",
"551 221 OFFCURVE",
"524 264 OFFCURVE",
"484 302 CURVE SMOOTH",
"451 335 OFFCURVE",
"441 355 OFFCURVE",
"441 383 CURVE SMOOTH",
"441 415 OFFCURVE",
"458 440 OFFCURVE",
"533 476 CURVE",
"565 518 OFFCURVE",
"578 564 OFFCURVE",
"578 600 CURVE SMOOTH",
"578 688 OFFCURVE",
"514 754 OFFCURVE",
"382 754 CURVE SMOOTH"
);
}
);
width = 587.036;
},
{
layerId = "4375068D-FDA0-47DA-A897-61BBB4269C7B";
name = "Light Italic";
paths = (
{
closed = 1;
nodes = (
"195 754 OFFCURVE",
"133 614 OFFCURVE",
"111 490 CURVE SMOOTH",
"25 0 LINE",
"47 0 LINE",
"134 492 LINE SMOOTH",
"154 605 OFFCURVE",
"208 733 OFFCURVE",
"358 733 CURVE SMOOTH",
"436 733 OFFCURVE",
"486 689 OFFCURVE",
"486 617 CURVE SMOOTH",
"486 573 OFFCURVE",
"476 541 OFFCURVE",
"448 506 CURVE",
"367 467 OFFCURVE",
"327 434 OFFCURVE",
"327 370 CURVE SMOOTH",
"327 340 OFFCURVE",
"341 312 OFFCURVE",
"380 269 CURVE SMOOTH",
"428 216 OFFCURVE",
"444 185 OFFCURVE",
"444 150 CURVE SMOOTH",
"444 91 OFFCURVE",
"390 17 OFFCURVE",
"269 17 CURVE SMOOTH",
"236 17 OFFCURVE",
"201 20 OFFCURVE",
"163 29 CURVE",
"159 8 LINE",
"197 -1 OFFCURVE",
"232 -4 OFFCURVE",
"265 -4 CURVE SMOOTH",
"410 -4 OFFCURVE",
"467 83 OFFCURVE",
"467 152 CURVE SMOOTH",
"467 197 OFFCURVE",
"442 235 OFFCURVE",
"394 287 CURVE SMOOTH",
"363 321 OFFCURVE",
"350 342 OFFCURVE",
"350 372 CURVE SMOOTH",
"350 425 OFFCURVE",
"387 455 OFFCURVE",
"458 486 CURVE",
"499 533 OFFCURVE",
"509 575 OFFCURVE",
"509 618 CURVE SMOOTH",
"509 703 OFFCURVE",
"445 754 OFFCURVE",
"360 754 CURVE SMOOTH"
);
}
);
width = 504.836;
},
{
layerId = "F37E1481-2EA3-4843-874F-9D06DA6D7C4C";
name = "Bold Italic";
paths = (
{
closed = 1;
nodes = (
"191 754 OFFCURVE",
"120 645 OFFCURVE",
"84 430 CURVE SMOOTH",
"8 0 LINE",
"188 0 LINE",
"265 438 LINE SMOOTH",
"290 578 OFFCURVE",
"327 622 OFFCURVE",
"392 622 CURVE SMOOTH",
"439 622 OFFCURVE",
"461 601 OFFCURVE",
"461 563 CURVE SMOOTH",
"461 548 OFFCURVE",
"457 535 OFFCURVE",
"445 514 CURVE",
"386 481 OFFCURVE",
"353 444 OFFCURVE",
"353 385 CURVE SMOOTH",
"353 335 OFFCURVE",
"372 302 OFFCURVE",
"407 257 CURVE SMOOTH",
"428 231 OFFCURVE",
"438 209 OFFCURVE",
"438 187 CURVE SMOOTH",
"438 150 OFFCURVE",
"413 128 OFFCURVE",
"367 128 CURVE SMOOTH",
"345 128 OFFCURVE",
"323 130 OFFCURVE",
"281 141 CURVE",
"257 8 LINE",
"295 0 OFFCURVE",
"330 -4 OFFCURVE",
"393 -4 CURVE SMOOTH",
"552 -4 OFFCURVE",
"628 78 OFFCURVE",
"628 178 CURVE SMOOTH",
"628 221 OFFCURVE",
"619 260 OFFCURVE",
"575 309 CURVE SMOOTH",
"550 337 OFFCURVE",
"539 363 OFFCURVE",
"539 386 CURVE SMOOTH",
"539 422 OFFCURVE",
"562 443 OFFCURVE",
"604 462 CURVE",
"639 507 OFFCURVE",
"651 542 OFFCURVE",
"651 583 CURVE SMOOTH",
"651 680 OFFCURVE",
"571 754 OFFCURVE",
"419 754 CURVE SMOOTH"
);
}
);
width = 645.036;
}
);
leftMetricsKey = h;
unicode = 00DF;
},
{
glyphname = t;
lastChange = "2014-04-12 01:45:58 +0900";
layers = (
{
anchors = (
{
name = bottom;
position = "{119, 0}";
},
{
name = center;
position = "{144, 265}";
}
);
layerId = "518735FF-A855-4455-BD68-071AC00DFA4E";
name = "Regular Italic";
paths = (
{
closed = 1;
nodes = (
"151 649 LINE",
"63 151 LINE SMOOTH",
"55 108 OFFCURVE",
"52 83 OFFCURVE",
"52 69 CURVE SMOOTH",
"52 15 OFFCURVE",
"87 -8 OFFCURVE",
"151 -8 CURVE SMOOTH",
"173 -8 OFFCURVE",
"197 -5 OFFCURVE",
"215 0 CURVE",
"227 63 LINE",
"169 53 OFFCURVE",
"142 62 OFFCURVE",
"142 100 CURVE SMOOTH",
"142 109 OFFCURVE",
"143 121 OFFCURVE",
"149 155 CURVE SMOOTH",
"237 649 LINE"
);
},
{
closed = 1;
nodes = (
"60 526 LINE",
"48 460 LINE",
"294 460 LINE",
"306 526 LINE"
);
}
);
width = 303;
},
{
anchors = (
{
name = bottom;
position = "{100, 0}";
},
{
name = center;
position = "{109, 265}";
}
);
layerId = "4375068D-FDA0-47DA-A897-61BBB4269C7B";
name = "Light Italic";
paths = (
{
closed = 1;
nodes = (
"145 630 LINE",
"57 132 LINE SMOOTH",
"50 94 OFFCURVE",
"48 74 OFFCURVE",
"48 53 CURVE SMOOTH",
"48 10 OFFCURVE",
"71 -7 OFFCURVE",
"116 -7 CURVE SMOOTH",
"136 -7 OFFCURVE",
"147 -6 OFFCURVE",
"161 -4 CURVE",
"164 14 LINE",
"99 5 OFFCURVE",
"70 15 OFFCURVE",
"70 57 CURVE SMOOTH",
"70 73 OFFCURVE",
"72 91 OFFCURVE",
"79 128 CURVE SMOOTH",
"167 630 LINE"
);
},
{
closed = 1;
nodes = (
"62 522 LINE",
"59 504 LINE",
"248 504 LINE",
"251 522 LINE"
);
}
);
width = 243;
},
{
anchors = (
{
name = bottom;
position = "{172, 0}";
},
{
name = center;
position = "{189, 265}";
}
);
layerId = "F37E1481-2EA3-4843-874F-9D06DA6D7C4C";
name = "Bold Italic";
paths = (
{
closed = 1;
nodes = (
"154 668 LINE",
"70 195 LINE SMOOTH",
"61 144 OFFCURVE",
"58 114 OFFCURVE",
"58 89 CURVE SMOOTH",
"58 20 OFFCURVE",
"97 -14 OFFCURVE",
"206 -14 CURVE SMOOTH",
"250 -14 OFFCURVE",
"289 -10 OFFCURVE",
"331 -1 CURVE",
"351 112 LINE",
"279 103 OFFCURVE",
"248 114 OFFCURVE",
"248 160 CURVE SMOOTH",
"248 179 OFFCURVE",
"250 194 OFFCURVE",
"255 221 CURVE SMOOTH",
"334 668 LINE"
);
},
{
closed = 1;
nodes = (
"49 530 LINE",
"29 418 LINE",
"406 418 LINE",
"426 530 LINE"
);
}
);
width = 395;
}
);
leftKerningGroup = t;
rightKerningGroup = t;
unicode = 0074;
},
{
glyphname = u;
lastChange = "2014-08-20 09:23:21 +0900";
layers = (
{
anchors = (
{
name = ogonek;
position = "{386, 0}";
},
{
name = top;
position = "{341, 530}";
}
);
layerId = "518735FF-A855-4455-BD68-071AC00DFA4E";
name = "Regular Italic";
paths = (
{
closed = 1;
nodes = (
"115 530 LINE",
"61 232 LINE SMOOTH",
"49 168 OFFCURVE",
"48 150 OFFCURVE",
"48 122 CURVE SMOOTH",
"48 39 OFFCURVE",
"102 -14 OFFCURVE",
"210 -14 CURVE SMOOTH",
"264 -14 OFFCURVE",
"305 -5 OFFCURVE",
"356 30 CURVE",
"405 98 LINE",
"436 297 LINE",
"404 116 OFFCURVE",
"324 56 OFFCURVE",
"240 54 CURVE SMOOTH",
"165 52 OFFCURVE",
"137 92 OFFCURVE",
"137 146 CURVE SMOOTH",
"137 167 OFFCURVE",
"140 193 OFFCURVE",
"148 238 CURVE SMOOTH",
"201 530 LINE"
);
},
{
closed = 1;
nodes = (
"477 530 LINE",
"436 297 LINE",
"384 0 LINE",
"470 0 LINE",
"563 530 LINE"
);
}
);
width = 589.729;
},
{
anchors = (
{
name = ogonek;
position = "{388, 0}";
},
{
name = top;
position = "{296, 530}";
}
);
layerId = "4375068D-FDA0-47DA-A897-61BBB4269C7B";
name = "Light Italic";
paths = (
{
closed = 1;
nodes = (
"109 526 LINE",
"57 234 LINE SMOOTH",
"49 187 OFFCURVE",
"46 164 OFFCURVE",
"46 130 CURVE SMOOTH",
"46 41 OFFCURVE",
"99 -14 OFFCURVE",
"199 -14 CURVE SMOOTH",
"264 -14 OFFCURVE",
"328 9 OFFCURVE",
"377 64 CURVE",
"415 130 LINE",
"426 214 LINE",
"401 76 OFFCURVE",
"304 7 OFFCURVE",
"203 7 CURVE SMOOTH",
"109 7 OFFCURVE",
"69 60 OFFCURVE",
"69 133 CURVE SMOOTH",
"69 165 OFFCURVE",
"73 199 OFFCURVE",
"81 243 CURVE SMOOTH",
"131 526 LINE"
);
},
{
closed = 1;
nodes = (
"480 526 LINE",
"426 214 LINE",
"388 0 LINE",
"410 0 LINE",
"502 526 LINE"
);
}
);
width = 526.724;
},
{
anchors = (
{
name = ogonek;
position = "{381, 0}";
},
{
name = top;
position = "{383, 530}";
}
);
layerId = "F37E1481-2EA3-4843-874F-9D06DA6D7C4C";
name = "Bold Italic";
paths = (
{
closed = 1;
nodes = (
"91 534 LINE",
"36 226 LINE SMOOTH",
"28 181 OFFCURVE",
"24 151 OFFCURVE",
"24 123 CURVE SMOOTH",
"24 44 OFFCURVE",
"76 -14 OFFCURVE",
"185 -14 CURVE SMOOTH",
"234 -14 OFFCURVE",
"274 -3 OFFCURVE",
"311 17 CURVE",
"387 92 LINE",
"408 286 LINE",
"386 165 OFFCURVE",
"341 108 OFFCURVE",
"284 108 CURVE SMOOTH",
"231 108 OFFCURVE",
"213 138 OFFCURVE",
"213 183 CURVE SMOOTH",
"213 202 OFFCURVE",
"217 231 OFFCURVE",
"223 266 CURVE SMOOTH",
"271 534 LINE"
);
},
{
closed = 1;
nodes = (
"451 534 LINE",
"408 286 LINE",
"357 0 LINE",
"537 0 LINE",
"631 534 LINE"
);
}
);
width = 638.522;
}
);
leftKerningGroup = u;
rightKerningGroup = u;
rightMetricsKey = d;
unicode = 0075;
},
{
glyphname = v;
lastChange = "2014-04-12 01:45:58 +0900";
layers = (
{
layerId = "518735FF-A855-4455-BD68-071AC00DFA4E";
name = "Regular Italic";
paths = (
{
closed = 1;
nodes = (
"448 530 LINE",
"196 44 LINE",
"213 45 LINE",
"133 530 LINE",
"35 530 LINE",
"142 0 LINE",
"252 0 LINE",
"547 530 LINE"
);
}
);
width = 494;
},
{
layerId = "4375068D-FDA0-47DA-A897-61BBB4269C7B";
name = "Light Italic";
paths = (
{
closed = 1;
nodes = (
"476 526 LINE",
"185 15 LINE",
"189 15 LINE",
"80 526 LINE",
"56 526 LINE",
"170 0 LINE",
"200 0 LINE",
"502 526 LINE"
);
}
);
width = 472;
},
{
layerId = "F37E1481-2EA3-4843-874F-9D06DA6D7C4C";
name = "Bold Italic";
paths = (
{
closed = 1;
nodes = (
"450 534 LINE",
"230 59 LINE",
"283 60 LINE",
"231 534 LINE",
"31 534 LINE",
"145 0 LINE",
"344 0 LINE",
"647 534 LINE"
);
}
);
width = 584;
}
);
unicode = 0076;
},
{
glyphname = w;
lastChange = "2014-08-20 09:23:21 +0900";
layers = (
{
anchors = (
{
name = top;
position = "{426, 530}";
}
);
layerId = "518735FF-A855-4455-BD68-071AC00DFA4E";
name = "Regular Italic";
paths = (
{
closed = 1;
nodes = (
"719 530 LINE",
"487 21 LINE",
"524 21 LINE",
"478 530 LINE",
"369 530 LINE",
"148 21 LINE",
"185 21 LINE",
"134 530 LINE",
"35 530 LINE",
"110 0 LINE",
"213 0 LINE",
"429 489 LINE",
"405 489 LINE",
"448 0 LINE",
"550 0 LINE",
"813 530 LINE"
);
}
);
width = 760;
},
{
anchors = (
{
name = top;
position = "{397, 530}";
}
);
layerId = "4375068D-FDA0-47DA-A897-61BBB4269C7B";
name = "Light Italic";
paths = (
{
closed = 1;
nodes = (
"722 526 LINE",
"473 16 LINE",
"478 16 LINE",
"414 524 LINE",
"382 524 LINE",
"142 16 LINE",
"145 16 LINE",
"78 526 LINE",
"56 526 LINE",
"126 0 LINE",
"157 0 LINE",
"398 509 LINE",
"395 509 LINE",
"458 0 LINE",
"487 0 LINE",
"747 526 LINE"
);
}
);
width = 717;
},
{
anchors = (
{
name = top;
position = "{469, 530}";
}
);
layerId = "F37E1481-2EA3-4843-874F-9D06DA6D7C4C";
name = "Bold Italic";
paths = (
{
closed = 1;
nodes = (
"713 534 LINE",
"533 25 LINE",
"582 25 LINE",
"576 530 LINE",
"362 530 LINE",
"188 25 LINE",
"237 25 LINE",
"229 534 LINE",
"31 534 LINE",
"106 0 LINE",
"307 0 LINE",
"481 481 LINE",
"437 481 LINE",
"443 0 LINE",
"644 0 LINE",
"907 534 LINE"
);
}
);
width = 844;
}
);
leftKerningGroup = w;
leftMetricsKey = v;
rightKerningGroup = w;
rightMetricsKey = v;
unicode = 0077;
},
{
glyphname = x;
lastChange = "2014-04-12 01:45:58 +0900";
layers = (
{
layerId = "518735FF-A855-4455-BD68-071AC00DFA4E";
name = "Regular Italic";
paths = (
{
closed = 1;
nodes = (
"417 530 LINE",
"244 324 LINE",
"152 530 LINE",
"50 530 LINE",
"181 265 LINE",
"-53 0 LINE",
"48 0 LINE",
"221 203 LINE",
"323 0 LINE",
"425 0 LINE",
"283 264 LINE",
"519 530 LINE"
);
}
);
width = 473;
},
{
layerId = "4375068D-FDA0-47DA-A897-61BBB4269C7B";
name = "Light Italic";
paths = (
{
closed = 1;
nodes = (
"436 526 LINE",
"217 284 LINE",
"94 526 LINE",
"70 526 LINE",
"201 268 LINE",
"-40 0 LINE",
"-11 0 LINE",
"211 248 LINE",
"340 0 LINE",
"366 0 LINE",
"226 264 LINE",
"465 526 LINE"
);
}
);
width = 441;
},
{
layerId = "F37E1481-2EA3-4843-874F-9D06DA6D7C4C";
name = "Bold Italic";
paths = (
{
closed = 1;
nodes = (
"418 534 LINE",
"306 386 LINE",
"252 534 LINE",
"42 534 LINE",
"180 266 LINE",
"-59 0 LINE",
"148 0 LINE",
"257 147 LINE",
"323 0 LINE",
"533 0 LINE",
"381 266 LINE",
"625 534 LINE"
);
}
);
width = 579;
}
);
unicode = 0078;
},
{
glyphname = y;
lastChange = "2014-08-20 09:23:21 +0900";
layers = (
{
anchors = (
{
name = top;
position = "{291, 530}";
}
);
layerId = "518735FF-A855-4455-BD68-071AC00DFA4E";
name = "Regular Italic";
paths = (
{
closed = 1;
nodes = (
"448 530 LINE",
"209 63 LINE",
"133 530 LINE",
"35 530 LINE",
"152 -48 LINE",
"164 0 LINE",
"139 -46 LINE SMOOTH",
"101 -117 OFFCURVE",
"66 -139 OFFCURVE",
"13 -139 CURVE SMOOTH",
"3 -139 OFFCURVE",
"-7 -138 OFFCURVE",
"-18 -136 CURVE",
"-30 -207 LINE",
"-17 -209 OFFCURVE",
"-3 -210 OFFCURVE",
"12 -210 CURVE SMOOTH",
"112 -210 OFFCURVE",
"161 -163 OFFCURVE",
"252 0 CURVE SMOOTH",
"547 530 LINE"
);
}
);
width = 494;
},
{
anchors = (
{
name = top;
position = "{272, 530}";
}
);
layerId = "4375068D-FDA0-47DA-A897-61BBB4269C7B";
name = "Light Italic";
paths = (
{
closed = 1;
nodes = (
"476 526 LINE",
"187.91 20.11 LINE",
"80 526 LINE",
"56 526 LINE",
"172 -10 LINE",
"179 9 LINE",
"156 -30 LINE SMOOTH",
"82 -156 OFFCURVE",
"39 -190 OFFCURVE",
"-11 -190 CURVE SMOOTH",
"-20 -190 OFFCURVE",
"-28 -190 OFFCURVE",
"-41 -187 CURVE",
"-44 -206 LINE",
"-34 -209 OFFCURVE",
"-23 -210 OFFCURVE",
"-13 -210 CURVE SMOOTH",
"46 -210 OFFCURVE",
"96 -184 OFFCURVE",
"200 0 CURVE",
"502 526 LINE"
);
}
);
width = 472;
},
{
anchors = (
{
name = top;
position = "{330, 530}";
}
);
layerId = "F37E1481-2EA3-4843-874F-9D06DA6D7C4C";
name = "Bold Italic";
paths = (
{
closed = 1;
nodes = (
"450 534 LINE",
"273 151 LINE",
"231 534 LINE",
"31 534 LINE",
"160 -69 LINE",
"163 0 LINE",
"146 -33 LINE SMOOTH",
"124 -76 OFFCURVE",
"93 -94 OFFCURVE",
"54 -94 CURVE SMOOTH",
"35 -94 OFFCURVE",
"20 -93 OFFCURVE",
"4 -90 CURVE",
"-15 -204 LINE",
"9 -208 OFFCURVE",
"31 -210 OFFCURVE",
"60 -210 CURVE SMOOTH",
"181 -210 OFFCURVE",
"256 -155 OFFCURVE",
"344 0 CURVE SMOOTH",
"647 534 LINE"
);
}
);
width = 584;
}
);
leftKerningGroup = y;
leftMetricsKey = v;
rightKerningGroup = y;
rightMetricsKey = v;
unicode = 0079;
},
{
glyphname = z;
lastChange = "2014-04-12 01:45:58 +0900";
layers = (
{
anchors = (
{
name = top;
position = "{285, 530}";
}
);
layerId = "518735FF-A855-4455-BD68-071AC00DFA4E";
name = "Regular Italic";
paths = (
{
closed = 1;
nodes = (
"96 526 LINE",
"84 458 LINE",
"391 458 LINE",
"394 485 LINE",
"-7 66 LINE",
"-18 0 LINE",
"395 0 LINE",
"407 68 LINE",
"75 68 LINE",
"72 41 LINE",
"470 457 LINE",
"482 526 LINE"
);
}
);
width = 474;
},
{
anchors = (
{
name = top;
position = "{277, 530}";
}
);
layerId = "4375068D-FDA0-47DA-A897-61BBB4269C7B";
name = "Light Italic";
paths = (
{
closed = 1;
nodes = (
"91 522 LINE",
"88 501 LINE",
"446 501 LINE",
"445 511 LINE",
"-22 18 LINE",
"-25 0 LINE",
"384 0 LINE",
"387 19 LINE",
"-1 19 LINE",
"0 11 LINE",
"467 502 LINE",
"470 522 LINE"
);
}
);
width = 464;
},
{
anchors = (
{
name = top;
position = "{314, 530}";
}
);
layerId = "F37E1481-2EA3-4843-874F-9D06DA6D7C4C";
name = "Bold Italic";
paths = (
{
closed = 1;
nodes = (
"95 530 LINE",
"76 418 LINE",
"388 418 LINE",
"396 489 LINE",
"-3 105 LINE",
"-21 0 LINE",
"472 0 LINE",
"491 112 LINE",
"99 112 LINE",
"141 41 LINE",
"537 420 LINE",
"556 530 LINE"
);
}
);
width = 543;
}
);
leftKerningGroup = z;
rightKerningGroup = z;
unicode = 007A;
},
{
glyphname = a.alt;
lastChange = "2014-08-20 09:23:21 +0900";
layers = (
{
layerId = "518735FF-A855-4455-BD68-071AC00DFA4E";
name = "Regular Italic";
paths = (
{
closed = 1;
nodes = (
"126 544 OFFCURVE",
"26 366 OFFCURVE",
"26 202 CURVE SMOOTH",
"26 81 OFFCURVE",
"92 -14 OFFCURVE",
"224 -14 CURVE SMOOTH",
"278 -14 OFFCURVE",
"337 3 OFFCURVE",
"371 28 CURVE",
"439 105 LINE",
"452 260 LINE",
"425 108 OFFCURVE",
"336 52 OFFCURVE",
"248 52 CURVE SMOOTH",
"161 52 OFFCURVE",
"120 116 OFFCURVE",
"120 206 CURVE SMOOTH",
"120 341 OFFCURVE",
"194 478 OFFCURVE",
"328 478 CURVE SMOOTH",
"436 478 OFFCURVE",
"474 387 OFFCURVE",
"457 289 CURVE",
"493 431 LINE",
"461 500 LINE",
"438 526 OFFCURVE",
"384 544 OFFCURVE",
"340 544 CURVE SMOOTH"
);
},
{
closed = 1;
nodes = (
"498 530 LINE",
"457 289 LINE",
"452 260 LINE",
"406 0 LINE",
"492 0 LINE",
"584 530 LINE"
);
}
);
width = 611.729;
},
{
layerId = "4375068D-FDA0-47DA-A897-61BBB4269C7B";
name = "Light Italic";
paths = (
{
closed = 1;
nodes = (
"128 540 OFFCURVE",
"25 367 OFFCURVE",
"25 199 CURVE SMOOTH",
"25 75 OFFCURVE",
"94 -14 OFFCURVE",
"211 -14 CURVE SMOOTH",
"289 -14 OFFCURVE",
"333 4 OFFCURVE",
"390 60 CURVE",
"441 139 LINE",
"449 238 LINE",
"418 66 OFFCURVE",
"320 7 OFFCURVE",
"216 7 CURVE SMOOTH",
"107 7 OFFCURVE",
"48 89 OFFCURVE",
"48 200 CURVE SMOOTH",
"48 359 OFFCURVE",
"144 519 OFFCURVE",
"306 519 CURVE SMOOTH",
"440 519 OFFCURVE",
"481 422 OFFCURVE",
"459 297 CURVE",
"486 377 LINE",
"461 463 LINE",
"427 518 OFFCURVE",
"387 540 OFFCURVE",
"309 540 CURVE SMOOTH"
);
},
{
closed = 1;
nodes = (
"499 526 LINE",
"459 297 LINE",
"449 238 LINE",
"407 0 LINE",
"429 0 LINE",
"521 526 LINE"
);
}
);
width = 545.724;
},
{
layerId = "F37E1481-2EA3-4843-874F-9D06DA6D7C4C";
name = "Bold Italic";
paths = (
{
closed = 1;
nodes = (
"124 548 OFFCURVE",
"19 379 OFFCURVE",
"19 197 CURVE SMOOTH",
"19 57 OFFCURVE",
"96 -14 OFFCURVE",
"229 -14 CURVE SMOOTH",
"283 -14 OFFCURVE",
"327 -3 OFFCURVE",
"360 19 CURVE",
"429 99 LINE",
"443 260 LINE",
"423 150 OFFCURVE",
"368 108 OFFCURVE",
"302 108 CURVE SMOOTH",
"242 108 OFFCURVE",
"209 144 OFFCURVE",
"209 226 CURVE SMOOTH",
"209 332 OFFCURVE",
"269 426 OFFCURVE",
"353 426 CURVE SMOOTH",
"443 426 OFFCURVE",
"459 355 OFFCURVE",
"447 283 CURVE",
"491 435 LINE",
"453 522 LINE",
"429 538 OFFCURVE",
"379 548 OFFCURVE",
"335 548 CURVE SMOOTH"
);
},
{
closed = 1;
nodes = (
"491 534 LINE",
"447 283 LINE",
"443 260 LINE",
"397 0 LINE",
"577 0 LINE",
"671 534 LINE"
);
}
);
width = 678.522;
}
);
leftKerningGroup = d;
leftMetricsKey = d;
rightKerningGroup = u;
rightMetricsKey = d;
},
{
glyphname = fi;
lastChange = "2014-08-20 09:23:21 +0900";
layers = (
{
layerId = "4375068D-FDA0-47DA-A897-61BBB4269C7B";
name = "Light Italic";
paths = (
{
closed = 1;
nodes = (
"233 754 OFFCURVE",
"162 699 OFFCURVE",
"140 619 CURVE SMOOTH",
"134 598 OFFCURVE",
"131 581 OFFCURVE",
"128 566 CURVE SMOOTH",
"29 0 LINE",
"51 0 LINE",
"150 566 LINE SMOOTH",
"153 581 OFFCURVE",
"155 594 OFFCURVE",
"161 616 CURVE SMOOTH",
"179 684 OFFCURVE",
"249 751 OFFCURVE",
"378 728 CURVE",
"382 749 LINE",
"364 753 OFFCURVE",
"355 754 OFFCURVE",
"335 754 CURVE SMOOTH"
);
},
{
closed = 1;
nodes = (
"342 522 LINE",
"250 0 LINE",
"272 0 LINE",
"364 522 LINE"
);
},
{
closed = 1;
nodes = (
"74 522 LINE",
"70 501 LINE",
"346 501 LINE",
"350 522 LINE"
);
}
);
width = 388.724;
},
{
layerId = "518735FF-A855-4455-BD68-071AC00DFA4E";
name = "Regular Italic";
paths = (
{
closed = 1;
nodes = (
"249 754 OFFCURVE",
"172 701 OFFCURVE",
"144 604 CURVE SMOOTH",
"139 586 OFFCURVE",
"133 560 OFFCURVE",
"130 540 CURVE SMOOTH",
"35 0 LINE",
"121 0 LINE",
"217 548 LINE SMOOTH",
"220 563 OFFCURVE",
"225 588 OFFCURVE",
"230 602 CURVE SMOOTH",
"250 665 OFFCURVE",
"303 690 OFFCURVE",
"434 678 CURVE",
"447 749 LINE",
"429 752 OFFCURVE",
"408 754 OFFCURVE",
"386 754 CURVE SMOOTH"
);
},
{
closed = 1;
nodes = (
"407 526 LINE",
"315 0 LINE",
"401 0 LINE",
"493 526 LINE"
);
},
{
closed = 1;
nodes = (
"80 526 LINE",
"69 460 LINE",
"411 460 LINE",
"422 526 LINE"
);
}
);
width = 520.729;
},
{
layerId = "F37E1481-2EA3-4843-874F-9D06DA6D7C4C";
name = "Bold Italic";
paths = (
{
closed = 1;
nodes = (
"236 754 OFFCURVE",
"144 692 OFFCURVE",
"118 592 CURVE SMOOTH",
"114 574 OFFCURVE",
"110 550 OFFCURVE",
"107 534 CURVE SMOOTH",
"13 0 LINE",
"193 0 LINE",
"287 534 LINE SMOOTH",
"289 547 OFFCURVE",
"291 560 OFFCURVE",
"295 574 CURVE SMOOTH",
"308 621 OFFCURVE",
"356 644 OFFCURVE",
"459 629 CURVE",
"480 746 LINE",
"453 751 OFFCURVE",
"432 754 OFFCURVE",
"391 754 CURVE SMOOTH"
);
},
{
closed = 1;
nodes = (
"442 530 LINE",
"349 0 LINE",
"529 0 LINE",
"622 530 LINE"
);
},
{
closed = 1;
nodes = (
"59 530 LINE",
"39 418 LINE",
"445 418 LINE",
"465 530 LINE"
);
}
);
width = 630.522;
}
);
leftKerningGroup = f;
leftMetricsKey = f;
rightKerningGroup = i;
rightMetricsKey = dotlessi;
unicode = FB01;
},
{
glyphname = fl;
lastChange = "2014-08-20 09:23:21 +0900";
layers = (
{
layerId = "4375068D-FDA0-47DA-A897-61BBB4269C7B";
name = "Light Italic";
paths = (
{
closed = 1;
nodes = (
"216 754 OFFCURVE",
"161 695 OFFCURVE",
"140 619 CURVE SMOOTH",
"134 598 OFFCURVE",
"131 581 OFFCURVE",
"129 566 CURVE SMOOTH",
"29 0 LINE",
"51 0 LINE",
"151 566 LINE SMOOTH",
"153 581 OFFCURVE",
"156 594 OFFCURVE",
"162 616 CURVE SMOOTH",
"177 676 OFFCURVE",
"219 733 OFFCURVE",
"303 733 CURVE SMOOTH",
"330 733 OFFCURVE",
"368 728 OFFCURVE",
"380 719 CURVE",
"402 735 LINE",
"386 747 OFFCURVE",
"339 754 OFFCURVE",
"306 754 CURVE SMOOTH"
);
},
{
closed = 1;
nodes = (
"74 522 LINE",
"70 501 LINE",
"246 501 LINE",
"250 522 LINE"
);
},
{
closed = 1;
nodes = (
"380 735 LINE",
"272 120 LINE SMOOTH",
"261 58 OFFCURVE",
"259 45 OFFCURVE",
"259 34 CURVE SMOOTH",
"259 4 OFFCURVE",
"276 -5 OFFCURVE",
"300 -5 CURVE SMOOTH",
"310 -5 OFFCURVE",
"319 -5 OFFCURVE",
"329 -3 CURVE",
"332 16 LINE",
"295 11 OFFCURVE",
"282 17 OFFCURVE",
"282 40 CURVE SMOOTH",
"282 49 OFFCURVE",
"283 60 OFFCURVE",
"294 120 CURVE SMOOTH",
"402 735 LINE"
);
}
);
width = 403.35;
},
{
layerId = "518735FF-A855-4455-BD68-071AC00DFA4E";
name = "Regular Italic";
paths = (
{
closed = 1;
nodes = (
"251 754 OFFCURVE",
"171 701 OFFCURVE",
"143 604 CURVE SMOOTH",
"138 586 OFFCURVE",
"133 560 OFFCURVE",
"129 540 CURVE SMOOTH",
"34 0 LINE",
"120 0 LINE",
"217 548 LINE SMOOTH",
"219 563 OFFCURVE",
"225 588 OFFCURVE",
"229 602 CURVE SMOOTH",
"245 651 OFFCURVE",
"286 688 OFFCURVE",
"370 688 CURVE SMOOTH",
"392 688 OFFCURVE",
"415 686 OFFCURVE",
"436 679 CURVE",
"523 735 LINE",
"488 747 OFFCURVE",
"438 754 OFFCURVE",
"386 754 CURVE SMOOTH"
);
},
{
closed = 1;
nodes = (
"80 526 LINE",
"68 460 LINE",
"310 460 LINE",
"322 526 LINE"
);
},
{
closed = 1;
nodes = (
"437 735 LINE",
"334 149 LINE SMOOTH",
"324 95 OFFCURVE",
"321 76 OFFCURVE",
"321 61 CURVE SMOOTH",
"321 9 OFFCURVE",
"353 -4 OFFCURVE",
"398 -4 CURVE SMOOTH",
"418 -4 OFFCURVE",
"440 -3 OFFCURVE",
"460 0 CURVE",
"471 63 LINE",
"431 60 OFFCURVE",
"413 74 OFFCURVE",
"413 100 CURVE SMOOTH",
"413 112 OFFCURVE",
"415 125 OFFCURVE",
"420 152 CURVE SMOOTH",
"523 735 LINE"
);
}
);
width = 532;
},
{
layerId = "F37E1481-2EA3-4843-874F-9D06DA6D7C4C";
name = "Bold Italic";
paths = (
{
closed = 1;
nodes = (
"226 754 OFFCURVE",
"143 692 OFFCURVE",
"118 592 CURVE SMOOTH",
"114 574 OFFCURVE",
"109 550 OFFCURVE",
"107 534 CURVE SMOOTH",
"12 0 LINE",
"192 0 LINE",
"287 534 LINE SMOOTH",
"289 547 OFFCURVE",
"291 560 OFFCURVE",
"295 574 CURVE SMOOTH",
"305 613 OFFCURVE",
"344 632 OFFCURVE",
"400 632 CURVE SMOOTH",
"434 632 OFFCURVE",
"449 630 OFFCURVE",
"488 620 CURVE",
"659 730 LINE",
"594 745 OFFCURVE",
"522 754 OFFCURVE",
"431 754 CURVE SMOOTH"
);
},
{
closed = 1;
nodes = (
"59 530 LINE",
"39 418 LINE",
"375 418 LINE",
"395 530 LINE"
);
},
{
closed = 1;
nodes = (
"490 735 LINE",
"392 189 LINE SMOOTH",
"383 139 OFFCURVE",
"378 102 OFFCURVE",
"378 72 CURVE SMOOTH",
"378 14 OFFCURVE",
"417 -10 OFFCURVE",
"503 -10 CURVE SMOOTH",
"543 -10 OFFCURVE",
"571 -8 OFFCURVE",
"599 -4 CURVE",
"619 107 LINE",
"580 105 OFFCURVE",
"566 110 OFFCURVE",
"566 138 CURVE SMOOTH",
"566 152 OFFCURVE",
"569 170 OFFCURVE",
"573 192 CURVE SMOOTH",
"669 730 LINE"
);
}
);
width = 661;
}
);
leftKerningGroup = f;
leftMetricsKey = f;
rightKerningGroup = l;
rightMetricsKey = l;
unicode = FB02;
},
{
glyphname = zero;
lastChange = "2014-04-12 01:45:58 +0900";
layers = (
{
layerId = "4375068D-FDA0-47DA-A897-61BBB4269C7B";
name = "Light Italic";
paths = (
{
closed = 1;
nodes = (
"339 683 LINE",
"447 683 OFFCURVE",
"498 599 OFFCURVE",
"498 467 CURVE SMOOTH",
"498 320 OFFCURVE",
"431 7 OFFCURVE",
"219 7 CURVE",
"216 -14 LINE",
"444 -14 OFFCURVE",
"521 295 OFFCURVE",
"521 468 CURVE SMOOTH",
"521 615 OFFCURVE",
"462 704 OFFCURVE",
"342 704 CURVE"
);
},
{
closed = 1;
nodes = (
"114 704 OFFCURVE",
"37 395 OFFCURVE",
"37 222 CURVE SMOOTH",
"37 75 OFFCURVE",
"96 -14 OFFCURVE",
"216 -14 CURVE",
"219 7 LINE",
"111 7 OFFCURVE",
"60 91 OFFCURVE",
"60 223 CURVE SMOOTH",
"60 370 OFFCURVE",
"127 683 OFFCURVE",
"339 683 CURVE",
"342 704 LINE"
);
}
);
width = 530;
},
{
layerId = "518735FF-A855-4455-BD68-071AC00DFA4E";
name = "Regular Italic";
paths = (
{
closed = 1;
nodes = (
"325 636 LINE",
"416 636 OFFCURVE",
"455 557 OFFCURVE",
"455 444 CURVE SMOOTH",
"455 328 OFFCURVE",
"414 54 OFFCURVE",
"253 54 CURVE",
"251 -14 LINE",
"481 -14 OFFCURVE",
"551 262 OFFCURVE",
"551 445 CURVE SMOOTH",
"551 590 OFFCURVE",
"484 704 OFFCURVE",
"327 704 CURVE"
);
},
{
closed = 1;
nodes = (
"97 704 OFFCURVE",
"27 429 OFFCURVE",
"27 246 CURVE SMOOTH",
"27 101 OFFCURVE",
"94 -14 OFFCURVE",
"251 -14 CURVE",
"253 54 LINE",
"162 54 OFFCURVE",
"123 134 OFFCURVE",
"123 247 CURVE SMOOTH",
"123 364 OFFCURVE",
"164 636 OFFCURVE",
"325 636 CURVE",
"327 704 LINE"
);
}
);
width = 580;
},
{
layerId = "F37E1481-2EA3-4843-874F-9D06DA6D7C4C";
name = "Bold Italic";
paths = (
{
closed = 1;
nodes = (
"379 572 LINE",
"431 572 OFFCURVE",
"457 534 OFFCURVE",
"457 456 CURVE SMOOTH",
"457 354 OFFCURVE",
"424 118 OFFCURVE",
"313 118 CURVE",
"313 -14 LINE",
"569 -14 OFFCURVE",
"647 247 OFFCURVE",
"647 436 CURVE SMOOTH",
"647 600 OFFCURVE",
"561 704 OFFCURVE",
"379 704 CURVE"
);
},
{
closed = 1;
nodes = (
"126 704 OFFCURVE",
"45 450 OFFCURVE",
"45 254 CURVE SMOOTH",
"45 90 OFFCURVE",
"131 -14 OFFCURVE",
"313 -14 CURVE",
"313 118 LINE",
"261 118 OFFCURVE",
"235 157 OFFCURVE",
"235 234 CURVE SMOOTH",
"235 341 OFFCURVE",
"268 572 OFFCURVE",
"379 572 CURVE",
"379 704 LINE"
);
}
);
width = 662;
}
);
unicode = 0030;
},
{
glyphname = one;
lastChange = "2014-04-11 16:39:03 +0900";
layers = (
{
layerId = "4375068D-FDA0-47DA-A897-61BBB4269C7B";
name = "Light Italic";
paths = (
{
closed = 1;
nodes = (
"401 690 LINE SMOOTH",
"390 690 OFFCURVE",
"382 688 OFFCURVE",
"356 673 CURVE SMOOTH",
"179 573 LINE",
"174 549 LINE",
"393 671 LINE",
"387 677 LINE",
"268 0 LINE",
"290 0 LINE",
"412 690 LINE"
);
}
);
width = 530;
},
{
layerId = "518735FF-A855-4455-BD68-071AC00DFA4E";
name = "Regular Italic";
paths = (
{
closed = 1;
nodes = (
"409 690 LINE SMOOTH",
"385 690 OFFCURVE",
"360 685 OFFCURVE",
"330 668 CURVE SMOOTH",
"168 577 LINE",
"152 486 LINE",
"376 607 LINE",
"364 610 LINE",
"256 0 LINE",
"342 0 LINE",
"464 690 LINE"
);
}
);
width = 580;
},
{
layerId = "F37E1481-2EA3-4843-874F-9D06DA6D7C4C";
name = "Bold Italic";
paths = (
{
closed = 1;
nodes = (
"493 690 LINE SMOOTH",
"442 690 OFFCURVE",
"394 676 OFFCURVE",
"345 651 CURVE SMOOTH",
"157 553 LINE",
"129 392 LINE",
"400 522 LINE",
"365 543 LINE",
"270 0 LINE",
"450 0 LINE",
"571 690 LINE"
);
}
);
width = 662;
}
);
unicode = 0031;
},
{
glyphname = two;
lastChange = "2014-04-12 01:45:58 +0900";
layers = (
{
layerId = "4375068D-FDA0-47DA-A897-61BBB4269C7B";
name = "Light Italic";
paths = (
{
closed = 1;
nodes = (
"241 704 OFFCURVE",
"135 625 OFFCURVE",
"110 498 CURVE SMOOTH",
"108 488 LINE",
"130 488 LINE",
"132 498 LINE SMOOTH",
"152 610 OFFCURVE",
"253 683 OFFCURVE",
"356 683 CURVE SMOOTH",
"445 683 OFFCURVE",
"493 630 OFFCURVE",
"493 554 CURVE SMOOTH",
"493 457 OFFCURVE",
"448 395 OFFCURVE",
"272 248 CURVE SMOOTH",
"-5 16 LINE",
"-8 0 LINE",
"433 0 LINE",
"437 21 LINE",
"14 21 LINE",
"22 13 LINE",
"290 237 LINE SMOOTH",
"447 369 OFFCURVE",
"518 443 OFFCURVE",
"518 555 CURVE SMOOTH",
"518 632 OFFCURVE",
"466 704 OFFCURVE",
"359 704 CURVE SMOOTH"
);
}
);
width = 530;
},
{
layerId = "518735FF-A855-4455-BD68-071AC00DFA4E";
name = "Regular Italic";
paths = (
{
closed = 1;
nodes = (
"255 704 OFFCURVE",
"154 639 OFFCURVE",
"116 484 CURVE SMOOTH",
"114 474 LINE",
"200 474 LINE",
"202 484 LINE SMOOTH",
"228 590 OFFCURVE",
"282 636 OFFCURVE",
"371 636 CURVE SMOOTH",
"442 636 OFFCURVE",
"475 597 OFFCURVE",
"475 534 CURVE SMOOTH",
"475 456 OFFCURVE",
"428 401 OFFCURVE",
"317 304 CURVE SMOOTH",
"22 49 LINE",
"13 0 LINE",
"476 0 LINE",
"488 70 LINE",
"73 70 LINE",
"113 38 LINE",
"353 241 LINE SMOOTH",
"517 378 OFFCURVE",
"573 457 OFFCURVE",
"573 545 CURVE SMOOTH",
"573 632 OFFCURVE",
"517 704 OFFCURVE",
"393 704 CURVE SMOOTH"
);
}
);
width = 580;
},
{
layerId = "F37E1481-2EA3-4843-874F-9D06DA6D7C4C";
name = "Bold Italic";
paths = (
{
closed = 1;
nodes = (
"238 706 OFFCURVE",
"144 621 OFFCURVE",
"103 469 CURVE SMOOTH",
"100 459 LINE",
"280 459 LINE",
"283 469 LINE SMOOTH",
"302 541 OFFCURVE",
"334 574 OFFCURVE",
"386 574 CURVE SMOOTH",
"428 574 OFFCURVE",
"452 551 OFFCURVE",
"452 510 CURVE SMOOTH",
"452 441 OFFCURVE",
"406 388 OFFCURVE",
"275 282 CURVE SMOOTH",
"22 78 LINE",
"8 0 LINE",
"543 0 LINE",
"568 140 LINE",
"201 140 LINE",
"262 98 LINE",
"421 229 LINE SMOOTH",
"599 376 OFFCURVE",
"643 445 OFFCURVE",
"643 535 CURVE SMOOTH",
"643 642 OFFCURVE",
"566 706 OFFCURVE",
"424 706 CURVE SMOOTH"
);
}
);
width = 662;
}
);
unicode = 0032;
},
{
glyphname = three;
lastChange = "2014-04-12 01:45:58 +0900";
layers = (
{
layerId = "4375068D-FDA0-47DA-A897-61BBB4269C7B";
name = "Light Italic";
paths = (
{
closed = 1;
nodes = (
"251 704 OFFCURVE",
"145 635 OFFCURVE",
"120 509 CURVE SMOOTH",
"118 499 LINE",
"140 499 LINE",
"142 509 LINE SMOOTH",
"164 621 OFFCURVE",
"258 683 OFFCURVE",
"361 683 CURVE SMOOTH",
"450 683 OFFCURVE",
"504 637 OFFCURVE",
"504 547 CURVE SMOOTH",
"504 434 OFFCURVE",
"375 364 OFFCURVE",
"275 364 CURVE SMOOTH",
"258 364 LINE",
"254 343 LINE",
"271 343 LINE SMOOTH",
"399 343 OFFCURVE",
"454 296 OFFCURVE",
"454 208 CURVE SMOOTH",
"454 83 OFFCURVE",
"348 7 OFFCURVE",
"220 7 CURVE SMOOTH",
"102 7 OFFCURVE",
"49 86 OFFCURVE",
"57 194 CURVE SMOOTH",
"57 204 LINE",
"35 204 LINE",
"35 194 LINE SMOOTH",
"25 58 OFFCURVE",
"101 -14 OFFCURVE",
"216 -14 CURVE SMOOTH",
"359 -14 OFFCURVE",
"478 74 OFFCURVE",
"478 215 CURVE SMOOTH",
"478 308 OFFCURVE",
"414 355 OFFCURVE",
"311 361 CURVE",
"304 353 LINE",
"418 353 OFFCURVE",
"528 445 OFFCURVE",
"528 550 CURVE SMOOTH",
"528 636 OFFCURVE",
"474 704 OFFCURVE",
"366 704 CURVE SMOOTH"
);
}
);
width = 530;
},
{
layerId = "518735FF-A855-4455-BD68-071AC00DFA4E";
name = "Regular Italic";
paths = (
{
closed = 1;
nodes = (
"240 704 OFFCURVE",
"140 628 OFFCURVE",
"115 501 CURVE SMOOTH",
"113 491 LINE",
"199 491 LINE",
"201 501 LINE SMOOTH",
"220 594 OFFCURVE",
"285 636 OFFCURVE",
"367 636 CURVE SMOOTH",
"431 636 OFFCURVE",
"471 596 OFFCURVE",
"471 538 CURVE SMOOTH",
"471 442 OFFCURVE",
"389 384 OFFCURVE",
"297 384 CURVE SMOOTH",
"280 384 LINE",
"267 314 LINE",
"284 314 LINE SMOOTH",
"383 314 OFFCURVE",
"428 276 OFFCURVE",
"428 210 CURVE SMOOTH",
"428 113 OFFCURVE",
"352 54 OFFCURVE",
"256 54 CURVE SMOOTH",
"172 54 OFFCURVE",
"114 97 OFFCURVE",
"121 194 CURVE SMOOTH",
"122 204 LINE",
"36 204 LINE",
"35 194 LINE SMOOTH",
"24 45 OFFCURVE",
"105 -14 OFFCURVE",
"236 -14 CURVE SMOOTH",
"393 -14 OFFCURVE",
"526 75 OFFCURVE",
"526 222 CURVE SMOOTH",
"526 321 OFFCURVE",
"450 378 OFFCURVE",
"327 378 CURVE",
"353 358 LINE",
"469 358 OFFCURVE",
"569 442 OFFCURVE",
"569 556 CURVE SMOOTH",
"569 644 OFFCURVE",
"503 704 OFFCURVE",
"390 704 CURVE SMOOTH"
);
}
);
width = 580;
},
{
layerId = "F37E1481-2EA3-4843-874F-9D06DA6D7C4C";
name = "Bold Italic";
paths = (
{
closed = 1;
nodes = (
"229 704 OFFCURVE",
"145 600 OFFCURVE",
"112 484 CURVE SMOOTH",
"110 474 LINE",
"290 474 LINE",
"292 484 LINE SMOOTH",
"304 529 OFFCURVE",
"334 572 OFFCURVE",
"387 572 CURVE SMOOTH",
"430 572 OFFCURVE",
"453 549 OFFCURVE",
"453 513 CURVE SMOOTH",
"453 460 OFFCURVE",
"412 417 OFFCURVE",
"336 411 CURVE SMOOTH",
"309 409 LINE",
"289 293 LINE",
"316 292 LINE SMOOTH",
"379 289 OFFCURVE",
"416 264 OFFCURVE",
"416 215 CURVE SMOOTH",
"416 159 OFFCURVE",
"368 118 OFFCURVE",
"309 118 CURVE SMOOTH",
"240 118 OFFCURVE",
"213 161 OFFCURVE",
"212 209 CURVE SMOOTH",
"212 219 LINE",
"32 219 LINE",
"31 209 LINE SMOOTH",
"21 71 OFFCURVE",
"108 -14 OFFCURVE",
"283 -14 CURVE SMOOTH",
"476 -14 OFFCURVE",
"606 89 OFFCURVE",
"606 234 CURVE SMOOTH",
"606 330 OFFCURVE",
"530 372 OFFCURVE",
"380 372 CURVE",
"376 352 LINE",
"563 352 OFFCURVE",
"645 426 OFFCURVE",
"645 545 CURVE SMOOTH",
"645 631 OFFCURVE",
"579 704 OFFCURVE",
"428 704 CURVE SMOOTH"
);
}
);
width = 662;
}
);
unicode = 0033;
},
{
glyphname = four;
lastChange = "2014-04-12 01:45:58 +0900";
layers = (
{
layerId = "4375068D-FDA0-47DA-A897-61BBB4269C7B";
name = "Light Italic";
paths = (
{
closed = 1;
nodes = (
"15 216 LINE",
"12 200 LINE",
"495 200 LINE",
"499 221 LINE",
"27 221 LINE",
"37 210 LINE",
"348 532 LINE SMOOTH",
"399 585 OFFCURVE",
"439 629 OFFCURVE",
"463 657 CURVE",
"471 690 LINE"
);
},
{
closed = 1;
nodes = (
"471 690 LINE",
"463 675 LINE",
"376 210 LINE",
"339 0 LINE",
"361 0 LINE",
"398 210 LINE",
"488 690 LINE"
);
}
);
width = 530;
},
{
layerId = "518735FF-A855-4455-BD68-071AC00DFA4E";
name = "Regular Italic";
paths = (
{
closed = 1;
nodes = (
"26 217 LINE",
"19 174 LINE",
"534 174 LINE",
"546 244 LINE",
"72 244 LINE",
"113 213 LINE",
"365 487 LINE SMOOTH",
"414 541 OFFCURVE",
"445 584 OFFCURVE",
"476 627 CURVE",
"458 690 LINE"
);
},
{
closed = 1;
nodes = (
"458 690 LINE",
"444 613 LINE",
"367 209 LINE",
"330 0 LINE",
"416 0 LINE",
"452 206 LINE",
"544 690 LINE"
);
}
);
width = 580;
},
{
layerId = "F37E1481-2EA3-4843-874F-9D06DA6D7C4C";
name = "Bold Italic";
paths = (
{
closed = 1;
nodes = (
"35 253 LINE",
"18 154 LINE",
"606 154 LINE",
"630 294 LINE",
"138 294 LINE",
"165 223 LINE",
"363 439 LINE SMOOTH",
"388 466 OFFCURVE",
"420 511 OFFCURVE",
"456 567 CURVE",
"428 690 LINE"
);
},
{
closed = 1;
nodes = (
"428 690 LINE",
"431 613 LINE",
"356 233 LINE",
"315 0 LINE",
"495 0 LINE",
"535 227 LINE",
"624 690 LINE"
);
}
);
width = 662;
}
);
unicode = 0034;
},
{
glyphname = five;
lastChange = "2014-04-12 01:45:58 +0900";
layers = (
{
layerId = "4375068D-FDA0-47DA-A897-61BBB4269C7B";
name = "Light Italic";
paths = (
{
closed = 1;
nodes = (
"199 686 LINE",
"65 295 LINE",
"87 295 LINE",
"140 376 OFFCURVE",
"213 411 OFFCURVE",
"295 411 CURVE SMOOTH",
"388 411 OFFCURVE",
"448 355 OFFCURVE",
"448 248 CURVE SMOOTH",
"448 83 OFFCURVE",
"317 7 OFFCURVE",
"209 7 CURVE SMOOTH",
"94 7 OFFCURVE",
"46 79 OFFCURVE",
"54 178 CURVE SMOOTH",
"55 188 LINE",
"33 188 LINE",
"32 178 LINE SMOOTH",
"22 41 OFFCURVE",
"110 -14 OFFCURVE",
"204 -14 CURVE SMOOTH",
"342 -14 OFFCURVE",
"472 86 OFFCURVE",
"472 251 CURVE SMOOTH",
"472 354 OFFCURVE",
"412 432 OFFCURVE",
"301 432 CURVE SMOOTH",
"242 432 OFFCURVE",
"191 418 OFFCURVE",
"145 385 CURVE",
"85 322 LINE",
"95 323 LINE",
"218 676 LINE",
"207 665 LINE",
"546 665 LINE",
"549 686 LINE"
);
}
);
width = 530;
},
{
layerId = "518735FF-A855-4455-BD68-071AC00DFA4E";
name = "Regular Italic";
paths = (
{
closed = 1;
nodes = (
"185 690 LINE",
"66 289 LINE",
"148 289 LINE",
"194 360 OFFCURVE",
"245 387 OFFCURVE",
"309 387 CURVE SMOOTH",
"387 387 OFFCURVE",
"431 336 OFFCURVE",
"431 254 CURVE SMOOTH",
"431 131 OFFCURVE",
"353 54 OFFCURVE",
"247 54 CURVE SMOOTH",
"161 54 OFFCURVE",
"126 96 OFFCURVE",
"124 183 CURVE SMOOTH",
"124 193 LINE",
"38 193 LINE",
"37 183 LINE SMOOTH",
"27 53 OFFCURVE",
"113 -14 OFFCURVE",
"236 -14 CURVE SMOOTH",
"389 -14 OFFCURVE",
"528 88 OFFCURVE",
"528 267 CURVE SMOOTH",
"528 375 OFFCURVE",
"467 455 OFFCURVE",
"334 455 CURVE SMOOTH",
"292 455 OFFCURVE",
"257 446 OFFCURVE",
"220 426 CURVE",
"138 352 LINE",
"160 349 LINE",
"256 665 LINE",
"200 620 LINE",
"564 620 LINE",
"577 690 LINE"
);
}
);
width = 580;
},
{
layerId = "F37E1481-2EA3-4843-874F-9D06DA6D7C4C";
name = "Bold Italic";
paths = (
{
closed = 1;
nodes = (
"199 690 LINE",
"72 276 LINE",
"238 276 LINE",
"262 318 OFFCURVE",
"291 338 OFFCURVE",
"337 338 CURVE SMOOTH",
"390 338 OFFCURVE",
"416 301 OFFCURVE",
"416 250 CURVE SMOOTH",
"416 181 OFFCURVE",
"375 118 OFFCURVE",
"295 118 CURVE SMOOTH",
"246 118 OFFCURVE",
"223 147 OFFCURVE",
"227 194 CURVE SMOOTH",
"227 204 LINE",
"47 204 LINE",
"47 194 LINE SMOOTH",
"36 47 OFFCURVE",
"128 -14 OFFCURVE",
"284 -14 CURVE SMOOTH",
"452 -14 OFFCURVE",
"608 86 OFFCURVE",
"608 280 CURVE SMOOTH",
"608 400 OFFCURVE",
"536 470 OFFCURVE",
"416 470 CURVE SMOOTH",
"378 470 OFFCURVE",
"340 463 OFFCURVE",
"305 445 CURVE",
"249 369 LINE",
"255 349 LINE",
"331 586 LINE",
"295 550 LINE",
"632 550 LINE",
"656 690 LINE"
);
}
);
width = 662;
}
);
unicode = 0035;
},
{
glyphname = six;
lastChange = "2014-04-12 01:45:58 +0900";
layers = (
{
layerId = "4375068D-FDA0-47DA-A897-61BBB4269C7B";
name = "Light Italic";
paths = (
{
closed = 1;
nodes = (
"149 704 OFFCURVE",
"32 473 OFFCURVE",
"32 208 CURVE SMOOTH",
"32 65 OFFCURVE",
"108 -14 OFFCURVE",
"219 -14 CURVE SMOOTH",
"379 -14 OFFCURVE",
"487 111 OFFCURVE",
"487 262 CURVE SMOOTH",
"487 359 OFFCURVE",
"428 458 OFFCURVE",
"305 458 CURVE SMOOTH",
"226 458 OFFCURVE",
"150 424 OFFCURVE",
"94 360 CURVE",
"55 294 LINE",
"58 280 LINE",
"86 594 OFFCURVE",
"241 683 OFFCURVE",
"354 683 CURVE SMOOTH",
"451 683 OFFCURVE",
"502 632 OFFCURVE",
"502 528 CURVE SMOOTH",
"502 518 LINE",
"524 518 LINE",
"524 528 LINE SMOOTH",
"522 627 OFFCURVE",
"480 704 OFFCURVE",
"358 704 CURVE SMOOTH"
);
},
{
closed = 1;
nodes = (
"403 437 OFFCURVE",
"463 362 OFFCURVE",
"463 258 CURVE SMOOTH",
"463 122 OFFCURVE",
"365 7 OFFCURVE",
"224 7 CURVE SMOOTH",
"116 7 OFFCURVE",
"55 87 OFFCURVE",
"55 191 CURVE SMOOTH",
"55 336 OFFCURVE",
"174 437 OFFCURVE",
"299 437 CURVE SMOOTH"
);
}
);
width = 530;
},
{
layerId = "518735FF-A855-4455-BD68-071AC00DFA4E";
name = "Regular Italic";
paths = (
{
closed = 1;
nodes = (
"216 704 OFFCURVE",
"43 536 OFFCURVE",
"43 220 CURVE SMOOTH",
"43 58 OFFCURVE",
"126 -14 OFFCURVE",
"249 -14 CURVE SMOOTH",
"398 -14 OFFCURVE",
"533 106 OFFCURVE",
"533 275 CURVE SMOOTH",
"533 387 OFFCURVE",
"465 466 OFFCURVE",
"340 466 CURVE SMOOTH",
"290 466 OFFCURVE",
"249 453 OFFCURVE",
"206 422 CURVE",
"136 342 LINE",
"141 320 LINE",
"164 530 OFFCURVE",
"262 636 OFFCURVE",
"371 636 CURVE SMOOTH",
"441 636 OFFCURVE",
"475 596 OFFCURVE",
"477 518 CURVE SMOOTH",
"477 508 LINE",
"569 508 LINE",
"570 518 LINE SMOOTH",
"579 631 OFFCURVE",
"508 704 OFFCURVE",
"390 704 CURVE SMOOTH"
);
},
{
closed = 1;
nodes = (
"400 398 OFFCURVE",
"435 337 OFFCURVE",
"435 262 CURVE SMOOTH",
"435 138 OFFCURVE",
"351 54 OFFCURVE",
"255 54 CURVE SMOOTH",
"178 54 OFFCURVE",
"135 113 OFFCURVE",
"135 192 CURVE SMOOTH",
"135 323 OFFCURVE",
"222 398 OFFCURVE",
"313 398 CURVE SMOOTH"
);
}
);
width = 580;
},
{
layerId = "F37E1481-2EA3-4843-874F-9D06DA6D7C4C";
name = "Bold Italic";
paths = (
{
closed = 1;
nodes = (
"213 704 OFFCURVE",
"52 516 OFFCURVE",
"52 226 CURVE SMOOTH",
"52 76 OFFCURVE",
"131 -14 OFFCURVE",
"285 -14 CURVE SMOOTH",
"446 -14 OFFCURVE",
"611 90 OFFCURVE",
"611 283 CURVE SMOOTH",
"611 381 OFFCURVE",
"555 462 OFFCURVE",
"421 462 CURVE SMOOTH",
"373 462 OFFCURVE",
"335 455 OFFCURVE",
"293 426 CURVE",
"224 326 LINE",
"243 326 LINE",
"273 497 OFFCURVE",
"322 572 OFFCURVE",
"395 572 CURVE SMOOTH",
"437 572 OFFCURVE",
"458 552 OFFCURVE",
"464 504 CURVE SMOOTH",
"464 494 LINE",
"644 494 LINE",
"645 504 LINE SMOOTH",
"651 627 OFFCURVE",
"582 704 OFFCURVE",
"428 704 CURVE SMOOTH"
);
},
{
closed = 1;
nodes = (
"391 330 OFFCURVE",
"418 297 OFFCURVE",
"418 245 CURVE SMOOTH",
"418 180 OFFCURVE",
"377 118 OFFCURVE",
"306 118 CURVE SMOOTH",
"257 118 OFFCURVE",
"230 151 OFFCURVE",
"230 202 CURVE SMOOTH",
"230 282 OFFCURVE",
"285 330 OFFCURVE",
"341 330 CURVE SMOOTH"
);
}
);
width = 662;
}
);
unicode = 0036;
},
{
glyphname = seven;
lastChange = "2014-04-12 01:45:58 +0900";
layers = (
{
layerId = "4375068D-FDA0-47DA-A897-61BBB4269C7B";
name = "Light Italic";
paths = (
{
closed = 1;
nodes = (
"118 690 LINE",
"114 669 LINE",
"555 669 LINE",
"544 681 LINE",
"58 0 LINE",
"84 0 LINE",
"568 679 LINE",
"570 690 LINE"
);
}
);
width = 530;
},
{
layerId = "518735FF-A855-4455-BD68-071AC00DFA4E";
name = "Regular Italic";
paths = (
{
closed = 1;
nodes = (
"125 690 LINE",
"112 620 LINE",
"539 620 LINE",
"502 641 LINE",
"47 0 LINE",
"147 0 LINE",
"606 650 LINE",
"613 690 LINE"
);
}
);
width = 580;
},
{
layerId = "F37E1481-2EA3-4843-874F-9D06DA6D7C4C";
name = "Bold Italic";
paths = (
{
closed = 1;
nodes = (
"126 690 LINE",
"101 550 LINE",
"517 550 LINE",
"515 641 LINE",
"48 0 LINE",
"245 0 LINE",
"669 590 LINE",
"687 690 LINE"
);
}
);
width = 662;
}
);
unicode = 0037;
},
{
glyphname = eight;
lastChange = "2014-04-12 01:45:58 +0900";
layers = (
{
layerId = "4375068D-FDA0-47DA-A897-61BBB4269C7B";
name = "Light Italic";
paths = (
{
closed = 1;
nodes = (
"210 704 OFFCURVE",
"114 607 OFFCURVE",
"114 494 CURVE SMOOTH",
"114 421 OFFCURVE",
"164 368 OFFCURVE",
"228 357 CURVE",
"229 363 LINE",
"103 341 OFFCURVE",
"19 258 OFFCURVE",
"19 145 CURVE SMOOTH",
"19 42 OFFCURVE",
"108 -15 OFFCURVE",
"215 -15 CURVE SMOOTH",
"349 -15 OFFCURVE",
"480 64 OFFCURVE",
"480 209 CURVE SMOOTH",
"480 284 OFFCURVE",
"435 346 OFFCURVE",
"345 362 CURVE",
"344 356 LINE",
"449 372 OFFCURVE",
"521 462 OFFCURVE",
"521 554 CURVE SMOOTH",
"521 637 OFFCURVE",
"456 704 OFFCURVE",
"349 704 CURVE SMOOTH"
);
},
{
closed = 1;
nodes = (
"398 348 OFFCURVE",
"455 289 OFFCURVE",
"455 204 CURVE SMOOTH",
"455 64 OFFCURVE",
"321 6 OFFCURVE",
"220 6 CURVE SMOOTH",
"131 6 OFFCURVE",
"43 49 OFFCURVE",
"43 149 CURVE SMOOTH",
"43 262 OFFCURVE",
"135 348 OFFCURVE",
"283 348 CURVE SMOOTH"
);
},
{
closed = 1;
nodes = (
"441 683 OFFCURVE",
"497 632 OFFCURVE",
"497 551 CURVE SMOOTH",
"497 425 OFFCURVE",
"386 369 OFFCURVE",
"290 369 CURVE SMOOTH",
"193 369 OFFCURVE",
"139 414 OFFCURVE",
"139 500 CURVE SMOOTH",
"139 609 OFFCURVE",
"231 683 OFFCURVE",
"346 683 CURVE SMOOTH"
);
}
);
width = 530;
},
{
layerId = "518735FF-A855-4455-BD68-071AC00DFA4E";
name = "Regular Italic";
paths = (
{
closed = 1;
nodes = (
"221 704 OFFCURVE",
"115 618 OFFCURVE",
"115 493 CURVE SMOOTH",
"115 420 OFFCURVE",
"163 368 OFFCURVE",
"230 355 CURVE",
"232 372 LINE",
"133 358 OFFCURVE",
"27 277 OFFCURVE",
"27 156 CURVE SMOOTH",
"27 33 OFFCURVE",
"123 -15 OFFCURVE",
"240 -15 CURVE SMOOTH",
"375 -15 OFFCURVE",
"525 53 OFFCURVE",
"525 218 CURVE SMOOTH",
"525 299 OFFCURVE",
"467 360 OFFCURVE",
"390 372 CURVE",
"387 356 LINE",
"478 372 OFFCURVE",
"565 441 OFFCURVE",
"565 547 CURVE SMOOTH",
"565 643 OFFCURVE",
"493 704 OFFCURVE",
"373 704 CURVE SMOOTH"
);
},
{
closed = 1;
nodes = (
"393 324 OFFCURVE",
"429 272 OFFCURVE",
"429 213 CURVE SMOOTH",
"429 125 OFFCURVE",
"371 53 OFFCURVE",
"254 53 CURVE SMOOTH",
"166 53 OFFCURVE",
"123 100 OFFCURVE",
"123 165 CURVE SMOOTH",
"123 244 OFFCURVE",
"178 324 OFFCURVE",
"301 324 CURVE SMOOTH"
);
},
{
closed = 1;
nodes = (
"437 636 OFFCURVE",
"471 591 OFFCURVE",
"471 536 CURVE SMOOTH",
"471 458 OFFCURVE",
"416 392 OFFCURVE",
"317 392 CURVE SMOOTH",
"243 392 OFFCURVE",
"208 435 OFFCURVE",
"208 493 CURVE SMOOTH",
"208 568 OFFCURVE",
"261 636 OFFCURVE",
"361 636 CURVE SMOOTH"
);
}
);
width = 580;
},
{
layerId = "F37E1481-2EA3-4843-874F-9D06DA6D7C4C";
name = "Bold Italic";
paths = (
{
closed = 1;
nodes = (
"233 704 OFFCURVE",
"124 608 OFFCURVE",
"124 480 CURVE SMOOTH",
"124 404 OFFCURVE",
"172 370 OFFCURVE",
"229 357 CURVE",
"231 374 LINE",
"141 355 OFFCURVE",
"34 293 OFFCURVE",
"34 158 CURVE SMOOTH",
"34 36 OFFCURVE",
"127 -15 OFFCURVE",
"279 -15 CURVE SMOOTH",
"459 -15 OFFCURVE",
"601 58 OFFCURVE",
"601 223 CURVE SMOOTH",
"601 312 OFFCURVE",
"536 359 OFFCURVE",
"469 374 CURVE",
"466 358 LINE",
"546 374 OFFCURVE",
"640 419 OFFCURVE",
"640 538 CURVE SMOOTH",
"640 635 OFFCURVE",
"565 704 OFFCURVE",
"418 704 CURVE SMOOTH"
);
},
{
closed = 1;
nodes = (
"387 297 OFFCURVE",
"415 268 OFFCURVE",
"415 221 CURVE SMOOTH",
"415 161 OFFCURVE",
"383 117 OFFCURVE",
"304 117 CURVE SMOOTH",
"253 117 OFFCURVE",
"224 143 OFFCURVE",
"224 189 CURVE SMOOTH",
"224 257 OFFCURVE",
"277 297 OFFCURVE",
"335 297 CURVE SMOOTH"
);
},
{
closed = 1;
nodes = (
"430 572 OFFCURVE",
"454 551 OFFCURVE",
"454 514 CURVE SMOOTH",
"454 457 OFFCURVE",
"413 426 OFFCURVE",
"365 426 CURVE SMOOTH",
"329 426 OFFCURVE",
"307 446 OFFCURVE",
"307 485 CURVE SMOOTH",
"307 541 OFFCURVE",
"347 572 OFFCURVE",
"391 572 CURVE SMOOTH"
);
}
);
width = 662;
}
);
unicode = 0038;
},
{
glyphname = nine;
lastChange = "2014-04-12 01:45:58 +0900";
layers = (
{
layerId = "4375068D-FDA0-47DA-A897-61BBB4269C7B";
name = "Light Italic";
paths = (
{
closed = 1;
nodes = (
"180 704 OFFCURVE",
"72 579 OFFCURVE",
"72 428 CURVE SMOOTH",
"72 331 OFFCURVE",
"131 232 OFFCURVE",
"254 232 CURVE SMOOTH",
"333 232 OFFCURVE",
"409 266 OFFCURVE",
"465 330 CURVE",
"504 396 LINE",
"501 410 LINE",
"473 96 OFFCURVE",
"318 7 OFFCURVE",
"205 7 CURVE SMOOTH",
"108 7 OFFCURVE",
"57 58 OFFCURVE",
"57 162 CURVE SMOOTH",
"57 172 LINE",
"35 172 LINE",
"35 162 LINE SMOOTH",
"37 63 OFFCURVE",
"79 -14 OFFCURVE",
"201 -14 CURVE SMOOTH",
"410 -14 OFFCURVE",
"527 217 OFFCURVE",
"527 482 CURVE SMOOTH",
"527 625 OFFCURVE",
"451 704 OFFCURVE",
"340 704 CURVE SMOOTH"
);
},
{
closed = 1;
nodes = (
"443 683 OFFCURVE",
"504 603 OFFCURVE",
"504 499 CURVE SMOOTH",
"504 354 OFFCURVE",
"385 253 OFFCURVE",
"260 253 CURVE SMOOTH",
"156 253 OFFCURVE",
"96 328 OFFCURVE",
"96 432 CURVE SMOOTH",
"96 568 OFFCURVE",
"194 683 OFFCURVE",
"335 683 CURVE SMOOTH"
);
}
);
width = 530;
},
{
layerId = "518735FF-A855-4455-BD68-071AC00DFA4E";
name = "Regular Italic";
paths = (
{
closed = 1;
nodes = (
"200 704 OFFCURVE",
"65 584 OFFCURVE",
"65 415 CURVE SMOOTH",
"65 303 OFFCURVE",
"133 224 OFFCURVE",
"258 224 CURVE SMOOTH",
"308 224 OFFCURVE",
"349 237 OFFCURVE",
"392 268 CURVE",
"462 348 LINE",
"457 370 LINE",
"434 160 OFFCURVE",
"336 54 OFFCURVE",
"227 54 CURVE SMOOTH",
"157 54 OFFCURVE",
"123 94 OFFCURVE",
"121 172 CURVE SMOOTH",
"121 182 LINE",
"29 182 LINE",
"28 172 LINE SMOOTH",
"19 59 OFFCURVE",
"90 -14 OFFCURVE",
"208 -14 CURVE SMOOTH",
"382 -14 OFFCURVE",
"555 154 OFFCURVE",
"555 470 CURVE SMOOTH",
"555 632 OFFCURVE",
"472 704 OFFCURVE",
"349 704 CURVE SMOOTH"
);
},
{
closed = 1;
nodes = (
"420 636 OFFCURVE",
"463 577 OFFCURVE",
"463 498 CURVE SMOOTH",
"463 367 OFFCURVE",
"376 292 OFFCURVE",
"285 292 CURVE SMOOTH",
"198 292 OFFCURVE",
"163 353 OFFCURVE",
"163 428 CURVE SMOOTH",
"163 552 OFFCURVE",
"247 636 OFFCURVE",
"343 636 CURVE SMOOTH"
);
}
);
width = 580;
},
{
layerId = "F37E1481-2EA3-4843-874F-9D06DA6D7C4C";
name = "Bold Italic";
paths = (
{
closed = 1;
nodes = (
"240 704 OFFCURVE",
"75 600 OFFCURVE",
"75 407 CURVE SMOOTH",
"75 309 OFFCURVE",
"131 228 OFFCURVE",
"265 228 CURVE SMOOTH",
"313 228 OFFCURVE",
"351 235 OFFCURVE",
"393 264 CURVE",
"462 364 LINE",
"443 364 LINE",
"413 193 OFFCURVE",
"364 118 OFFCURVE",
"291 118 CURVE SMOOTH",
"249 118 OFFCURVE",
"228 138 OFFCURVE",
"222 186 CURVE SMOOTH",
"222 196 LINE",
"42 196 LINE",
"41 186 LINE SMOOTH",
"35 63 OFFCURVE",
"104 -14 OFFCURVE",
"258 -14 CURVE SMOOTH",
"473 -14 OFFCURVE",
"634 174 OFFCURVE",
"634 464 CURVE SMOOTH",
"634 614 OFFCURVE",
"555 704 OFFCURVE",
"401 704 CURVE SMOOTH"
);
},
{
closed = 1;
nodes = (
"429 572 OFFCURVE",
"456 539 OFFCURVE",
"456 488 CURVE SMOOTH",
"456 408 OFFCURVE",
"401 360 OFFCURVE",
"345 360 CURVE SMOOTH",
"295 360 OFFCURVE",
"268 393 OFFCURVE",
"268 445 CURVE SMOOTH",
"268 510 OFFCURVE",
"309 572 OFFCURVE",
"380 572 CURVE SMOOTH"
);
}
);
width = 662;
}
);
unicode = 0039;
},
{
glyphname = fraction;
lastChange = "2014-04-12 01:45:58 +0900";
layers = (
{
layerId = "518735FF-A855-4455-BD68-071AC00DFA4E";
name = "Regular Italic";
paths = (
{
closed = 1;
nodes = (
"360 690 LINE",
"-207 0 LINE",
"-114 0 LINE",
"453 690 LINE"
);
}
);
width = 218;
},
{
layerId = "4375068D-FDA0-47DA-A897-61BBB4269C7B";
name = "Light Italic";
paths = (
{
closed = 1;
nodes = (
"450 690 LINE",
"-117 0 LINE",
"-89 0 LINE",
"478 690 LINE"
);
}
);
width = 333;
},
{
layerId = "F37E1481-2EA3-4843-874F-9D06DA6D7C4C";
name = "Bold Italic";
paths = (
{
closed = 1;
nodes = (
"371 690 LINE",
"-197 0 LINE",
"-64 0 LINE",
"504 690 LINE"
);
}
);
width = 299;
}
);
unicode = 2044;
},
{
glyphname = asterisk;
lastChange = "2014-04-12 01:45:58 +0900";
layers = (
{
layerId = "4375068D-FDA0-47DA-A897-61BBB4269C7B";
name = "Light Italic";
paths = (
{
closed = 1;
nodes = (
"286 474 LINE",
"255 280 LINE",
"106 337 LINE",
"95 315 LINE",
"245 263 LINE",
"106 114 LINE",
"124 100 LINE",
"260 254 LINE",
"340 100 LINE",
"362 114 LINE",
"276 263 LINE",
"445 315 LINE",
"442 337 LINE",
"273 280 LINE",
"310 474 LINE"
);
}
);
width = 530;
},
{
layerId = "518735FF-A855-4455-BD68-071AC00DFA4E";
name = "Regular Italic";
paths = (
{
closed = 1;
nodes = (
"269 475 LINE",
"246 297 LINE",
"103 357 LINE",
"73 298 LINE",
"223 256 LINE",
"88 119 LINE",
"131 82 LINE",
"257 232 LINE",
"329 82 LINE",
"386 119 LINE",
"298 256 LINE",
"463 298 LINE",
"455 357 LINE",
"291 298 LINE",
"331 475 LINE"
);
}
);
width = 530;
},
{
layerId = "F37E1481-2EA3-4843-874F-9D06DA6D7C4C";
name = "Bold Italic";
paths = (
{
closed = 1;
nodes = (
"258 475 LINE",
"247 331 LINE",
"133 386 LINE",
"79 275 LINE",
"207 246 LINE",
"88 134 LINE",
"170 66 LINE",
"267 188 LINE",
"318 66 LINE",
"424 134 LINE",
"345 246 LINE",
"483 275 LINE",
"467 386 LINE",
"335 331 LINE",
"374 475 LINE"
);
}
);
width = 560;
}
);
unicode = 002A;
},
{
glyphname = backslash;
lastChange = "2014-04-12 01:45:58 +0900";
layers = (
{
layerId = "4375068D-FDA0-47DA-A897-61BBB4269C7B";
name = "Light Italic";
paths = (
{
closed = 1;
nodes = (
"75 720 LINE",
"194 -30 LINE",
"216 -30 LINE",
"97 720 LINE"
);
}
);
width = 263;
},
{
layerId = "518735FF-A855-4455-BD68-071AC00DFA4E";
name = "Regular Italic";
paths = (
{
closed = 1;
nodes = (
"75 720 LINE",
"194 -30 LINE",
"256 -30 LINE",
"137 720 LINE"
);
}
);
width = 303;
},
{
layerId = "F37E1481-2EA3-4843-874F-9D06DA6D7C4C";
name = "Bold Italic";
paths = (
{
closed = 1;
nodes = (
"61 720 LINE",
"180 -30 LINE",
"285 -30 LINE",
"166 720 LINE"
);
}
);
width = 346;
}
);
unicode = 005C;
},
{
glyphname = bullet;
lastChange = "2014-08-20 09:39:55 +0900";
layers = (
{
layerId = "4375068D-FDA0-47DA-A897-61BBB4269C7B";
name = "Light Italic";
paths = (
{
closed = 1;
nodes = (
"66 350 OFFCURVE",
"41 326 OFFCURVE",
"41 296 CURVE SMOOTH",
"41 275 OFFCURVE",
"56 260 OFFCURVE",
"79 260 CURVE SMOOTH",
"108 260 OFFCURVE",
"133 284 OFFCURVE",
"133 314 CURVE SMOOTH",
"133 335 OFFCURVE",
"118 350 OFFCURVE",
"95 350 CURVE SMOOTH"
);
}
);
width = 174;
},
{
layerId = "518735FF-A855-4455-BD68-071AC00DFA4E";
name = "Regular Italic";
paths = (
{
closed = 1;
nodes = (
"135 409 OFFCURVE",
"76 354 OFFCURVE",
"76 286 CURVE SMOOTH",
"76 237 OFFCURVE",
"111 201 OFFCURVE",
"164 201 CURVE SMOOTH",
"229 201 OFFCURVE",
"288 256 OFFCURVE",
"288 324 CURVE SMOOTH",
"288 373 OFFCURVE",
"253 409 OFFCURVE",
"200 409 CURVE SMOOTH"
);
}
);
width = 364;
},
{
layerId = "F37E1481-2EA3-4843-874F-9D06DA6D7C4C";
name = "Bold Italic";
paths = (
{
closed = 1;
nodes = (
"120 435 OFFCURVE",
"62 366 OFFCURVE",
"62 274 CURVE SMOOTH",
"62 208 OFFCURVE",
"109 175 OFFCURVE",
"173 175 CURVE SMOOTH",
"272 175 OFFCURVE",
"330 244 OFFCURVE",
"330 336 CURVE SMOOTH",
"330 402 OFFCURVE",
"283 435 OFFCURVE",
"219 435 CURVE SMOOTH"
);
}
);
width = 392;
}
);
unicode = 2022;
},
